<svg width="113" height="44" viewBox="0 0 113 44" fill="none" xmlns="http://www.w3.org/2000/svg">
<g clip-path="url(#clip0_2_3621)">
<path fill-rule="evenodd" clip-rule="evenodd" d="M8.26368 28.8346C14.1867 25.9331 15.9636 35.6421 12.0454 38.153C8.51426 40.4072 4.83526 36.4008 6.24765 31.312C6.69192 29.7162 7.27266 29.3256 8.26368 28.8458V28.8346ZM13.7824 24.9343C11.3448 22.3564 6.85136 22.44 3.87845 24.6276C-1.22449 28.3995 -1.40675 38.5327 4.01541 42.4386C7.78568 45.1504 10.8549 43.8754 14.2036 42.0454L14.2358 43.6775L19.783 43.6207L19.7381 23.3658L14.2364 23.4101C14.0885 23.7224 14.1566 24.8497 14.0769 25.0394C13.5986 26.0438 14.3502 25.2793 13.7863 24.9335L13.7824 24.9343Z" fill="white"/>
<path d="M13.8581 25.4776C13.8838 25.465 13.9096 25.5028 13.934 25.4965C13.9469 25.4965 13.9533 25.4839 13.9662 25.4776C13.9855 25.4713 13.9983 25.4776 14.0176 25.4776C14.0626 25.4839 14.069 25.4965 14.0433 25.5489C14.0388 25.5552 13.9919 25.5552 13.9854 25.5552C13.9469 25.5552 13.9727 25.5615 13.947 25.53C13.9431 25.5237 13.934 25.5236 13.934 25.5236C13.9308 25.511 13.9468 25.492 13.9533 25.4857C13.9578 25.4731 13.9585 25.4606 13.9662 25.4543C13.9791 25.4417 14.04 25.448 14.0555 25.4543L14.0492 25.5198C14.0299 25.5198 14.0298 25.5135 14.0041 25.5198C13.9976 25.5201 13.9913 25.5261 13.9848 25.5198C13.972 25.5135 13.9656 25.5072 13.9591 25.5009C13.9463 25.5009 13.9335 25.5009 13.9399 25.5073C13.9425 25.5073 13.9455 25.5009 13.9462 25.5073C13.9488 25.5076 13.9488 25.5136 13.9507 25.5136C13.9565 25.5073 13.9572 25.5009 13.9637 25.4946C13.9669 25.4946 13.97 25.4952 13.9764 25.4946C14.015 25.4946 13.9719 25.4952 14.0086 25.4946C14.0105 25.4944 14.0145 25.4947 14.0145 25.4944C14.0177 25.5739 13.9951 25.5322 14.0272 25.5512C14.0298 25.5512 14.022 25.5512 14.0207 25.5512C14.0015 25.5512 13.9886 25.5575 13.9693 25.5512C13.9565 25.5449 13.95 25.5321 13.9372 25.5321C13.9114 25.5258 13.8859 25.5638 13.8614 25.5512V25.4849L13.8581 25.4776Z" fill="white" stroke="#273386" stroke-width="0.122158"/>
<path d="M13.9116 25.3446C13.918 25.3446 13.9244 25.351 13.9308 25.3573C13.9341 25.3579 13.9824 25.3579 13.9824 25.3579C14.0082 25.3579 14.0338 25.3579 14.0576 25.3579C14.0833 25.3581 14.0961 25.3515 14.0703 25.402C14.0697 25.402 14.0318 25.402 14.0189 25.402C13.9932 25.4146 13.974 25.3704 13.9483 25.3704C13.9419 25.371 13.9355 25.3767 13.9291 25.3767C13.9226 25.3767 13.916 25.3831 13.9032 25.3831C13.871 25.3579 13.8518 25.3117 13.8904 25.2834C13.8968 25.277 13.9097 25.2771 13.9161 25.2708C13.9226 25.2708 13.9354 25.2645 13.9418 25.2705C13.9483 25.2768 13.9675 25.3083 13.9868 25.2957C14.0189 25.2767 13.9934 25.2578 14.0384 25.2705C14.0962 25.2957 14.0254 25.3487 13.9997 25.3342C13.9933 25.3279 13.9869 25.3153 13.9805 25.309C13.9612 25.2963 13.9355 25.3342 13.9291 25.3405C13.8841 25.3405 13.8389 25.3026 13.8775 25.2572C13.8826 25.2509 13.8905 25.251 13.8969 25.2446C13.9027 25.2446 13.9419 25.2319 13.9483 25.2319C13.9612 25.2382 13.9612 25.2635 13.9805 25.2572C13.9933 25.2572 13.9933 25.2319 13.9997 25.2256C14.0042 25.2256 14.0447 25.2256 14.0511 25.2256C14.109 25.2256 14.1617 25.2926 14.0768 25.3153C14.064 25.3153 14.0011 25.3216 13.9966 25.309C13.9644 25.2452 14.0028 25.29 13.9913 25.2774C13.9919 25.2648 13.9867 25.2521 13.9938 25.2458C13.9996 25.2395 14.0736 25.2522 14.0839 25.2522L14.0711 25.3172C14.0647 25.3172 14.0132 25.3108 14.0068 25.3045C14.001 25.2982 14.0003 25.2856 13.9938 25.273C14.0003 25.2856 13.9888 25.2667 14.0068 25.2477C14.0106 25.2414 14.0518 25.254 14.0647 25.2477C14.0839 25.248 14.0582 25.2478 14.0582 25.2793C14.0582 25.2856 14.0647 25.2919 14.0711 25.2982C14.0714 25.2988 14.0731 25.2983 14.0731 25.298C14.0667 25.2917 14.0601 25.2918 14.0537 25.2918C14.0504 25.2915 14.0152 25.2855 14.0152 25.2855C14.0023 25.2792 14.0024 25.2539 13.9895 25.2539C13.9766 25.2539 13.9829 25.2792 13.9701 25.2918C13.9637 25.2981 13.9508 25.2914 13.9444 25.298C13.9315 25.298 13.9573 25.2664 13.9251 25.2664C13.9245 25.2663 13.9257 25.2664 13.9257 25.2664C13.9296 25.2664 13.9323 25.2664 13.9387 25.2664C13.9451 25.2727 13.9772 25.3106 13.9901 25.298C13.9965 25.2917 13.9964 25.279 14.0028 25.2664C14.0157 25.2538 14.1103 25.2664 14.0158 25.3232C14.0222 25.3232 14.0151 25.3237 14.0113 25.317C14.0049 25.3044 14.0048 25.2918 13.9983 25.2855C13.979 25.2665 13.9663 25.3107 13.9599 25.317C13.9567 25.3234 13.9469 25.3232 13.9469 25.3232C13.9456 25.323 13.9431 25.3239 13.9418 25.3226C13.9415 25.3226 13.9361 25.291 13.9432 25.3163C13.9426 25.3415 13.9463 25.3732 13.9817 25.3606C13.9881 25.3606 13.9947 25.3479 14.0011 25.3479C14.0075 25.3479 14.0139 25.3479 14.0203 25.3479C14.0332 25.3479 14.0717 25.3479 14.0717 25.3479C14.0974 25.3983 14.0845 25.3921 14.0588 25.3921C14.033 25.3921 14.0074 25.3921 13.9836 25.3921C13.9823 25.3921 13.9322 25.3922 13.9322 25.3927C13.9258 25.3927 13.9194 25.3989 13.913 25.4052V25.3423L13.9116 25.3446Z" fill="white" stroke="#273386" stroke-width="0.122158"/>
<path fill-rule="evenodd" clip-rule="evenodd" d="M28.1068 43.6323C28.517 40.1282 26.2729 26.8146 31.729 28.2877C36.0004 29.4482 31.5355 39.972 35.1461 43.677L40.9324 43.5653C39.0074 39.8715 39.4858 40.2954 39.4744 35.5525C39.4744 32.7849 38.9505 28.243 42.3791 28.243C47.8352 28.243 42.2768 40.0052 46.7986 43.6656L52.6191 43.6088C48.8603 39.7029 52.0153 33.0741 50.3523 27.3715C49.7261 25.2288 47.8466 23.3206 45.1014 23.0527C41.3198 22.6843 40.4199 23.912 38.3582 25.586C37.0141 24.5816 36.3876 23.209 33.5058 23.0416C30.8746 22.8851 29.0827 23.7061 27.8639 25.0676L27.819 23.681C27.7932 23.5359 27.7527 23.4779 27.6846 23.3776L22.3434 23.4546L22.4804 43.687L28.1072 43.6429L28.1068 43.6323Z" fill="white"/>
<path fill-rule="evenodd" clip-rule="evenodd" d="M61.7423 28.89C67.7337 25.6871 69.3168 36.3001 65.2504 38.3088C62.2319 39.7931 60.1704 37.4382 59.5667 35.3068C58.9514 33.1529 59.3275 30.1845 61.7423 28.89ZM59.3683 42.312C62.043 44.4029 67.1869 44.4801 69.8523 42.0363C75.4222 36.9028 74.3402 27.7183 69.1461 24.3034C65.1822 21.7032 62.3687 23.3661 59.5667 25.0177L59.5216 16.1792L53.6897 16.2795L53.8375 43.6878L59.2222 43.7194C59.3707 42.3041 59.2241 43.7319 59.2224 43.7382L59.3683 42.312Z" fill="white"/>
<path fill-rule="evenodd" clip-rule="evenodd" d="M80.8786 31.4012C81.7784 26.5133 87.1093 26.6027 87.7927 31.4139L80.8786 31.4012ZM92.6793 37.1485C88.8635 38.4988 82.3707 41.1102 80.8672 35.6308L93.6132 35.3967C93.8639 29.6272 92.0982 25.2191 87.9407 23.5674C76.9716 19.2152 70.2284 34.9392 78.3613 41.6238C81.7784 44.4361 88.3849 44.9719 91.9615 42.0032C92.5312 40.8537 92.6451 38.8448 92.6679 37.1485H92.6793Z" fill="white"/>
<path fill-rule="evenodd" clip-rule="evenodd" d="M112.989 23.3887L106.838 23.5004L102.885 36.6354L99.0579 23.3776L92.9755 23.3903C93.169 25.12 98.9669 42.1831 99.8325 43.6674L106.234 43.6989L113 23.3995L112.989 23.3887Z" fill="white"/>
<path d="M87.7968 4.94909C87.7921 4.94904 87.7895 4.94946 87.7884 4.95057C87.6405 5.10585 84.0542 10.5331 84.0823 10.5592C84.1024 10.5778 84.3962 10.6793 84.7351 10.7847C85.0741 10.8901 85.3847 10.9867 85.4254 10.9994C85.4802 11.0165 85.5858 10.8834 85.8304 10.4888C86.0124 10.1953 86.1762 9.94577 86.1944 9.93438C86.2247 9.91544 88.0516 10.4782 88.0875 10.5175C88.0963 10.5268 88.0839 10.8246 88.0634 11.1791C88.0415 11.5336 88.0284 11.8275 88.0342 11.8324C88.0401 11.8372 88.3733 11.9467 88.775 12.0756C89.1768 12.2046 89.529 12.3112 89.5577 12.3125C89.6225 12.3154 89.6432 11.8592 89.7393 8.29927C89.78 6.79402 89.7949 5.58481 89.7729 5.56362C89.7044 5.49736 87.9382 4.9504 87.7968 4.94897L87.7968 4.94909ZM88.3287 6.55277C88.3392 6.56346 88.3126 7.1516 88.2694 7.8598C88.2262 8.56799 88.1786 9.16057 88.1635 9.17666C88.1273 9.21525 86.9274 8.83519 86.9267 8.78491C86.9267 8.7275 88.3062 6.52999 88.3287 6.55277Z" fill="white"/>
<path d="M25.7537 11.439C24.6396 11.287 23.7126 10.4235 23.2937 9.14745C23.0554 8.42162 23.0057 7.85094 23.1256 7.21615C23.3881 5.82672 24.6193 4.83543 26.3247 4.64046C27.0287 4.55997 27.012 4.55586 27.1159 4.83549C27.1655 4.96901 27.2575 5.21608 27.3204 5.38452L27.4347 5.69079L26.9649 5.74433C25.8369 5.87291 25.1547 6.22913 24.8573 6.84488C24.5008 7.58282 24.7881 8.88228 25.46 9.5714C25.7027 9.82029 25.7805 9.86968 26.0712 9.95911C26.4781 10.0843 26.8334 10.066 27.3756 9.89193C27.806 9.75373 28.2038 9.51939 28.5816 9.18137L28.8539 8.93785L28.8842 9.10141C28.9862 9.65247 28.7678 10.2889 28.3433 10.6773C27.7643 11.2073 26.589 11.5529 25.7537 11.439Z" fill="white"/>
<path d="M81.4399 9.82472C81.0714 9.73196 80.7586 9.6445 80.745 9.63035C80.7212 9.6056 82.1962 3.35711 82.2352 3.31754C82.2571 3.29542 83.6762 3.64357 83.712 3.67984C83.7248 3.69294 83.3982 5.11577 82.9858 6.84171C82.4556 9.06146 82.2177 9.98175 82.1731 9.98656C82.1384 9.9903 81.8085 9.91747 81.4399 9.82472Z" fill="white"/>
<path d="M30.9427 6.76119C30.5213 5.02917 30.1843 3.60407 30.194 3.5943C30.2425 3.54508 34.6769 2.46856 34.705 2.49918C34.7665 2.56631 34.9865 3.62899 34.9467 3.66651C34.9248 3.687 34.2549 3.86436 33.4577 4.06062C32.4012 4.32071 32.0083 4.43527 32.0083 4.48314C32.0083 4.54686 32.2849 5.71125 32.3069 5.73968C32.3127 5.74745 32.8182 5.62984 33.4298 5.47828C34.0415 5.32671 34.5813 5.19549 34.6294 5.18666C34.706 5.17261 34.7352 5.24388 34.8639 5.76075C34.9447 6.08531 34.994 6.36136 34.9735 6.37418C34.9531 6.38702 34.4279 6.52306 33.8066 6.67653C33.1853 6.83 32.6629 6.96435 32.6457 6.9751C32.6209 6.99064 32.8991 8.28609 32.9346 8.32029C32.9397 8.32532 33.6323 8.15791 34.4734 7.94822C35.3146 7.73854 36.0085 7.5712 36.0156 7.57636C36.0225 7.58154 36.0764 7.85858 36.135 8.192C36.2316 8.74098 36.2347 8.80025 36.1679 8.81964C35.9442 8.88454 31.7944 9.91032 31.7555 9.91032C31.7299 9.91032 31.3642 8.49321 30.9428 6.76119H30.9427Z" fill="white"/>
<path d="M77.7524 8.98207C77.6153 8.95747 77.3979 8.88846 77.2691 8.82874C76.7625 8.5938 76.5366 8.21188 76.1824 6.99097C75.918 6.07964 75.8259 5.83114 75.6309 5.50316L75.4745 5.24005H75.7855C76.5848 5.24005 77.0656 4.81594 77.0656 4.11106C77.0656 3.77991 76.9099 3.54291 76.5821 3.3753C76.409 3.28675 75.5479 3.10707 75.5061 3.15075C75.4893 3.16813 75.2688 4.32479 75.0159 5.72114C74.7629 7.11749 74.5463 8.26981 74.5344 8.28185C74.5099 8.30656 73.2022 8.07244 73.0897 8.02322C73.0258 7.99521 73.0861 7.60902 73.594 4.81403C73.9114 3.06649 74.1804 1.62888 74.1918 1.61935C74.2363 1.58207 76.882 2.10038 77.2394 2.21639C77.8592 2.41759 78.3301 2.78417 78.5816 3.26117C78.6733 3.43516 78.6862 3.52567 78.6862 3.99155C78.6862 4.47013 78.6742 4.54875 78.5664 4.77764C78.3056 5.33103 77.8136 5.68826 77.2351 5.74433L76.9515 5.77182L77.0971 5.87704C77.3207 6.03853 77.6349 6.55685 77.9517 7.28653C78.3494 8.20244 78.572 8.54341 78.9125 8.75837L79.0475 8.84357L78.8677 8.91967C78.6496 9.01196 78.0923 9.04314 77.7524 8.98207Z" fill="white"/>
<path d="M38.8333 8.22936C38.8099 8.153 37.7621 2.09472 37.7487 1.95937C37.7374 1.84646 37.7403 1.84571 39.0842 1.60265C40.644 1.32054 41.1868 1.2882 41.6948 1.44715C42.2868 1.63236 42.657 1.99859 42.8332 2.57323C43.0876 3.4033 42.7731 4.25187 42.0739 4.62191C41.8173 4.75771 41.7618 4.82351 41.9031 4.82428C42.0968 4.82539 42.5258 5.15632 43.1927 5.81934C43.9342 6.55634 44.2286 6.78323 44.5509 6.86589C44.6576 6.89326 44.7449 6.933 44.7449 6.95419C44.7449 7.00763 44.3947 7.24 44.1742 7.33291C43.8524 7.46853 43.5897 7.52008 43.2156 7.52105C42.557 7.5229 42.2967 7.32021 41.3801 6.09296C40.8568 5.3923 40.613 5.12058 40.2939 4.88266C40.2186 4.82648 40.1819 4.77987 40.2123 4.77907C40.3813 4.77459 40.799 4.56025 41.0059 4.3718C41.2894 4.11357 41.367 3.94457 41.3657 3.58839C41.3621 2.95071 40.9778 2.60289 40.3438 2.66635C39.7782 2.72296 39.495 2.79366 39.495 2.87829C39.495 2.92183 39.6902 4.07225 39.9287 5.43479C40.1673 6.79733 40.3624 7.93271 40.3624 7.95784C40.3624 7.98296 40.1621 8.03965 39.9173 8.08379C39.6725 8.12793 39.3321 8.19068 39.1608 8.22323C38.9289 8.26731 38.8454 8.26887 38.8333 8.22934V8.22936Z" fill="white"/>
<path d="M67.75 0.681039C67.6942 0.665688 67.3921 1.34408 66.3664 3.78814C65.6446 5.5078 65.0633 6.92403 65.0745 6.93533C65.1106 6.97213 66.5422 7.12522 66.5717 7.09544C66.5874 7.07954 66.7003 6.80123 66.8226 6.47697C66.9735 6.07693 67.067 5.88815 67.1136 5.88978C67.313 5.89677 68.986 6.10378 69.0059 6.12394C69.0187 6.13697 69.0694 6.42408 69.1183 6.76192C69.1673 7.09977 69.2185 7.38743 69.2321 7.40113C69.2456 7.41486 69.5602 7.46227 69.9313 7.50655C70.7882 7.60882 70.857 7.61137 70.8571 7.54051C70.8571 7.48078 69.8228 1.17631 69.7849 1.00531C69.7652 0.915864 69.6963 0.901982 68.7925 0.80495C68.2583 0.747604 67.7892 0.691834 67.75 0.681039ZM68.5195 2.14232C68.5253 2.14222 68.5268 2.15867 68.5275 2.1916C68.5275 2.23167 68.6008 2.81873 68.6887 3.49618C68.7766 4.17362 68.8485 4.7495 68.8485 4.77588C68.8485 4.80226 68.8022 4.82126 68.7457 4.81815C68.5698 4.80846 67.5503 4.68037 67.5364 4.66621C67.521 4.6506 68.4202 2.30228 68.4836 2.19232C68.503 2.15907 68.5136 2.14242 68.5194 2.14232H68.5195Z" fill="white"/>
<path d="M47.5143 6.96299C47.3419 6.61792 44.9629 0.84211 44.9843 0.820436C44.9978 0.806674 45.3932 0.751865 45.8629 0.698658C46.5146 0.624828 46.7247 0.614954 46.7503 0.656933C46.769 0.687193 47.1725 1.8038 47.6475 3.13831C48.2122 4.72499 48.5218 5.53652 48.5421 5.48327C48.5593 5.43849 48.7295 4.26959 48.9207 2.88573C49.1118 1.50186 49.2768 0.355456 49.2873 0.338169C49.3122 0.29717 50.8552 0.131101 50.8894 0.165726C50.9157 0.192435 49.6761 6.73663 49.631 6.80891C49.6178 6.83032 49.1958 6.89264 48.6937 6.94743C48.1915 7.00221 47.7351 7.05685 47.6794 7.06885C47.6031 7.08528 47.5624 7.05916 47.5143 6.96299Z" fill="white"/>
<path d="M61.0139 6.67274C60.5839 6.50049 60.3106 6.13132 60.2489 5.63934C60.2219 5.42268 60.2245 5.41544 60.3233 5.44396C60.9996 5.63927 61.1154 5.64776 61.3888 5.52201C61.7223 5.3686 61.7226 5.36631 61.8289 2.60435C61.8803 1.26915 61.9246 0.174651 61.9273 0.172136C61.9525 0.149015 63.4167 0.231409 63.4424 0.257404C63.5024 0.318264 63.2883 5.18234 63.2113 5.50742C63.0783 6.06882 62.802 6.4511 62.3998 6.63051C62.0559 6.78396 61.3456 6.8056 61.0139 6.67274Z" fill="white"/>
<path d="M53.4466 6.19955C53.4324 5.98973 53.4084 4.52273 53.3931 2.93957L53.3653 0.0610749H54.5258C55.1641 0.0610749 56.2135 0.0473547 56.8579 0.03056L58.0293 0V0.631668V1.26334H57.3747C57.0147 1.26334 56.3163 1.27703 55.8226 1.29378L54.9251 1.32423V1.90646C54.9251 2.2267 54.9379 2.5342 54.9525 2.58979L54.9791 2.69086L56.2072 2.66345L57.4352 2.63604V3.26757V3.89908H56.4832C55.9596 3.89908 55.405 3.91244 55.2506 3.92879L54.97 3.95849V4.653V5.3475L56.5678 5.31661L58.1656 5.28573V5.90289V6.52006L57.1727 6.55043C56.6266 6.56715 55.5705 6.58083 54.8257 6.58091L53.4717 6.58099L53.4462 6.1995L53.4466 6.19955Z" fill="white"/>
</g>
<defs>
<clipPath id="clip0_2_3621">
<rect width="113" height="44" fill="white"/>
</clipPath>
</defs>
</svg>
