<svg width="30" height="34" viewBox="0 0 30 34" fill="none" xmlns="http://www.w3.org/2000/svg">
<path d="M5.95043 13.5801V21.27C5.95043 22.2926 5.14691 23.1094 4.12426 23.1094C3.10824 23.1094 2.12543 22.286 2.12543 21.27V13.5801C2.12543 12.5774 3.10824 11.754 4.12426 11.754C5.12699 11.754 5.95043 12.5774 5.95043 13.5801ZM6.66761 24.0059C6.66761 25.095 7.54418 25.9715 8.63324 25.9715H9.95472L9.97465 30.029C9.97465 32.4794 13.6403 32.4594 13.6403 30.029V25.9715H16.1106V30.029C16.1106 32.4661 19.7961 32.4727 19.7961 30.029V25.9715H21.1375C22.2133 25.9715 23.0899 25.095 23.0899 24.0059V12.0926H6.66761V24.0059ZM23.1364 11.4485H6.59457C6.59457 8.60631 8.29457 6.136 10.818 4.84772L9.54965 2.50358C9.36371 2.17819 9.83519 1.97233 9.99457 2.25123L11.2828 4.6153C13.6004 3.586 16.2633 3.63912 18.4746 4.6153L19.7563 2.25787C19.9223 1.97233 20.3871 2.18483 20.2012 2.51022L18.9328 4.84772C21.4364 6.136 23.1364 8.60631 23.1364 11.4485ZM11.8008 7.76295C11.8008 7.38444 11.4953 7.06569 11.1036 7.06569C10.725 7.06569 10.4262 7.38444 10.4262 7.76295C10.4262 8.14147 10.7317 8.46022 11.1036 8.46022C11.4953 8.46022 11.8008 8.14147 11.8008 7.76295ZM19.3313 7.76295C19.3313 7.38444 19.0258 7.06569 18.6539 7.06569C18.2621 7.06569 17.9567 7.38444 17.9567 7.76295C17.9567 8.14147 18.2621 8.46022 18.6539 8.46022C19.0258 8.46022 19.3313 8.14147 19.3313 7.76295ZM25.6266 11.754C24.6239 11.754 23.8004 12.5575 23.8004 13.5801V21.27C23.8004 22.2926 24.6239 23.1094 25.6266 23.1094C26.6493 23.1094 27.6254 22.286 27.6254 21.27V13.5801C27.6254 12.5575 26.6426 11.754 25.6266 11.754Z" fill="white" fill-opacity="0.42"/>
</svg>
