<svg width="24" height="24" viewBox="0 0 24 24" fill="none" xmlns="http://www.w3.org/2000/svg">
<path d="M14.8815 5.20501C14.1836 6.0447 13.0668 6.70699 11.9501 6.61238C11.8105 5.47702 12.3572 4.27071 12.997 3.52563C13.695 2.66229 14.9164 2.04731 15.9052 2C16.0216 3.18266 15.5679 4.34167 14.8815 5.20501ZM15.8936 6.83708C14.2766 6.74247 12.8923 7.77138 12.1245 7.77138C11.3451 7.77138 10.1702 6.88439 8.89061 6.90804C7.22711 6.93169 5.67994 7.88965 4.83074 9.41528C3.08581 12.4665 4.37706 16.9843 6.06383 19.4679C6.88976 20.6979 7.87855 22.0461 9.18143 21.9988C10.4145 21.9515 10.9031 21.1828 12.3921 21.1828C13.8927 21.1828 14.3232 21.9988 15.626 21.9751C16.9755 21.9515 17.8247 20.7452 18.6506 19.5152C19.5928 18.1197 19.9767 16.7596 20 16.6886C19.9767 16.665 17.3942 15.6597 17.371 12.6321C17.3477 10.1012 19.4067 8.89491 19.4998 8.82395C18.3365 7.07361 16.5218 6.88439 15.8936 6.83708Z" fill="#8886FF"/>
</svg>
