<svg width="27" height="32" viewBox="0 0 27 32" fill="none" xmlns="http://www.w3.org/2000/svg">
<path d="M18.1605 5.12802C17.0437 6.47152 15.2569 7.53118 13.4701 7.3798C13.2467 5.56324 14.1215 3.63313 15.1452 2.44101C16.262 1.05966 18.2163 0.0756903 19.7984 0C19.9845 1.89226 19.2586 3.74667 18.1605 5.12802ZM19.7798 7.73933C17.1926 7.58795 14.9777 9.23421 13.7493 9.23421C12.5022 9.23421 10.6224 7.81502 8.57498 7.85287C5.91338 7.89071 3.43791 9.42344 2.07919 11.8645C-0.712699 16.7465 1.3533 23.9749 4.05212 27.9486C5.37362 29.9166 6.95569 32.0738 9.0403 31.9981C11.0132 31.9224 11.795 30.6924 14.1774 30.6924C16.5784 30.6924 17.2671 31.9981 19.3517 31.9602C21.5107 31.9224 22.8694 29.9923 24.1909 28.0243C25.6986 25.7915 26.3128 23.6154 26.35 23.5018C26.3128 23.464 22.1808 21.8556 22.1436 17.0114C22.1063 12.962 25.4008 11.0319 25.5497 10.9183C23.6884 8.11778 20.7848 7.81502 19.7798 7.73933Z" fill="#636D85"/>
</svg>
