<svg width="33" height="32" viewBox="0 0 33 32" fill="none" xmlns="http://www.w3.org/2000/svg">
<path d="M26.9119 22.312C27.2142 22.4331 27.4748 22.6395 27.6619 22.906C27.8299 23.156 27.9479 23.458 28.0219 23.812C28.0619 24.02 28.1099 24.212 28.1619 24.392C28.2599 24.7293 28.4076 25.0501 28.5999 25.344C28.6939 25.49 28.8199 25.65 28.9759 25.828C29.1099 25.974 29.2299 26.162 29.3359 26.39C29.4337 26.5951 29.4862 26.8188 29.4899 27.046C29.4977 27.2644 29.4322 27.4791 29.3039 27.656C29.1734 27.8278 29.0145 27.9759 28.8339 28.094C28.5939 28.26 28.3439 28.406 28.0839 28.532C27.8239 28.656 27.5639 28.786 27.3039 28.922C26.9152 29.1073 26.5437 29.3268 26.1939 29.578C25.8819 29.808 25.5679 30.098 25.2559 30.454C24.8922 30.8615 24.4711 31.2138 24.0059 31.5C23.7684 31.6507 23.5104 31.7665 23.2399 31.844C22.9799 31.916 22.7199 31.964 22.4599 31.984C21.8559 31.984 21.3559 31.88 20.9599 31.672C20.5639 31.464 20.2199 31.084 19.9279 30.532C19.8439 30.374 19.7619 30.276 19.6779 30.234C19.5482 30.179 19.4116 30.142 19.2719 30.124L17.6899 30C17.1699 29.96 16.6399 29.938 16.0979 29.938C15.6478 29.9386 15.1984 29.9747 14.7539 30.046C14.2959 30.12 13.8419 30.208 13.3939 30.312C13.3019 30.332 13.2079 30.412 13.1139 30.546C12.9969 30.7086 12.8657 30.8605 12.7219 31C12.5271 31.1855 12.3 31.334 12.0519 31.438C11.6984 31.5761 11.3215 31.6447 10.9419 31.64C10.5979 31.64 10.2279 31.604 9.83193 31.532C9.46146 31.4676 9.10321 31.3461 8.76993 31.172C8.16873 30.8645 7.52703 30.6436 6.86393 30.516C6.23793 30.402 5.57793 30.296 4.87993 30.204C4.64858 30.1739 4.41894 30.1318 4.19193 30.078C3.98222 30.0306 3.78469 29.94 3.61193 29.812C3.45339 29.6947 3.32121 29.5455 3.22393 29.374C3.11728 29.1555 3.06317 28.9151 3.06593 28.672C3.06593 28.348 3.10793 28.036 3.19193 27.734C3.27593 27.434 3.32193 27.114 3.33193 26.782C3.33193 26.552 3.31593 26.328 3.28593 26.11C3.25285 25.8766 3.23149 25.6416 3.22193 25.406C3.22193 24.876 3.34793 24.486 3.59793 24.234C3.84793 23.984 4.21193 23.786 4.69193 23.64C4.90517 23.5755 5.10599 23.4754 5.28593 23.344C5.45099 23.2195 5.60735 23.0838 5.75393 22.938C5.90274 22.7885 6.03856 22.6266 6.15993 22.454C6.28593 22.276 6.42593 22.098 6.58193 21.922C6.61305 21.882 6.62994 21.8327 6.62993 21.782C6.62993 21.656 6.62393 21.536 6.61393 21.422L6.58193 21.046C6.58193 20.338 6.69193 19.626 6.90993 18.906C7.12993 18.186 7.41593 17.486 7.76993 16.796C8.12337 16.1101 8.52018 15.4474 8.95793 14.812C9.39393 14.178 9.82793 13.588 10.2539 13.046C10.8326 12.3216 11.2917 11.5093 11.6139 10.64C11.9139 9.808 12.0719 8.9 12.0819 7.92C12.0819 7.506 12.0619 7.094 12.0199 6.688C11.978 6.27266 11.9573 5.85545 11.9579 5.438C11.9579 4.604 12.0519 3.854 12.2379 3.188C12.4259 2.52 12.7179 1.948 13.1139 1.468C13.5099 0.988 14.0259 0.63 14.6599 0.39C15.2979 0.15 16.0579 0.02 16.9419 0C17.9959 0 18.8339 0.208 19.4599 0.626C20.0839 1.042 20.5639 1.588 20.8959 2.266C21.2299 2.942 21.4439 3.698 21.5359 4.532C21.6319 5.364 21.6839 6.208 21.6939 7.062V7.328C21.6939 7.756 21.6979 8.136 21.7099 8.468C21.7285 9.14299 21.8822 9.8074 22.1619 10.422C22.3079 10.744 22.5259 11.094 22.8179 11.468C23.3179 12.126 23.8299 12.788 24.3499 13.454C24.8699 14.12 25.3439 14.808 25.7699 15.514C26.1979 16.224 26.5479 16.964 26.8179 17.734C27.0899 18.506 27.2299 19.338 27.2399 20.234C27.2426 20.9404 27.1319 21.6427 26.9119 22.314V22.312ZM13.8039 6.032C13.9479 6.032 14.0679 6.068 14.1639 6.14C14.2615 6.2185 14.3366 6.32127 14.3819 6.438C14.4321 6.55812 14.4684 6.68361 14.4899 6.812C14.5099 6.938 14.5219 7.068 14.5219 7.204C14.5252 7.2899 14.5088 7.37541 14.4739 7.454C14.4397 7.5204 14.392 7.57897 14.3339 7.626L14.1459 7.782C14.0789 7.83876 14.0167 7.90098 13.9599 7.968C13.8849 8.08477 13.7827 8.18155 13.6619 8.25C13.5381 8.3219 13.4179 8.4 13.3019 8.484C13.1911 8.56438 13.0868 8.65332 12.9899 8.75C12.9415 8.80221 12.9041 8.86367 12.8801 8.93069C12.856 8.99771 12.8458 9.06891 12.8499 9.14C12.8499 9.234 12.8959 9.312 12.9899 9.374C13.2231 9.52088 13.4081 9.73298 13.5219 9.984C13.6259 10.224 13.7419 10.458 13.8659 10.688C13.9899 10.916 14.1519 11.108 14.3499 11.266C14.5479 11.422 14.8559 11.5 15.2699 11.5H15.3659C15.7819 11.48 16.1779 11.37 16.5539 11.172C16.9279 10.974 17.3039 10.766 17.6779 10.546C17.7431 10.5094 17.8113 10.4786 17.8819 10.454C17.9546 10.4281 18.0227 10.391 18.0839 10.344L19.2239 9.454C19.2438 9.38696 19.2598 9.31885 19.2719 9.25C19.2841 9.17689 19.2947 9.10354 19.3039 9.03C19.3074 8.93057 19.2794 8.83257 19.2239 8.75C19.1728 8.67745 19.1099 8.61391 19.0379 8.562C18.958 8.50748 18.8673 8.47066 18.7719 8.454C18.6766 8.43486 18.583 8.40811 18.4919 8.374C18.2426 8.32275 18.0043 8.22797 17.7879 8.094C17.5731 7.96059 17.3418 7.85571 17.0999 7.782C17.0599 7.77 17.0279 7.74 17.0059 7.688C16.9821 7.62641 16.9614 7.56367 16.9439 7.5C16.9233 7.43406 16.9179 7.36434 16.9279 7.296C16.9393 7.24362 16.9337 7.18897 16.9119 7.14C16.9119 7.016 16.9219 6.886 16.9439 6.75C16.9655 6.61232 17.013 6.47998 17.0839 6.36C17.1449 6.24888 17.2304 6.15312 17.3339 6.08C17.4572 6.00804 17.5972 5.96944 17.7399 5.968C18.0639 5.968 18.2979 6.088 18.4439 6.328C18.5899 6.568 18.6679 6.828 18.6779 7.108C18.6805 7.23246 18.6538 7.35577 18.5999 7.468C18.5465 7.57477 18.5191 7.69263 18.5199 7.812C18.5199 7.896 18.5479 7.952 18.5999 7.984C18.6629 8.01854 18.7324 8.03965 18.8039 8.046C19.0439 8.046 19.1979 7.99 19.2719 7.876C19.3561 7.7172 19.3988 7.5397 19.3959 7.36C19.3959 7.12 19.3759 6.854 19.3359 6.562C19.2963 6.2795 19.2112 6.00527 19.0839 5.75C18.9674 5.51027 18.8026 5.29716 18.5999 5.124C18.3829 4.95157 18.1108 4.86348 17.8339 4.876C17.2939 4.876 16.9019 5.01 16.6619 5.282C16.4219 5.552 16.2979 5.958 16.2879 6.5C16.2879 6.656 16.2979 6.812 16.3179 6.968C16.3379 7.126 16.3499 7.282 16.3499 7.438C16.3499 7.49 16.3439 7.516 16.3339 7.516C16.3015 7.50895 16.2699 7.49821 16.2399 7.484C16.1776 7.45873 16.1156 7.43273 16.0539 7.406C15.9775 7.37372 15.8986 7.34763 15.8179 7.328C15.685 7.29571 15.547 7.29027 15.4119 7.312C15.329 7.32252 15.2455 7.32786 15.1619 7.328C15.0159 7.328 14.9419 7.302 14.9419 7.25C14.9419 7.094 14.9339 6.896 14.9119 6.656C14.8919 6.416 14.8399 6.176 14.7559 5.936C14.6861 5.72247 14.5806 5.52231 14.4439 5.344C14.3179 5.188 14.1319 5.104 13.8819 5.094C13.714 5.09012 13.5511 5.15182 13.4279 5.266C13.2996 5.38478 13.1891 5.52153 13.0999 5.672C13.0041 5.83449 12.9454 6.01616 12.9279 6.204C12.9112 6.37113 12.8905 6.53784 12.8659 6.704C12.874 6.97993 12.9211 7.25332 13.0059 7.516C13.0579 7.682 13.1159 7.828 13.1779 7.954C13.2399 8.078 13.3139 8.14 13.3979 8.14C13.4479 8.14 13.5179 8.104 13.5999 8.032C13.6839 7.958 13.7259 7.892 13.7259 7.828C13.7259 7.796 13.7099 7.776 13.6779 7.766C13.6477 7.75559 13.6159 7.75018 13.5839 7.75C13.5119 7.75 13.4479 7.714 13.3959 7.64C13.3423 7.56333 13.3005 7.47906 13.2719 7.39C13.2391 7.29181 13.2078 7.19313 13.1779 7.094C13.1156 6.82416 13.1548 6.54083 13.2879 6.298C13.3819 6.13 13.5539 6.042 13.8039 6.032ZM10.3959 30.36C10.6459 30.36 10.8919 30.34 11.1319 30.296C11.3695 30.2551 11.5974 30.1704 11.8039 30.046C12.002 29.9314 12.1641 29.7638 12.2719 29.562C12.3857 29.3277 12.4497 29.0723 12.4599 28.812C12.4599 28.626 12.4281 28.4413 12.3659 28.266C12.3024 28.0871 12.2127 27.9186 12.0999 27.766C11.9765 27.5704 11.8409 27.3827 11.6939 27.204C11.5469 27.0247 11.4113 26.8363 11.2879 26.64C11.0934 26.3541 10.9001 26.0675 10.7079 25.78C10.5219 25.5 10.3339 25.204 10.1479 24.89C9.98348 24.6239 9.82674 24.3531 9.67793 24.078C9.52501 23.7971 9.34695 23.5307 9.14593 23.282C9.01898 23.1235 8.87249 22.9817 8.70993 22.86C8.54292 22.7345 8.3388 22.6683 8.12993 22.672C7.91204 22.6688 7.70084 22.7473 7.53793 22.892C7.35174 23.0543 7.17916 23.2315 7.02193 23.422C6.83751 23.6381 6.63908 23.8419 6.42793 24.032C6.20793 24.23 5.92793 24.386 5.58393 24.5C5.35114 24.5624 5.137 24.6805 4.95993 24.844C4.81393 24.99 4.73993 25.214 4.73993 25.516C4.73993 25.724 4.75593 25.932 4.78793 26.14C4.81793 26.348 4.83993 26.558 4.84993 26.766C4.84993 27.046 4.80993 27.312 4.72393 27.562C4.64325 27.7984 4.60138 28.0462 4.59993 28.296C4.59993 28.578 4.69993 28.776 4.89593 28.89C5.09593 29.006 5.31793 29.084 5.56793 29.124C5.88193 29.178 6.17793 29.218 6.45993 29.25C6.73993 29.282 7.01593 29.33 7.28793 29.39C7.55793 29.454 7.82793 29.52 8.09993 29.594C8.36993 29.666 8.65793 29.782 8.95993 29.938C9.01993 29.968 9.11593 30.006 9.23993 30.046L9.66193 30.186C9.81793 30.24 9.96393 30.282 10.0999 30.312C10.1967 30.338 10.2959 30.354 10.3959 30.36ZM16.1159 28.484C16.4079 28.484 16.7199 28.454 17.0539 28.39C17.7339 28.2626 18.3916 28.0362 19.0059 27.718C19.2919 27.5722 19.5638 27.4001 19.8179 27.204C19.8432 27.1755 19.8647 27.1439 19.8819 27.11C19.9018 27.0698 19.9173 27.0276 19.9279 26.984V26.968C19.9899 26.74 20.0419 26.488 20.0839 26.218C20.1273 25.9429 20.1639 25.6668 20.1939 25.39C20.2242 25.1132 20.2608 24.8371 20.3039 24.562C20.3439 24.292 20.3819 24.026 20.4119 23.766C20.4539 23.486 20.5059 23.214 20.5679 22.954C20.6319 22.694 20.7139 22.448 20.8179 22.218C20.9207 21.9915 21.0637 21.7855 21.2399 21.61C21.445 21.4123 21.6766 21.244 21.9279 21.11V21.078L21.9119 21.032C21.9154 20.9259 21.9479 20.8229 22.0059 20.734C22.0759 20.6192 22.1542 20.5096 22.2399 20.406C22.3232 20.3008 22.424 20.2108 22.5379 20.14C22.642 20.0776 22.7518 20.0254 22.8659 19.984C22.8029 19.7327 22.7349 19.4826 22.6619 19.234C22.5895 18.9865 22.5268 18.7364 22.4739 18.484C22.4227 18.1646 22.3607 17.8471 22.2879 17.532C22.23 17.2876 22.1565 17.0471 22.0679 16.812C21.9784 16.5829 21.8572 16.3675 21.7079 16.172C21.5539 15.964 21.3599 15.712 21.1319 15.422C21.0448 15.3247 20.9659 15.2203 20.8959 15.11C20.8416 14.986 20.8104 14.8532 20.8039 14.718C20.779 14.5813 20.7476 14.4458 20.7099 14.312C20.5695 13.8055 20.408 13.3051 20.2259 12.812C20.1299 12.5487 20.0149 12.2927 19.8819 12.046C19.7757 11.8484 19.6609 11.6556 19.5379 11.468C19.4339 11.312 19.3239 11.234 19.2099 11.234C18.9599 11.234 18.6619 11.334 18.3179 11.532C17.9759 11.73 17.6099 11.948 17.2259 12.188C16.8399 12.428 16.4659 12.652 16.0999 12.86C15.7359 13.068 15.4079 13.166 15.1159 13.156C14.8043 13.1558 14.5017 13.0516 14.2559 12.86C13.9911 12.6582 13.7496 12.4274 13.5359 12.172C13.3179 11.912 13.1359 11.688 12.9899 11.5C12.8439 11.312 12.7359 11.208 12.6619 11.188C12.5799 11.188 12.5319 11.25 12.5219 11.374C12.5108 11.5144 12.5055 11.6552 12.5059 11.796V12.062C12.5059 12.126 12.4959 12.166 12.4739 12.188C12.3599 12.428 12.2339 12.662 12.0999 12.89C11.9639 13.12 11.8299 13.354 11.6939 13.594C11.4245 14.0552 11.274 14.5762 11.2559 15.11C11.2559 15.266 11.2659 15.422 11.2879 15.578C11.3079 15.734 11.3599 15.886 11.4439 16.032L11.4119 16.092C11.3316 16.2035 11.2427 16.3085 11.1459 16.406C11.0474 16.5064 10.959 16.6163 10.8819 16.734C10.4994 17.2991 10.2235 17.9295 10.0679 18.594C9.91193 19.26 9.82793 19.938 9.81793 20.624C9.81793 20.802 9.82993 20.98 9.84993 21.156C9.86993 21.334 9.88193 21.51 9.88193 21.688C9.88132 21.7457 9.87597 21.8032 9.86593 21.86C9.85588 21.9168 9.85053 21.9743 9.84993 22.032C10.0722 22.0571 10.2861 22.1316 10.4759 22.25C10.7159 22.386 10.9759 22.558 11.2559 22.766C11.5359 22.974 11.8039 23.214 12.0539 23.486C12.3039 23.756 12.5419 24.02 12.7719 24.282C13.0019 24.542 13.1679 24.802 13.2719 25.062C13.3759 25.322 13.4439 25.536 13.4739 25.702C13.4793 25.8229 13.4599 25.9437 13.4169 26.0568C13.3739 26.17 13.3082 26.2732 13.2239 26.36C13.0446 26.535 12.8325 26.6729 12.5999 26.766C12.7779 27.078 12.9959 27.344 13.2559 27.562C13.5159 27.782 13.7979 27.958 14.0999 28.094C14.4019 28.23 14.7299 28.328 15.0839 28.39C15.4379 28.454 15.7839 28.484 16.1159 28.484ZM22.3819 30.704C22.5999 30.704 22.8139 30.672 23.0219 30.61C23.3371 30.5196 23.6371 30.3828 23.9119 30.204C24.1839 30.026 24.4319 29.808 24.6619 29.546C25.2052 28.9191 25.87 28.4089 26.6159 28.046L27.1319 27.812C27.309 27.7348 27.4807 27.646 27.6459 27.546C27.7653 27.4704 27.876 27.3818 27.9759 27.282C28.0263 27.2333 28.0661 27.1748 28.0929 27.1102C28.1197 27.0455 28.133 26.976 28.1319 26.906C28.132 26.8255 28.1157 26.7459 28.0839 26.672C28.0466 26.5888 27.9996 26.5102 27.9439 26.438C27.8014 26.2396 27.666 26.0361 27.5379 25.828C27.4221 25.6387 27.3224 25.44 27.2399 25.234L26.9899 24.61C26.8997 24.3809 26.8262 24.1457 26.7699 23.906C26.7482 23.8319 26.7115 23.7632 26.6619 23.704C26.5614 23.5537 26.4241 23.4316 26.2631 23.3493C26.102 23.2671 25.9226 23.2274 25.7419 23.234C25.5554 23.2333 25.372 23.2816 25.2099 23.374L24.6779 23.672C24.4928 23.7747 24.3054 23.8734 24.1159 23.968C23.9317 24.0607 23.7282 24.1087 23.5219 24.108C23.3375 24.1161 23.1558 24.0618 23.0059 23.954C22.8621 23.8398 22.7448 23.6958 22.6619 23.532C22.573 23.3652 22.4949 23.1928 22.4279 23.016L22.2399 22.5C22.1585 22.6338 22.0647 22.7596 21.9599 22.876C21.8529 22.9952 21.7682 23.1327 21.7099 23.282C21.5739 23.594 21.4899 23.942 21.4599 24.328C21.4079 24.932 21.3399 25.52 21.2559 26.094C21.1704 26.6793 21.0297 27.2552 20.8359 27.814C20.7806 27.9927 20.7385 28.1752 20.7099 28.36C20.6789 28.5515 20.6575 28.7444 20.6459 28.938C20.6459 29.448 20.8039 29.87 21.1159 30.204C21.4279 30.536 21.8499 30.704 22.3819 30.704Z" fill="#636D85"/>
</svg>
