<svg width="311" height="84" viewBox="0 0 311 84" fill="none" xmlns="http://www.w3.org/2000/svg">
<g clip-path="url(#clip0_149_1660)">
<path d="M13.2725 42.0681L21.7017 33.7201L30.1344 42.0749L35.0363 37.2148L21.7017 24L8.36719 37.2114L13.2725 42.0681Z" fill="white"/>
<path d="M-0.00195312 45.5007L4.90159 40.6425L9.80512 45.5007L4.90158 50.359L-0.00195312 45.5007Z" fill="white"/>
<path d="M13.2725 48.9319L21.7018 57.2833L30.1344 48.9285L35.0397 53.7818L35.0363 53.7852L21.7018 67L8.36721 53.792L8.36035 53.7852L13.2725 48.9319Z" fill="white"/>
<path d="M33.5908 45.502L38.4944 40.6437L43.3979 45.502L38.4944 50.3602L33.5908 45.502Z" fill="white"/>
<path d="M26.6753 45.4983L21.7014 40.5669L18.0233 44.2111L17.5982 44.6288L16.7276 45.4915L16.7207 45.4983L16.7276 45.5084L21.7014 50.433L26.6753 45.5017L26.6788 45.4983H26.6753Z" fill="white"/>
<path d="M51.0488 34.4198H61.7165C64.3628 34.4198 66.3647 35.0991 67.7222 36.4576C68.2336 36.9594 68.6368 37.5589 68.9072 38.2198C69.1777 38.8807 69.3098 39.5891 69.2956 40.3021V40.3666C69.3048 40.9507 69.2227 41.5327 69.0522 42.0919C68.9003 42.5733 68.6798 43.0308 68.3974 43.4504C68.1342 43.8462 67.8157 44.2029 67.4514 44.5101C67.0954 44.8136 66.7055 45.0757 66.2893 45.2912C67.4896 45.7054 68.5689 46.4051 69.4327 47.329C70.196 48.1894 70.5776 49.378 70.5776 50.895V50.9596C70.5993 51.907 70.3912 52.8457 69.9709 53.697C69.5635 54.4813 68.9664 55.1534 68.2329 55.6532C67.4036 56.204 66.4802 56.6011 65.5077 56.8249C64.3523 57.0964 63.1678 57.2275 61.9804 57.2155H51.0488V34.4198ZM60.647 43.6372C61.5699 43.6814 62.4884 43.4847 63.3104 43.0667C63.631 42.8811 63.8928 42.6104 64.066 42.285C64.2393 41.9597 64.3172 41.5928 64.2908 41.2259V41.1614C64.3078 40.8233 64.2385 40.4864 64.0893 40.1819C63.9401 39.8774 63.7159 39.615 63.4373 39.4191C62.8682 39.0183 62.0467 38.818 60.9726 38.818H55.9816V43.6372H60.647ZM61.9941 52.8241C62.9136 52.8752 63.8289 52.6667 64.6336 52.223C64.9471 52.0234 65.2009 51.7442 65.3685 51.4145C65.5361 51.0848 65.6114 50.7166 65.5866 50.3482V50.2837C65.5989 49.9336 65.5244 49.5858 65.3697 49.2708C65.2149 48.9558 64.9845 48.6832 64.6987 48.4769C64.1091 48.0241 63.1562 47.7977 61.8399 47.7977H55.9816V52.8241H61.9941Z" fill="white"/>
<path d="M76.9326 34.4198H81.9956V57.2223H76.9326V34.4198Z" fill="white"/>
<path d="M89.6572 34.4198H94.326L105.117 48.4531V34.4198H110.115V57.2223H105.806L94.662 42.727V57.2223H89.6572V34.4198Z" fill="white"/>
<path d="M125.445 34.2567H130.107L139.969 57.2222H134.683L132.578 52.1074H122.846L120.742 57.2222H115.579L125.445 34.2567ZM130.772 47.6787L127.707 40.2817L124.656 47.6787H130.772Z" fill="white"/>
<path d="M145.443 34.4198H150.112L160.896 48.4531V34.4198H165.894V57.2223H161.585L150.441 42.727V57.2223H145.443V34.4198Z" fill="white"/>
<path d="M184.117 57.623C182.503 57.6366 180.903 57.327 179.414 56.7128C178.011 56.139 176.739 55.2929 175.671 54.2243C174.604 53.1557 173.763 51.8863 173.199 50.4908C172.603 49.0311 172.302 47.4701 172.311 45.8957V45.8312C172.284 42.7277 173.49 39.7383 175.667 37.5069C176.738 36.417 178.021 35.5529 179.438 34.9665C180.979 34.334 182.634 34.0186 184.302 34.0394C185.288 34.0321 186.273 34.1196 187.243 34.3009C188.072 34.4563 188.883 34.6964 189.663 35.0175C190.37 35.3125 191.043 35.6838 191.668 36.1247C192.279 36.5546 192.852 37.034 193.382 37.5579L190.163 41.2394C189.341 40.4876 188.418 39.8511 187.421 39.3477C186.442 38.8837 185.367 38.6511 184.281 38.6685C183.378 38.6589 182.483 38.8399 181.655 39.1994C180.828 39.559 180.087 40.0888 179.482 40.7538C178.882 41.417 178.413 42.1852 178.097 43.0191C177.767 43.9002 177.601 44.8335 177.607 45.7734V45.838C177.604 46.7765 177.77 47.7082 178.097 48.5889C178.409 49.4257 178.874 50.1983 179.468 50.8678C180.068 51.541 180.807 52.0786 181.635 52.4443C182.463 52.8099 183.361 52.995 184.268 52.9871C185.422 53.0231 186.567 52.777 187.603 52.2705C188.589 51.7381 189.5 51.0805 190.314 50.3142L193.537 53.5407C192.968 54.1525 192.352 54.7202 191.696 55.2388C191.051 55.744 190.351 56.1758 189.608 56.526C188.817 56.8949 187.984 57.1675 187.126 57.3377C186.136 57.5345 185.127 57.6301 184.117 57.623Z" fill="white"/>
<path d="M199.512 34.4198H216.833V38.8825H204.492V43.5082H215.359V47.9709H204.51V52.7596H217.004V57.2223H199.522L199.512 34.4198Z" fill="white"/>
</g>
<defs>
<clipPath id="clip0_149_1660">
<rect width="311" height="84" fill="white"/>
</clipPath>
</defs>
</svg>
