<svg width="311" height="84" viewBox="0 0 311 84" fill="none" xmlns="http://www.w3.org/2000/svg">
<path d="M16.0948 16.9957V24.2466H20.6469V21.5479H47.9923V48.9258H20.6794V34.2289H16.1273V53.5104H52.6095V16.9957H16.0948ZM6.63281 27.2706V63.7528H43.115V56.2092H38.5629V59.2006H11.185V31.8227H38.5304V46.227H43.0825V27.2381H6.63281V27.2706Z" fill="#0082D7"/>
<path d="M76.0865 40.8619H70.3963V31.9202H76.3141C79.4356 31.9202 81.419 33.7411 81.419 36.5049C81.3865 39.2036 79.4356 40.8619 76.0865 40.8619ZM70.3963 21.0926H75.3712C78.4926 21.0926 80.2485 22.6208 80.2485 25.092C80.2485 27.9533 78.4276 29.7417 75.6638 29.7417H70.3638L70.3963 21.0926C70.3638 21.0926 70.3963 21.0926 70.3963 21.0926ZM79.0779 30.5871C81.6791 29.8067 83.0773 27.7582 83.0773 24.8644C83.0773 21.0275 80.216 18.7515 75.3712 18.7515H67.665V43.1055H76.0865C81.1914 43.1055 84.2153 40.6343 84.2153 36.4398C84.2153 33.5785 82.2969 31.3674 79.0779 30.5871Z" fill="white"/>
<path d="M151.716 33.3834C154.968 32.6356 157.016 30.1644 157.016 26.2301C157.016 21.5479 153.862 18.7841 148.465 18.7841H141.441V43.138H144.173V33.7086H149.44L154.74 43.138H157.992L152.432 34.0988L151.716 33.3834Z" fill="white"/>
<path d="M176.949 32.0177H166.707V40.8619H178.12V43.1705H163.975V18.784H178.022V21.0926H166.707V29.8067H176.949V32.0177ZM90.3281 43.138H93.0594V18.7515H90.3281V43.138ZM105.805 21.0926H98.9447V18.784H115.365V21.0926H108.537V43.138H105.805V21.0926ZM119.299 21.0926H126.193V43.138H128.924V21.0926H135.752V18.784H119.332L119.299 21.0926C119.332 21.0926 119.299 21.0926 119.299 21.0926ZM194.247 30.7171L201.498 18.8165H198.182L192.751 28.4736L192.524 29.4165L192.296 28.4736L186.866 18.8165H183.582L190.833 30.7171L183.387 43.1705H186.736L192.329 33.1558L192.556 32.2128L192.784 33.1558L198.409 43.1705H201.758L194.247 30.7171Z" fill="white"/>
<path d="M144.173 31.5625H148.823C152.074 31.5625 154.253 29.8067 154.253 26.2626C154.253 23.011 152.302 21.1251 148.985 21.1251H144.141L144.173 31.5625Z" fill="#192335"/>
<path d="M76.0537 54.5836H79.988V59.9811C78.7524 60.3713 77.4843 60.5664 76.2162 60.5664C74.5905 60.5664 73.3549 60.0786 72.4445 59.1357C71.5665 58.1602 71.1113 56.8271 71.1113 55.0713C71.1113 53.348 71.5991 51.9823 72.607 51.0069C73.615 50.0314 74.9807 49.5437 76.704 49.5437C77.8095 49.5437 78.8825 49.7713 79.8905 50.194L79.2727 51.6572C78.4598 51.267 77.5494 51.0719 76.6715 51.0719C75.5334 51.0719 74.623 51.4296 73.9402 52.1449C73.2899 52.8603 72.9322 53.8357 72.9322 55.1038C72.9322 56.4044 73.2248 57.4124 73.8426 58.0952C74.4279 58.778 75.3058 59.1032 76.4438 59.1032C76.9966 59.1032 77.6144 59.0381 78.2647 58.8756V56.1118H76.0537V54.5836ZM96.1156 60.4038V49.6738H97.8715V58.9081H102.424V60.4038H96.1156ZM127.33 55.0388C127.33 56.7946 126.908 58.1277 126.03 59.1032C125.152 60.0786 123.916 60.5664 122.323 60.5664C120.697 60.5664 119.462 60.0786 118.584 59.1357C117.706 58.1602 117.283 56.7946 117.283 55.0388C117.283 53.2829 117.706 51.9173 118.584 50.9744C119.462 50.0314 120.697 49.5437 122.323 49.5437C123.916 49.5437 125.152 50.0314 126.03 50.9744C126.908 51.9173 127.33 53.2829 127.33 55.0388ZM119.136 55.0388C119.136 56.3719 119.397 57.3473 119.949 58.0627C120.47 58.7455 121.283 59.0707 122.323 59.0707C123.363 59.0707 124.144 58.7455 124.664 58.0627C125.184 57.3799 125.477 56.3719 125.477 55.0388C125.477 53.7382 125.217 52.7302 124.697 52.0474C124.176 51.3645 123.396 51.0394 122.355 51.0394C121.315 51.0394 120.502 51.3645 119.982 52.0474C119.397 52.7302 119.136 53.7056 119.136 55.0388ZM143.165 49.6738H146.352C147.815 49.6738 148.888 49.9014 149.538 50.3241C150.189 50.7468 150.514 51.4296 150.514 52.3725C150.514 52.9903 150.351 53.5106 150.026 53.9333C149.701 54.356 149.246 54.6161 148.628 54.7136V54.7786C149.376 54.9087 149.929 55.2013 150.286 55.624C150.644 56.0467 150.806 56.5995 150.806 57.3148C150.806 58.2903 150.481 59.0381 149.798 59.5909C149.116 60.1437 148.205 60.4038 147.002 60.4038H143.133C143.165 60.4038 143.165 49.6738 143.165 49.6738ZM144.921 54.1283H146.612C147.36 54.1283 147.88 54.0308 148.205 53.7707C148.53 53.5431 148.725 53.1529 148.725 52.5676C148.725 52.0474 148.53 51.6897 148.173 51.4621C147.815 51.2345 147.23 51.1369 146.449 51.1369H144.921V54.1283ZM144.921 55.5265V58.9406H146.775C147.522 58.9406 148.075 58.8105 148.433 58.5179C148.823 58.2253 148.986 57.8026 148.986 57.1848C148.986 56.632 148.79 56.2093 148.4 55.9492C148.01 55.6891 147.425 55.559 146.677 55.559C146.677 55.5265 144.921 55.5265 144.921 55.5265ZM173.275 60.4038L172.201 57.4124H168.105L167.064 60.4038H165.178L169.178 49.6412H171.096L175.095 60.4038C175.128 60.4038 173.275 60.4038 173.275 60.4038ZM171.746 55.9167L170.738 52.9903C170.511 52.3725 170.316 51.7547 170.153 51.1369C169.99 51.8198 169.795 52.4701 169.568 53.1204L168.592 55.9167H171.746ZM190.085 60.4038V49.6738H191.841V58.9081H196.393V60.4038C196.36 60.4038 190.085 60.4038 190.085 60.4038Z" fill="white"/>
</svg>
