<svg width="73" height="69" viewBox="0 0 73 69" fill="none" xmlns="http://www.w3.org/2000/svg">
<path d="M62.3125 38C66.9033 38 70.625 41.7217 70.625 46.3125C70.625 50.9033 66.9033 54.625 62.3125 54.625C58.5477 54.625 55.3674 52.1221 54.3448 48.6895L46.6731 48.6875L47.3669 49.3831C48.2944 50.3106 48.2944 51.8144 47.3669 52.7419C46.5107 53.598 45.1636 53.6639 44.2319 52.9394L44.0081 52.7419L39.2581 47.9919L39.0843 47.7979C39.08 47.7926 39.0757 47.7873 39.0715 47.7819L39.2581 47.9919C39.1691 47.9029 39.0886 47.8086 39.0167 47.71C38.9788 47.6575 38.943 47.604 38.9094 47.5491C38.8917 47.5205 38.8748 47.4914 38.8586 47.4621C38.8328 47.4152 38.808 47.3667 38.7849 47.3174C38.766 47.277 38.7482 47.2359 38.7317 47.1944C38.7129 47.1475 38.6958 47.1005 38.6802 47.0529C38.6687 47.0175 38.6577 46.981 38.6476 46.9442C38.6317 46.8869 38.6181 46.8292 38.6066 46.7706C38.5999 46.7352 38.5939 46.7002 38.5887 46.6651C38.5817 46.6199 38.5762 46.573 38.5719 46.5258C38.567 46.4692 38.564 46.4139 38.5629 46.3585C38.5626 46.3432 38.5625 46.3278 38.5625 46.3125L38.5629 46.2689C38.5639 46.2127 38.5669 46.1565 38.5719 46.1005L38.5625 46.3125C38.5625 46.1923 38.5714 46.0741 38.5887 45.9587C38.5949 45.9184 38.6022 45.877 38.6106 45.8358C38.621 45.7835 38.6334 45.732 38.6473 45.6811C38.6577 45.644 38.6687 45.6075 38.6806 45.5712C38.6958 45.5245 38.7129 45.4775 38.7314 45.4312C38.7482 45.3891 38.766 45.348 38.785 45.3074C38.808 45.2583 38.8328 45.2098 38.8591 45.1623C38.8748 45.1336 38.8917 45.1045 38.9092 45.0758C38.9466 45.0151 38.9864 44.9561 39.0287 44.899C39.0392 44.8846 39.0498 44.8707 39.0605 44.8569C39.1296 44.7695 39.1919 44.6993 39.2581 44.6331L44.0081 39.8831C44.9356 38.9556 46.4394 38.9556 47.3669 39.8831C48.223 40.7393 48.2889 42.0864 47.5645 43.0181L47.3669 43.2419L46.6707 43.9375L54.3441 43.9379C55.3244 40.6436 58.2918 38.2051 61.8564 38.0123L62.3125 38ZM26.6875 23.75L26.7335 23.7504L26.8277 23.7541C26.8556 23.7558 26.8835 23.7579 26.9114 23.7605L26.9645 23.766L27.0282 23.7744C27.0753 23.7812 27.1223 23.7894 27.169 23.7991C27.1902 23.8032 27.2112 23.8078 27.2321 23.8127L27.3074 23.8319L27.3806 23.8529C27.3967 23.8578 27.4128 23.8629 27.4288 23.8681C27.4755 23.8833 27.5225 23.9004 27.5688 23.9189C27.6109 23.9357 27.652 23.9535 27.6927 23.9725C27.7417 23.9955 27.7902 24.0203 27.8377 24.0466C27.8664 24.0623 27.8955 24.0792 27.9242 24.0967C27.9364 24.1044 27.9486 24.112 27.9607 24.1198L28.085 24.2042C28.1095 24.2221 28.1338 24.2406 28.1578 24.2596C28.1623 24.2632 28.1676 24.2675 28.1729 24.2718L28.3669 24.4456L33.1169 29.1956C34.0444 30.1231 34.0444 31.6269 33.1169 32.5544C32.2607 33.4105 30.9136 33.4764 29.9819 32.752L29.7581 32.5544L29.0625 31.8606L29.0645 38.3448C32.3576 39.3258 34.795 42.2927 34.9877 45.8564L35 46.3125C35 50.9033 31.2783 54.625 26.6875 54.625C22.0966 54.625 18.375 50.9033 18.375 46.3125C18.375 42.5468 20.8791 39.3659 24.3129 38.3441L24.3125 31.8582L23.6169 32.5544C22.6894 33.4819 21.1856 33.4819 20.2581 32.5544C19.402 31.6982 19.3361 30.3511 20.0605 29.4194L20.2581 29.1956L25.0081 24.4456L25.2021 24.2718C25.2074 24.2675 25.2127 24.2632 25.2181 24.259L25.0081 24.4456C25.0971 24.3566 25.1914 24.2761 25.29 24.2042C25.3425 24.1663 25.396 24.1305 25.4509 24.0969C25.4795 24.0792 25.5086 24.0623 25.5379 24.0461C25.5848 24.0203 25.6333 23.9955 25.6826 23.9724C25.723 23.9535 25.7641 23.9357 25.8056 23.9192C25.8525 23.9004 25.8995 23.8833 25.9471 23.8677C25.9622 23.8629 25.9783 23.8578 25.9944 23.8529L26.0681 23.8316C26.0929 23.8249 26.1178 23.8186 26.1429 23.8127L26.206 23.7991C26.2527 23.7894 26.2997 23.7812 26.3468 23.7744C26.3672 23.7713 26.3888 23.7685 26.4105 23.766L26.4636 23.7605C26.4915 23.7579 26.5194 23.7558 26.5473 23.7541L26.642 23.7504C26.6571 23.7501 26.6723 23.75 26.6875 23.75ZM62.3125 2.375C66.9033 2.375 70.625 6.09664 70.625 10.6875C70.625 14.4523 68.1221 17.6326 64.6895 18.6552L64.6875 25.137L65.3831 24.4456C66.3106 23.5181 67.8144 23.5181 68.7419 24.4456C69.598 25.3018 69.6639 26.6489 68.9394 27.5806L68.7419 27.8044L63.9919 32.5544C63.9257 32.6206 63.8555 32.6829 63.7819 32.741L63.9919 32.5544C63.9078 32.6384 63.819 32.7149 63.7264 32.7837C63.6689 32.8261 63.6099 32.8659 63.5491 32.9031C63.5205 32.9208 63.4914 32.9377 63.4621 32.9539C63.4152 32.9797 63.3667 33.0045 63.3174 33.0276C63.277 33.0465 63.2359 33.0643 63.1944 33.0808C63.1475 33.0996 63.1005 33.1167 63.0529 33.1323L63.0538 33.1319L63.0056 33.1471C62.9813 33.1545 62.9569 33.1615 62.9324 33.1681C62.9071 33.1751 62.8822 33.1814 62.8571 33.1873L62.794 33.2009C62.7473 33.2106 62.7003 33.2188 62.6532 33.2256C62.6087 33.2322 62.5627 33.2374 62.5163 33.2414C62.4738 33.2449 62.4327 33.2473 62.3915 33.2487C62.3657 33.2496 62.3392 33.25 62.3125 33.25L62.2359 33.2488C62.1931 33.2474 62.1504 33.2449 62.1077 33.2412L62.0355 33.234L61.9718 33.2256C61.9247 33.2188 61.8777 33.2106 61.831 33.2009C61.8098 33.1968 61.7888 33.1922 61.7679 33.1873L61.6926 33.1681C61.6681 33.1615 61.6437 33.1545 61.6194 33.1471L61.5721 33.1323C61.5245 33.1167 61.4775 33.0996 61.4312 33.0811C61.3891 33.0643 61.348 33.0465 61.3074 33.0275C61.2583 33.0045 61.2098 32.9797 61.1623 32.9534C61.1336 32.9377 61.1045 32.9208 61.0758 32.9033C61.0151 32.8659 60.9561 32.8261 60.899 32.7838C60.8846 32.7733 60.8707 32.7627 60.8569 32.752C60.7695 32.6829 60.6993 32.6206 60.6331 32.5544L55.8831 27.8044C54.9556 26.8769 54.9556 25.3731 55.8831 24.4456C56.7393 23.5895 58.0864 23.5236 59.0181 24.248L59.2419 24.4456L59.9375 25.1394L59.9379 18.6559C56.6436 17.6756 54.2051 14.7082 54.0123 11.1436L54 10.6875C54 6.09664 57.7217 2.375 62.3125 2.375ZM26.6875 2.375C30.4532 2.375 33.6341 4.87905 34.6559 8.31289L41.1394 8.3125L40.4456 7.61688C39.5181 6.68938 39.5181 5.18562 40.4456 4.25812C41.3018 3.40197 42.6489 3.33611 43.5806 4.06055L43.8044 4.25812L48.5544 9.00812C48.6206 9.07435 48.6829 9.14447 48.741 9.21811L48.5544 9.00812C48.6384 9.09218 48.7149 9.18098 48.7837 9.27365C48.8261 9.33106 48.8659 9.3901 48.9031 9.45093C48.9208 9.47954 48.9377 9.50856 48.9539 9.53785C48.9797 9.5848 49.0045 9.63326 49.0276 9.68264C49.0465 9.72302 49.0643 9.76411 49.0808 9.80558C49.0996 9.8525 49.1167 9.89948 49.1323 9.94713C49.1438 9.98248 49.1548 10.019 49.1649 10.0558C49.1791 10.107 49.1915 10.1585 49.2021 10.2106C49.2103 10.252 49.2176 10.2934 49.2238 10.3349C49.2311 10.3823 49.2369 10.4313 49.2411 10.4807C49.2449 10.5254 49.2474 10.5681 49.2488 10.6109C49.2496 10.6347 49.25 10.6611 49.25 10.6875L49.2487 10.7665C49.2473 10.8077 49.2449 10.8488 49.2414 10.8899L49.25 10.6875C49.25 10.8077 49.2411 10.9259 49.2238 11.0413C49.2186 11.0752 49.2126 11.1102 49.2058 11.145C49.1944 11.2041 49.1808 11.2619 49.1652 11.3189C49.1548 11.356 49.1438 11.3925 49.1319 11.4288C49.1167 11.4755 49.0996 11.5225 49.0811 11.5688C49.0643 11.6109 49.0465 11.652 49.0275 11.6927C49.0045 11.7417 48.9797 11.7902 48.9534 11.8377C48.9377 11.8664 48.9208 11.8955 48.9033 11.9242C48.8956 11.9364 48.888 11.9486 48.8802 11.9607L48.7958 12.085C48.7815 12.1045 48.7669 12.1239 48.752 12.1431C48.7368 12.1623 48.7325 12.1676 48.7282 12.1729L48.5544 12.3669L43.8044 17.1169C42.8769 18.0444 41.3731 18.0444 40.4456 17.1169C39.5895 16.2607 39.5236 14.9136 40.248 13.9819L40.4456 13.7581L41.137 13.0625L34.6552 13.0645C33.6742 16.3576 30.7073 18.795 27.1436 18.9877L26.6875 19C22.0966 19 18.375 15.2783 18.375 10.6875C18.375 6.09664 22.0966 2.375 26.6875 2.375Z" fill="#C4C4C4"/>
<path d="M62.3125 38C66.9033 38 70.625 41.7217 70.625 46.3125C70.625 50.9033 66.9033 54.625 62.3125 54.625C58.5477 54.625 55.3674 52.1221 54.3448 48.6895L46.6731 48.6875L47.3669 49.3831C48.2944 50.3106 48.2944 51.8144 47.3669 52.7419C46.5107 53.598 45.1636 53.6639 44.2319 52.9394L44.0081 52.7419L39.2581 47.9919L39.0843 47.7979C39.08 47.7926 39.0757 47.7873 39.0715 47.7819L39.2581 47.9919C39.1691 47.9029 39.0886 47.8086 39.0167 47.71C38.9788 47.6575 38.943 47.604 38.9094 47.5491C38.8917 47.5205 38.8748 47.4914 38.8586 47.4621C38.8328 47.4152 38.808 47.3667 38.7849 47.3174C38.766 47.277 38.7482 47.2359 38.7317 47.1944C38.7129 47.1475 38.6958 47.1005 38.6802 47.0529C38.6687 47.0175 38.6577 46.981 38.6476 46.9442C38.6317 46.8869 38.6181 46.8292 38.6066 46.7706C38.5999 46.7352 38.5939 46.7002 38.5887 46.6651C38.5817 46.6199 38.5762 46.573 38.5719 46.5258C38.567 46.4692 38.564 46.4139 38.5629 46.3585C38.5626 46.3432 38.5625 46.3278 38.5625 46.3125L38.5629 46.2689C38.5639 46.2127 38.5669 46.1565 38.5719 46.1005L38.5625 46.3125C38.5625 46.1923 38.5714 46.0741 38.5887 45.9587C38.5949 45.9184 38.6022 45.877 38.6106 45.8358C38.621 45.7835 38.6334 45.732 38.6473 45.6811C38.6577 45.644 38.6687 45.6075 38.6806 45.5712C38.6958 45.5245 38.7129 45.4775 38.7314 45.4312C38.7482 45.3891 38.766 45.348 38.785 45.3074C38.808 45.2583 38.8328 45.2098 38.8591 45.1623C38.8748 45.1336 38.8917 45.1045 38.9092 45.0758C38.9466 45.0151 38.9864 44.9561 39.0287 44.899C39.0392 44.8846 39.0498 44.8707 39.0605 44.8569C39.1296 44.7695 39.1919 44.6993 39.2581 44.6331L44.0081 39.8831C44.9356 38.9556 46.4394 38.9556 47.3669 39.8831C48.223 40.7393 48.2889 42.0864 47.5645 43.0181L47.3669 43.2419L46.6707 43.9375L54.3441 43.9379C55.3244 40.6436 58.2918 38.2051 61.8564 38.0123L62.3125 38ZM26.6875 23.75L26.7335 23.7504L26.8277 23.7541C26.8556 23.7558 26.8835 23.7579 26.9114 23.7605L26.9645 23.766L27.0282 23.7744C27.0753 23.7812 27.1223 23.7894 27.169 23.7991C27.1902 23.8032 27.2112 23.8078 27.2321 23.8127L27.3074 23.8319L27.3806 23.8529C27.3967 23.8578 27.4128 23.8629 27.4288 23.8681C27.4755 23.8833 27.5225 23.9004 27.5688 23.9189C27.6109 23.9357 27.652 23.9535 27.6927 23.9725C27.7417 23.9955 27.7902 24.0203 27.8377 24.0466C27.8664 24.0623 27.8955 24.0792 27.9242 24.0967C27.9364 24.1044 27.9486 24.112 27.9607 24.1198L28.085 24.2042C28.1095 24.2221 28.1338 24.2406 28.1578 24.2596C28.1623 24.2632 28.1676 24.2675 28.1729 24.2718L28.3669 24.4456L33.1169 29.1956C34.0444 30.1231 34.0444 31.6269 33.1169 32.5544C32.2607 33.4105 30.9136 33.4764 29.9819 32.752L29.7581 32.5544L29.0625 31.8606L29.0645 38.3448C32.3576 39.3258 34.795 42.2927 34.9877 45.8564L35 46.3125C35 50.9033 31.2783 54.625 26.6875 54.625C22.0966 54.625 18.375 50.9033 18.375 46.3125C18.375 42.5468 20.8791 39.3659 24.3129 38.3441L24.3125 31.8582L23.6169 32.5544C22.6894 33.4819 21.1856 33.4819 20.2581 32.5544C19.402 31.6982 19.3361 30.3511 20.0605 29.4194L20.2581 29.1956L25.0081 24.4456L25.2021 24.2718C25.2074 24.2675 25.2127 24.2632 25.2181 24.259L25.0081 24.4456C25.0971 24.3566 25.1914 24.2761 25.29 24.2042C25.3425 24.1663 25.396 24.1305 25.4509 24.0969C25.4795 24.0792 25.5086 24.0623 25.5379 24.0461C25.5848 24.0203 25.6333 23.9955 25.6826 23.9724C25.723 23.9535 25.7641 23.9357 25.8056 23.9192C25.8525 23.9004 25.8995 23.8833 25.9471 23.8677C25.9622 23.8629 25.9783 23.8578 25.9944 23.8529L26.0681 23.8316C26.0929 23.8249 26.1178 23.8186 26.1429 23.8127L26.206 23.7991C26.2527 23.7894 26.2997 23.7812 26.3468 23.7744C26.3672 23.7713 26.3888 23.7685 26.4105 23.766L26.4636 23.7605C26.4915 23.7579 26.5194 23.7558 26.5473 23.7541L26.642 23.7504C26.6571 23.7501 26.6723 23.75 26.6875 23.75ZM62.3125 2.375C66.9033 2.375 70.625 6.09664 70.625 10.6875C70.625 14.4523 68.1221 17.6326 64.6895 18.6552L64.6875 25.137L65.3831 24.4456C66.3106 23.5181 67.8144 23.5181 68.7419 24.4456C69.598 25.3018 69.6639 26.6489 68.9394 27.5806L68.7419 27.8044L63.9919 32.5544C63.9257 32.6206 63.8555 32.6829 63.7819 32.741L63.9919 32.5544C63.9078 32.6384 63.819 32.7149 63.7264 32.7837C63.6689 32.8261 63.6099 32.8659 63.5491 32.9031C63.5205 32.9208 63.4914 32.9377 63.4621 32.9539C63.4152 32.9797 63.3667 33.0045 63.3174 33.0276C63.277 33.0465 63.2359 33.0643 63.1944 33.0808C63.1475 33.0996 63.1005 33.1167 63.0529 33.1323L63.0538 33.1319L63.0056 33.1471C62.9813 33.1545 62.9569 33.1615 62.9324 33.1681C62.9071 33.1751 62.8822 33.1814 62.8571 33.1873L62.794 33.2009C62.7473 33.2106 62.7003 33.2188 62.6532 33.2256C62.6087 33.2322 62.5627 33.2374 62.5163 33.2414C62.4738 33.2449 62.4327 33.2473 62.3915 33.2487C62.3657 33.2496 62.3392 33.25 62.3125 33.25L62.2359 33.2488C62.1931 33.2474 62.1504 33.2449 62.1077 33.2412L62.0355 33.234L61.9718 33.2256C61.9247 33.2188 61.8777 33.2106 61.831 33.2009C61.8098 33.1968 61.7888 33.1922 61.7679 33.1873L61.6926 33.1681C61.6681 33.1615 61.6437 33.1545 61.6194 33.1471L61.5721 33.1323C61.5245 33.1167 61.4775 33.0996 61.4312 33.0811C61.3891 33.0643 61.348 33.0465 61.3074 33.0275C61.2583 33.0045 61.2098 32.9797 61.1623 32.9534C61.1336 32.9377 61.1045 32.9208 61.0758 32.9033C61.0151 32.8659 60.9561 32.8261 60.899 32.7838C60.8846 32.7733 60.8707 32.7627 60.8569 32.752C60.7695 32.6829 60.6993 32.6206 60.6331 32.5544L55.8831 27.8044C54.9556 26.8769 54.9556 25.3731 55.8831 24.4456C56.7393 23.5895 58.0864 23.5236 59.0181 24.248L59.2419 24.4456L59.9375 25.1394L59.9379 18.6559C56.6436 17.6756 54.2051 14.7082 54.0123 11.1436L54 10.6875C54 6.09664 57.7217 2.375 62.3125 2.375ZM26.6875 2.375C30.4532 2.375 33.6341 4.87905 34.6559 8.31289L41.1394 8.3125L40.4456 7.61688C39.5181 6.68938 39.5181 5.18562 40.4456 4.25812C41.3018 3.40197 42.6489 3.33611 43.5806 4.06055L43.8044 4.25812L48.5544 9.00812C48.6206 9.07435 48.6829 9.14447 48.741 9.21811L48.5544 9.00812C48.6384 9.09218 48.7149 9.18098 48.7837 9.27365C48.8261 9.33106 48.8659 9.3901 48.9031 9.45093C48.9208 9.47954 48.9377 9.50856 48.9539 9.53785C48.9797 9.5848 49.0045 9.63326 49.0276 9.68264C49.0465 9.72302 49.0643 9.76411 49.0808 9.80558C49.0996 9.8525 49.1167 9.89948 49.1323 9.94713C49.1438 9.98248 49.1548 10.019 49.1649 10.0558C49.1791 10.107 49.1915 10.1585 49.2021 10.2106C49.2103 10.252 49.2176 10.2934 49.2238 10.3349C49.2311 10.3823 49.2369 10.4313 49.2411 10.4807C49.2449 10.5254 49.2474 10.5681 49.2488 10.6109C49.2496 10.6347 49.25 10.6611 49.25 10.6875L49.2487 10.7665C49.2473 10.8077 49.2449 10.8488 49.2414 10.8899L49.25 10.6875C49.25 10.8077 49.2411 10.9259 49.2238 11.0413C49.2186 11.0752 49.2126 11.1102 49.2058 11.145C49.1944 11.2041 49.1808 11.2619 49.1652 11.3189C49.1548 11.356 49.1438 11.3925 49.1319 11.4288C49.1167 11.4755 49.0996 11.5225 49.0811 11.5688C49.0643 11.6109 49.0465 11.652 49.0275 11.6927C49.0045 11.7417 48.9797 11.7902 48.9534 11.8377C48.9377 11.8664 48.9208 11.8955 48.9033 11.9242C48.8956 11.9364 48.888 11.9486 48.8802 11.9607L48.7958 12.085C48.7815 12.1045 48.7669 12.1239 48.752 12.1431C48.7368 12.1623 48.7325 12.1676 48.7282 12.1729L48.5544 12.3669L43.8044 17.1169C42.8769 18.0444 41.3731 18.0444 40.4456 17.1169C39.5895 16.2607 39.5236 14.9136 40.248 13.9819L40.4456 13.7581L41.137 13.0625L34.6552 13.0645C33.6742 16.3576 30.7073 18.795 27.1436 18.9877L26.6875 19C22.0966 19 18.375 15.2783 18.375 10.6875C18.375 6.09664 22.0966 2.375 26.6875 2.375Z" fill="url(#paint0_linear_97_2035)"/>
<g filter="url(#filter0_b_97_2035)">
<circle cx="19.5" cy="49.5" r="19.5" fill="white" fill-opacity="0.1"/>
<circle cx="19.5" cy="49.5" r="19.35" stroke="url(#paint1_linear_97_2035)" stroke-width="0.3"/>
</g>
<path d="M28.2895 47.6492C28.2371 47.4949 28.1407 47.3593 28.0122 47.2592C27.8836 47.1591 27.7286 47.0988 27.5662 47.0858L22.8153 46.7083L20.7595 42.1575C20.694 42.0109 20.5875 41.8864 20.4529 41.7991C20.3182 41.7117 20.1611 41.6651 20.0006 41.665C19.8401 41.665 19.683 41.7113 19.5482 41.7986C19.4134 41.8858 19.3068 42.0102 19.2412 42.1567L17.1853 46.7083L12.4345 47.0858C12.2749 47.0985 12.1223 47.1569 11.995 47.254C11.8677 47.3511 11.771 47.4828 11.7166 47.6334C11.6622 47.784 11.6523 47.947 11.6881 48.1031C11.724 48.2592 11.804 48.4016 11.9187 48.5133L15.4295 51.9358L14.1878 57.3125C14.1501 57.4753 14.1622 57.6456 14.2225 57.8014C14.2828 57.9572 14.3886 58.0913 14.526 58.1862C14.6635 58.2812 14.8263 58.3326 14.9933 58.3339C15.1604 58.3352 15.324 58.2862 15.4628 58.1933L20.0003 55.1683L24.5378 58.1933C24.6798 58.2876 24.8472 58.3361 25.0175 58.3324C25.1879 58.3286 25.353 58.2728 25.4907 58.1724C25.6284 58.0721 25.732 57.9319 25.7877 57.7709C25.8433 57.6099 25.8483 57.4356 25.802 57.2717L24.2778 51.9383L28.0578 48.5367C28.3053 48.3133 28.3962 47.965 28.2895 47.6492Z" fill="white"/>
<defs>
<filter id="filter0_b_97_2035" x="-5" y="25" width="49" height="49" filterUnits="userSpaceOnUse" color-interpolation-filters="sRGB">
<feFlood flood-opacity="0" result="BackgroundImageFix"/>
<feGaussianBlur in="BackgroundImage" stdDeviation="2.5"/>
<feComposite in2="SourceAlpha" operator="in" result="effect1_backgroundBlur_97_2035"/>
<feBlend mode="normal" in="SourceGraphic" in2="effect1_backgroundBlur_97_2035" result="shape"/>
</filter>
<linearGradient id="paint0_linear_97_2035" x1="25.532" y1="11.331" x2="64.8368" y2="47.7809" gradientUnits="userSpaceOnUse">
<stop stop-color="#00FFA3" stop-opacity="0.6"/>
<stop offset="1" stop-color="#4B48F1"/>
</linearGradient>
<linearGradient id="paint1_linear_97_2035" x1="19.5" y1="30" x2="19.5" y2="69" gradientUnits="userSpaceOnUse">
<stop stop-color="white" stop-opacity="0.46"/>
<stop offset="1" stop-color="white" stop-opacity="0"/>
</linearGradient>
</defs>
</svg>
