<svg width="72" height="69" viewBox="0 0 72 69" fill="none" xmlns="http://www.w3.org/2000/svg">
<path fill-rule="evenodd" clip-rule="evenodd" d="M26.0438 39.9C26.2097 39.6788 26.4248 39.4992 26.6722 39.3756C26.9195 39.2519 27.1922 39.1875 27.4688 39.1875H36.375C36.8474 39.1875 37.3005 39.3752 37.6345 39.7092C37.9686 40.0433 38.1562 40.4963 38.1562 40.9688C38.1562 41.4412 37.9686 41.8942 37.6345 42.2283C37.3005 42.5623 36.8474 42.75 36.375 42.75H28.3594L20.3438 53.4375H66.6562L58.6406 42.75H50.625C50.1526 42.75 49.6995 42.5623 49.3655 42.2283C49.0314 41.8942 48.8438 41.4412 48.8438 40.9688C48.8438 40.4963 49.0314 40.0433 49.3655 39.7092C49.6995 39.3752 50.1526 39.1875 50.625 39.1875H59.5312C59.8078 39.1875 60.0805 39.2519 60.3279 39.3756C60.5752 39.4992 60.7903 39.6788 60.9562 39.9L71.6437 54.15C71.8422 54.4146 71.9631 54.7293 71.9928 55.0588C72.0225 55.3882 71.9599 55.7195 71.8119 56.0154C71.664 56.3112 71.4366 56.5601 71.1552 56.734C70.8738 56.9079 70.5495 57 70.2188 57H16.7813C16.4505 57 16.1262 56.9079 15.8448 56.734C15.5634 56.5601 15.336 56.3112 15.1881 56.0154C15.0401 55.7195 14.9775 55.3882 15.0072 55.0588C15.0369 54.7293 15.1578 54.4146 15.3563 54.15L26.0438 39.9Z" fill="#C4C4C4"/>
<path fill-rule="evenodd" clip-rule="evenodd" d="M26.0438 39.9C26.2097 39.6788 26.4248 39.4992 26.6722 39.3756C26.9195 39.2519 27.1922 39.1875 27.4688 39.1875H36.375C36.8474 39.1875 37.3005 39.3752 37.6345 39.7092C37.9686 40.0433 38.1562 40.4963 38.1562 40.9688C38.1562 41.4412 37.9686 41.8942 37.6345 42.2283C37.3005 42.5623 36.8474 42.75 36.375 42.75H28.3594L20.3438 53.4375H66.6562L58.6406 42.75H50.625C50.1526 42.75 49.6995 42.5623 49.3655 42.2283C49.0314 41.8942 48.8438 41.4412 48.8438 40.9688C48.8438 40.4963 49.0314 40.0433 49.3655 39.7092C49.6995 39.3752 50.1526 39.1875 50.625 39.1875H59.5312C59.8078 39.1875 60.0805 39.2519 60.3279 39.3756C60.5752 39.4992 60.7903 39.6788 60.9562 39.9L71.6437 54.15C71.8422 54.4146 71.9631 54.7293 71.9928 55.0588C72.0225 55.3882 71.9599 55.7195 71.8119 56.0154C71.664 56.3112 71.4366 56.5601 71.1552 56.734C70.8738 56.9079 70.5495 57 70.2188 57H16.7813C16.4505 57 16.1262 56.9079 15.8448 56.734C15.5634 56.5601 15.336 56.3112 15.1881 56.0154C15.0401 55.7195 14.9775 55.3882 15.0072 55.0588C15.0369 54.7293 15.1578 54.4146 15.3563 54.15L26.0438 39.9Z" fill="url(#paint0_linear_97_2043)"/>
<path fill-rule="evenodd" clip-rule="evenodd" d="M29.25 14.25C29.2503 11.5077 30.0418 8.8237 31.5296 6.52008C33.0175 4.21646 35.1384 2.39107 37.6379 1.26295C40.1375 0.134833 42.9094 -0.248098 45.6212 0.160109C48.333 0.568316 50.8693 1.75032 52.926 3.56429C54.9826 5.37826 56.4722 7.74714 57.2159 10.3867C57.9597 13.0262 57.926 15.8243 57.1189 18.4452C56.3118 21.066 54.7657 23.3984 52.6659 25.1623C50.5662 26.9262 48.0021 28.0468 45.2813 28.3896V48.0938C45.2813 48.5662 45.0936 49.0193 44.7595 49.3533C44.4255 49.6874 43.9724 49.875 43.5 49.875C43.0276 49.875 42.5745 49.6874 42.2405 49.3533C41.9064 49.0193 41.7188 48.5662 41.7188 48.0938V28.3931C38.2737 27.9591 35.1056 26.2821 32.8097 23.6772C30.5138 21.0723 29.2479 17.7188 29.25 14.2465V14.25Z" fill="#C4C4C4"/>
<path fill-rule="evenodd" clip-rule="evenodd" d="M29.25 14.25C29.2503 11.5077 30.0418 8.8237 31.5296 6.52008C33.0175 4.21646 35.1384 2.39107 37.6379 1.26295C40.1375 0.134833 42.9094 -0.248098 45.6212 0.160109C48.333 0.568316 50.8693 1.75032 52.926 3.56429C54.9826 5.37826 56.4722 7.74714 57.2159 10.3867C57.9597 13.0262 57.926 15.8243 57.1189 18.4452C56.3118 21.066 54.7657 23.3984 52.6659 25.1623C50.5662 26.9262 48.0021 28.0468 45.2813 28.3896V48.0938C45.2813 48.5662 45.0936 49.0193 44.7595 49.3533C44.4255 49.6874 43.9724 49.875 43.5 49.875C43.0276 49.875 42.5745 49.6874 42.2405 49.3533C41.9064 49.0193 41.7188 48.5662 41.7188 48.0938V28.3931C38.2737 27.9591 35.1056 26.2821 32.8097 23.6772C30.5138 21.0723 29.2479 17.7188 29.25 14.2465V14.25Z" fill="url(#paint1_linear_97_2043)"/>
<g filter="url(#filter0_b_97_2043)">
<circle cx="19.5" cy="49.5" r="19.5" fill="white" fill-opacity="0.1"/>
<circle cx="19.5" cy="49.5" r="19.35" stroke="url(#paint2_linear_97_2043)" stroke-width="0.3"/>
</g>
<path d="M28.2895 47.6492C28.2371 47.4949 28.1407 47.3593 28.0122 47.2592C27.8836 47.1591 27.7286 47.0988 27.5662 47.0858L22.8153 46.7083L20.7595 42.1575C20.694 42.0109 20.5875 41.8864 20.4529 41.7991C20.3182 41.7117 20.1611 41.6651 20.0006 41.665C19.8401 41.665 19.683 41.7113 19.5482 41.7986C19.4134 41.8858 19.3068 42.0102 19.2412 42.1567L17.1853 46.7083L12.4345 47.0858C12.2749 47.0985 12.1223 47.1569 11.995 47.254C11.8677 47.3511 11.771 47.4828 11.7166 47.6334C11.6622 47.784 11.6523 47.947 11.6881 48.1031C11.724 48.2592 11.804 48.4016 11.9187 48.5133L15.4295 51.9358L14.1878 57.3125C14.1501 57.4753 14.1622 57.6456 14.2225 57.8014C14.2828 57.9572 14.3886 58.0913 14.526 58.1862C14.6635 58.2812 14.8263 58.3326 14.9933 58.3339C15.1604 58.3352 15.324 58.2862 15.4628 58.1933L20.0003 55.1683L24.5378 58.1933C24.6798 58.2876 24.8472 58.3361 25.0175 58.3324C25.1879 58.3286 25.353 58.2728 25.4907 58.1724C25.6284 58.0721 25.732 57.9319 25.7877 57.7709C25.8433 57.6099 25.8483 57.4356 25.802 57.2717L24.2778 51.9383L28.0578 48.5367C28.3053 48.3133 28.3962 47.965 28.2895 47.6492Z" fill="white"/>
<defs>
<filter id="filter0_b_97_2043" x="-5" y="25" width="49" height="49" filterUnits="userSpaceOnUse" color-interpolation-filters="sRGB">
<feFlood flood-opacity="0" result="BackgroundImageFix"/>
<feGaussianBlur in="BackgroundImage" stdDeviation="2.5"/>
<feComposite in2="SourceAlpha" operator="in" result="effect1_backgroundBlur_97_2043"/>
<feBlend mode="normal" in="SourceGraphic" in2="effect1_backgroundBlur_97_2043" result="shape"/>
</filter>
<linearGradient id="paint0_linear_97_2043" x1="22.8076" y1="42.2407" x2="30.9404" y2="66.3751" gradientUnits="userSpaceOnUse">
<stop stop-color="#00FFA3" stop-opacity="0.6"/>
<stop offset="1" stop-color="#4B48F1"/>
</linearGradient>
<linearGradient id="paint1_linear_97_2043" x1="33.1538" y1="8.55005" x2="64.2872" y2="25.0487" gradientUnits="userSpaceOnUse">
<stop stop-color="#00FFA3" stop-opacity="0.6"/>
<stop offset="1" stop-color="#4B48F1"/>
</linearGradient>
<linearGradient id="paint2_linear_97_2043" x1="19.5" y1="30" x2="19.5" y2="69" gradientUnits="userSpaceOnUse">
<stop stop-color="white" stop-opacity="0.46"/>
<stop offset="1" stop-color="white" stop-opacity="0"/>
</linearGradient>
</defs>
</svg>
