<svg width="311" height="84" viewBox="0 0 311 84" fill="none" xmlns="http://www.w3.org/2000/svg">
<g clip-path="url(#clip0_149_1706)">
<path d="M31.9532 36.1059C30.1184 34.3176 27.6538 33.3163 25.0872 33.3163C22.5206 33.3163 20.056 34.3176 18.2212 36.1059C17.3219 37.001 16.6092 38.0645 16.124 39.2352C15.6389 40.4059 15.3909 41.6606 15.3944 42.9272C15.3978 44.1937 15.6526 45.4471 16.1441 46.6151C16.6357 47.7832 17.3542 48.8428 18.2583 49.7331C20.0878 51.543 22.559 52.5623 25.1371 52.5704C27.7152 52.5785 30.1928 51.5747 32.0337 49.7763C32.1018 49.7084 32.3681 49.4185 32.8386 48.9003L28.2571 44.3661C27.7866 44.909 27.5389 45.1927 27.508 45.2174C26.8861 45.8337 26.0447 46.1797 25.1677 46.1797C24.2906 46.1797 23.4492 45.8337 22.8274 45.2174C22.2103 44.6135 21.8591 43.7902 21.8509 42.9284C21.8428 42.0666 22.1784 41.2369 22.7841 40.6215C23.4091 40.0213 24.2453 39.6891 25.1134 39.696C25.9814 39.7029 26.8121 40.0485 27.4275 40.6586L39.6737 52.7682C37.982 55.1793 35.7332 57.1497 33.117 58.5133C30.5008 59.8768 27.5939 60.5934 24.6414 60.6028C21.5399 60.6038 18.4897 59.8137 15.7812 58.3078C13.0728 56.802 10.7962 54.6304 9.16836 51.9998C7.54049 49.3693 6.61547 46.3673 6.48136 43.2798C6.34725 40.1923 7.00851 37.1219 8.4022 34.3611C9.79589 31.6002 11.8756 29.2407 14.4433 27.5073C17.0111 25.7739 19.9814 24.7242 23.0714 24.4582C26.1615 24.1922 29.2685 24.7187 32.0965 25.9876C34.9246 27.2566 37.3796 29.2256 39.2279 31.7074C38.6913 32.3325 37.3107 33.8892 35.086 36.3773L39.6241 40.8251L47.1031 32.4662C45.295 28.4358 42.4289 24.9662 38.8071 22.4233C35.1853 19.8804 30.942 18.3583 26.5245 18.0176C22.1071 17.6769 17.6793 18.5302 13.7079 20.4875C9.73647 22.4448 6.3687 25.4336 3.95965 29.1387C1.55061 32.8438 0.189549 37.128 0.0199931 41.5395C-0.149562 45.951 0.878667 50.3264 2.99626 54.2042C5.11386 58.0821 8.24235 61.3187 12.0519 63.573C15.8614 65.8272 20.2108 67.0154 24.6414 67.0123C30.8326 67.0123 35.9528 65.0938 40.9614 60.8434C43.8414 58.3156 46.1319 55.1911 47.6727 51.6886L31.9532 36.1059Z" fill="url(#paint0_linear_149_1706)"/>
<path d="M133.111 45.8096V57.5307H128.251V45.5567C127.982 44.1767 127.237 42.9343 126.144 42.0456C125.05 41.1569 123.679 40.6783 122.268 40.693C120.858 40.7076 119.497 41.2147 118.423 42.1259C117.348 43.0371 116.629 44.2948 116.389 45.6801V57.5553H111.529V36.2416L115.244 38.5735C117.222 36.9069 119.73 35.9951 122.32 36.001C125.029 35.9777 127.647 36.9757 129.648 38.7948C131.649 40.6139 132.886 43.1197 133.111 45.8096ZM82.1268 33.5396C80.5211 34.3626 79.078 35.4682 77.8672 36.803C76.8981 35.4195 75.5873 34.3084 74.0614 33.5772C72.5354 32.846 70.846 32.5193 69.1564 32.6288C67.4667 32.7382 65.8339 33.2801 64.4159 34.202C62.9978 35.1239 61.8423 36.3946 61.0611 37.8915C60.28 39.3884 59.8995 41.0607 59.9565 42.7469C60.0135 44.4331 60.506 46.0761 61.3865 47.5172C62.2669 48.9583 63.5056 50.1487 64.9827 50.9735C66.4598 51.7983 68.1254 52.2294 69.8187 52.2254C71.5244 52.2395 73.2048 51.8145 74.6973 50.9916C75.227 52.702 76.0663 54.3015 77.1738 55.7108C74.912 56.932 72.3788 57.5683 69.8063 57.5615C67.7963 57.602 65.7984 57.2426 63.9296 56.5042C62.0608 55.7658 60.3587 54.6633 58.9228 53.2613C57.4869 51.8593 56.3462 50.1859 55.5675 48.3391C54.7888 46.4923 54.3877 44.5093 54.3877 42.5062C54.3877 40.503 54.7888 38.52 55.5675 36.6732C56.3462 34.8265 57.4869 33.1531 58.9228 31.751C60.3587 30.349 62.0608 29.2465 63.9296 28.5081C65.7984 27.7697 67.7963 27.4103 69.8063 27.4508C72.1874 27.4456 74.5369 27.9937 76.6682 29.0518C78.7994 30.1098 80.6536 31.6486 82.0834 33.5458L82.1268 33.5396ZM89.3519 57.5553C87.2475 57.531 85.1974 56.887 83.4595 55.7043C81.7216 54.5217 80.3736 52.8533 79.5852 50.909C78.7968 48.9648 78.6031 46.8316 79.0286 44.778C79.4541 42.7243 80.4797 40.842 81.9764 39.3678C83.473 37.8936 85.3739 36.8935 87.4397 36.4932C89.5056 36.093 91.6441 36.3106 93.5861 37.1186C95.5281 37.9266 97.1869 39.2889 98.3536 41.034C99.5204 42.7792 100.143 44.8293 100.143 46.9262C100.135 48.3302 99.8495 49.7188 99.3028 51.0127C98.7561 52.3067 97.959 53.4807 96.9569 54.4677C95.9548 55.4548 94.7675 56.2354 93.4626 56.7652C92.1577 57.295 90.7609 57.5635 89.3519 57.5553ZM89.3519 52.8299C90.5205 52.8153 91.6586 52.4567 92.6232 51.7992C93.5877 51.1417 94.3355 50.2146 94.7726 49.1346C95.2097 48.0547 95.3165 46.87 95.0795 45.7298C94.8426 44.5895 94.2725 43.5445 93.441 42.7262C92.6095 41.908 91.5537 41.353 90.4065 41.1311C89.2592 40.9093 88.0717 41.0304 86.9934 41.4794C85.9151 41.9283 84.9941 42.6849 84.3462 43.6541C83.6984 44.6233 83.3527 45.7618 83.3526 46.9262C83.3567 47.7066 83.5152 48.4785 83.819 49.1978C84.1228 49.9171 84.5661 50.5696 85.1233 51.118C85.6806 51.6663 86.3409 52.0998 87.0665 52.3936C87.7921 52.6873 88.5687 52.8356 89.3519 52.8299ZM103.146 36.3033H107.944V57.5553H103.146V36.3033ZM155.313 32.5402H141.593V40.2638H154.917V45.057H141.593V52.7559H155.313V57.5553H136.424V27.7408H155.313V32.5402ZM165.405 46.883L158.019 36.3033H164.123C164.303 36.5994 164.569 37.0065 164.916 37.5371L167.435 41.3186C167.838 41.9355 168.123 42.3674 168.29 42.6573L168.537 43.0768L172.927 36.3218H178.74L171.497 46.7041L179.019 57.5553H172.989L168.339 50.6091L168.085 50.9731C167.881 51.2692 167.578 51.7318 167.169 52.3549C166.761 52.978 166.333 53.638 165.869 54.329L164.563 56.3154C164.216 56.8459 163.943 57.2592 163.776 57.5492H158.012L165.405 46.883Z" fill="white"/>
<path d="M102.242 30.6587C102.239 30.2365 102.323 29.8183 102.49 29.4299C102.656 29.0416 102.9 28.6913 103.208 28.4008C103.828 27.7887 104.666 27.4453 105.539 27.4453C106.412 27.4453 107.249 27.7887 107.87 28.4008C108.184 28.6915 108.433 29.0451 108.601 29.4385C108.768 29.8319 108.85 30.2561 108.842 30.6834C108.837 31.5489 108.488 32.3774 107.872 32.9877C107.256 33.598 106.423 33.9406 105.554 33.9406C105.119 33.9478 104.687 33.8674 104.284 33.7041C103.88 33.5409 103.514 33.2982 103.208 32.9906C102.895 32.6886 102.648 32.3258 102.481 31.9247C102.315 31.5235 102.234 31.0926 102.242 30.6587Z" fill="url(#paint1_linear_149_1706)"/>
</g>
<defs>
<linearGradient id="paint0_linear_149_1706" x1="46.9501" y1="43.9007" x2="-0.691971" y2="43.9007" gradientUnits="userSpaceOnUse">
<stop stop-color="#22E6B8"/>
<stop offset="1" stop-color="#00C1CE"/>
</linearGradient>
<linearGradient id="paint1_linear_149_1706" x1="-12183.5" y1="-12383.4" x2="-12253.8" y2="-12383.4" gradientUnits="userSpaceOnUse">
<stop stop-color="#22E6B8"/>
<stop offset="1" stop-color="#00C1CE"/>
</linearGradient>
<clipPath id="clip0_149_1706">
<rect width="179" height="49" fill="white" transform="translate(0 18)"/>
</clipPath>
</defs>
</svg>
