<svg width="24" height="24" viewBox="0 0 24 24" fill="none" xmlns="http://www.w3.org/2000/svg">
<path d="M4.72753 15.497C3.8762 14.8434 3.18717 14.0022 2.7141 13.0388C2.24103 12.0754 1.99666 11.0158 2.00003 9.9425C2.00003 6.1085 5.05253 3 8.81803 3C11.9665 3 14.617 5.173 15.401 8.1265C16.0358 7.79843 16.74 7.62763 17.4545 7.6285C19.9645 7.6285 22 9.7005 22 12.257C22 14.1545 20.878 15.786 19.2725 16.5" stroke="white" stroke-width="1.57377" stroke-linecap="round" stroke-linejoin="round"/>
<path d="M9 11.5V14.5" stroke="white" stroke-width="1.57377" stroke-linecap="round" stroke-linejoin="round"/>
<path d="M7.5 13H10.5" stroke="white" stroke-width="1.57377" stroke-linecap="round" stroke-linejoin="round"/>
<path d="M15.5 13V16" stroke="white" stroke-width="1.57377" stroke-linecap="round" stroke-linejoin="round"/>
<path d="M14 14.5H17" stroke="white" stroke-width="1.57377" stroke-linecap="round" stroke-linejoin="round"/>
<path d="M12 18V21" stroke="white" stroke-width="1.57377" stroke-linecap="round" stroke-linejoin="round"/>
<path d="M10.5 19.5H13.5" stroke="white" stroke-width="1.57377" stroke-linecap="round" stroke-linejoin="round"/>
</svg>
