<svg width="58" height="58" viewBox="0 0 58 58" fill="none" xmlns="http://www.w3.org/2000/svg">
<path d="M56.6451 29.5426C56.6451 27.1664 56.4523 25.4324 56.035 23.6342H28.9008V34.3593H44.828C44.507 37.0246 42.7729 41.0386 38.9195 43.7358L38.8655 44.0949L47.4448 50.7412L48.0392 50.8005C53.4981 45.7589 56.6451 38.3411 56.6451 29.5426Z" fill="#4285F4"/>
<path d="M28.9009 57.8007C36.7039 57.8007 43.2546 55.2317 48.0394 50.8004L38.9196 43.7357C36.4792 45.4376 33.2038 46.6258 28.9009 46.6258C21.2584 46.6258 14.7719 41.5844 12.4597 34.6162L12.1208 34.645L3.19982 41.549L3.08316 41.8733C7.83562 51.314 17.5975 57.8007 28.9009 57.8007Z" fill="#34A853"/>
<path d="M12.4592 34.6163C11.849 32.818 11.496 30.8912 11.496 28.9004C11.496 26.9093 11.849 24.9827 12.4271 23.1845L12.4109 22.8015L3.37817 15.7866L3.08263 15.9272C1.12392 19.8449 0 24.2442 0 28.9004C0 33.5565 1.12392 37.9557 3.08263 41.8733L12.4592 34.6163Z" fill="#FBBC05"/>
<path d="M28.9009 11.1747C34.3277 11.1747 37.9883 13.5189 40.0756 15.4778L48.232 7.5141C43.2227 2.85794 36.7039 0 28.9009 0C17.5975 0 7.83562 6.48648 3.08316 15.9272L12.4276 23.1845C14.7719 16.2163 21.2584 11.1747 28.9009 11.1747Z" fill="#EB4335"/>
</svg>
