<svg width="126" height="116" viewBox="0 0 126 116" fill="none" xmlns="http://www.w3.org/2000/svg">
<path d="M15.4813 89.24C14.7133 89.24 14.0226 89.128 13.4093 88.904C12.8013 88.6747 12.2893 88.376 11.8733 88.008C11.4573 87.6347 11.1319 87.224 10.8973 86.776L12.5453 85.656C12.7693 86.168 13.1239 86.592 13.6093 86.928C14.0946 87.2587 14.7453 87.424 15.5613 87.424C16.1106 87.424 16.5693 87.344 16.9373 87.184C17.3053 87.0187 17.5773 86.7973 17.7533 86.52C17.9293 86.2427 18.0173 85.9333 18.0173 85.592C18.0173 85.032 17.8013 84.64 17.3693 84.416C16.9373 84.1867 16.3613 84.0613 15.6413 84.04C14.8946 84.0187 14.4653 84.008 14.3533 84.008V82.184C14.9026 82.184 15.2733 82.1787 15.4653 82.168C15.8813 82.152 16.2466 82.0853 16.5613 81.968C16.8759 81.8453 17.1186 81.6693 17.2893 81.44C17.4653 81.2107 17.5533 80.9333 17.5533 80.608C17.5533 80.288 17.4706 80.0107 17.3053 79.776C17.1399 79.5413 16.9053 79.3627 16.6013 79.24C16.3026 79.112 15.9533 79.048 15.5533 79.048C15.0146 79.048 14.5266 79.168 14.0893 79.408C13.6573 79.6427 13.3239 79.944 13.0893 80.312L11.7373 78.936C12.1479 78.4347 12.6919 78.0267 13.3693 77.712C14.0466 77.3973 14.7933 77.24 15.6093 77.24C16.3133 77.24 16.9666 77.3627 17.5693 77.608C18.1773 77.848 18.6653 78.216 19.0333 78.712C19.4066 79.2027 19.5933 79.8133 19.5933 80.544C19.5933 81.072 19.4919 81.56 19.2893 82.008C19.0919 82.456 18.8146 82.8187 18.4573 83.096C18.9746 83.304 19.3693 83.6187 19.6413 84.04C19.9186 84.456 20.0573 84.976 20.0573 85.6C20.0573 86.3307 19.8573 86.9733 19.4573 87.528C19.0573 88.0773 18.5079 88.5013 17.8093 88.8C17.1159 89.0933 16.3399 89.24 15.4813 89.24ZM24.2079 89.24C23.6052 89.24 23.0852 89.1253 22.6479 88.896C22.2105 88.6613 21.8772 88.3467 21.6479 87.952C21.4239 87.552 21.3119 87.112 21.3119 86.632C21.3119 85.992 21.4692 85.4587 21.7839 85.032C22.1039 84.6053 22.6025 84.2773 23.2799 84.048C23.6692 83.9147 24.1305 83.8027 24.6639 83.712C25.2025 83.616 25.9652 83.4987 26.9519 83.36C27.0799 83.3387 27.2105 83.32 27.3439 83.304C27.4825 83.2827 27.6132 83.2613 27.7359 83.24L27.0479 83.632C27.0479 83.2267 26.9892 82.896 26.8719 82.64C26.7545 82.384 26.5652 82.1947 26.3039 82.072C26.0425 81.9493 25.6985 81.888 25.2719 81.888C24.8399 81.888 24.4505 81.9867 24.1039 82.184C23.7572 82.376 23.5172 82.68 23.3839 83.096L21.6239 82.544C21.8425 81.7867 22.2585 81.1947 22.8719 80.768C23.4852 80.336 24.2852 80.12 25.2719 80.12C26.0772 80.12 26.7652 80.2507 27.3359 80.512C27.9065 80.7733 28.3279 81.1787 28.5999 81.728C28.7439 82.0053 28.8345 82.2933 28.8719 82.592C28.9092 82.8853 28.9279 83.2533 28.9279 83.696V89H27.2399V87.128L27.5199 87.432C27.2532 87.8533 26.9625 88.1973 26.6479 88.464C26.3385 88.7253 25.9839 88.92 25.5839 89.048C25.1839 89.176 24.7252 89.24 24.2079 89.24ZM24.5919 87.704C25.0025 87.704 25.3625 87.632 25.6719 87.488C25.9865 87.3387 26.2372 87.1547 26.4239 86.936C26.6159 86.7173 26.7492 86.496 26.8239 86.272C26.9039 86.08 26.9545 85.8613 26.9759 85.616C27.0025 85.3707 27.0159 85.104 27.0159 84.816V84.656L27.6079 84.832L26.9119 84.944C26.1919 85.056 25.6372 85.1493 25.2479 85.224C24.8585 85.2987 24.5252 85.3813 24.2479 85.472C23.9012 85.6 23.6399 85.7547 23.4639 85.936C23.2879 86.112 23.1999 86.336 23.1999 86.608C23.1999 86.8213 23.2532 87.0107 23.3599 87.176C23.4665 87.3413 23.6239 87.472 23.8319 87.568C24.0399 87.6587 24.2932 87.704 24.5919 87.704ZM40.2986 90.816V89H30.9946V80.36H32.8426V87.288H35.2826V80.36H37.1306V87.288H39.5706V80.36H41.4186V87.288H42.2266V90.816H40.2986ZM50.9986 80.36V89H49.1506V83.36L45.0386 89H43.4946V80.36H45.3426V85.856L49.4706 80.36H50.9986ZM62.533 90.816V89H53.229V80.36H55.077V87.288H57.517V80.36H59.365V87.288H61.805V80.36H63.653V87.288H64.461V90.816H62.533ZM69.673 89.24C68.809 89.24 68.0437 89.0533 67.377 88.68C66.7103 88.3013 66.1903 87.7733 65.817 87.096C65.449 86.4133 65.265 85.64 65.265 84.776C65.265 83.8427 65.4463 83.0267 65.809 82.328C66.1717 81.624 66.6757 81.08 67.321 80.696C67.9717 80.312 68.7183 80.12 69.561 80.12C70.4463 80.12 71.2037 80.328 71.833 80.744C72.4677 81.16 72.9343 81.752 73.233 82.52C73.537 83.288 73.6543 84.1867 73.585 85.216H71.673V84.512C71.6677 83.8827 71.593 83.3707 71.449 82.976C71.305 82.5813 71.0837 82.288 70.785 82.096C70.4917 81.904 70.1103 81.808 69.641 81.808C69.1183 81.808 68.6837 81.9173 68.337 82.136C67.9903 82.3493 67.7317 82.6693 67.561 83.096C67.3903 83.5227 67.305 84.0507 67.305 84.68C67.305 85.2667 67.3903 85.7653 67.561 86.176C67.7317 86.5867 67.985 86.8987 68.321 87.112C68.6623 87.3253 69.0757 87.432 69.561 87.432C70.0303 87.432 70.4383 87.328 70.785 87.12C71.1317 86.9067 71.3983 86.6 71.585 86.2L73.489 86.776C73.2757 87.288 72.9743 87.7307 72.585 88.104C72.201 88.472 71.7583 88.7547 71.257 88.952C70.7557 89.144 70.2277 89.24 69.673 89.24ZM66.697 85.216V83.76H72.641V85.216H66.697ZM75.354 89V80.36H77.282V83.768H81.162V80.36H83.09V89H81.162V85.576H77.282V89H75.354ZM85.3071 89V80.36H87.2351V83.768H91.1151V80.36H93.0431V89H91.1151V85.576H87.2351V89H85.3071ZM95.2683 89L95.2603 80.36H97.1883V83.24H98.1562C98.8763 83.24 99.3989 83.2693 99.7243 83.328C101.26 83.664 102.028 84.5973 102.028 86.128C102.028 86.6293 101.94 87.0667 101.764 87.44C101.588 87.8133 101.332 88.12 100.996 88.36C100.666 88.6 100.26 88.776 99.7803 88.888C99.5936 88.9307 99.3563 88.96 99.0683 88.976C98.7856 88.992 98.4896 89 98.1803 89H95.2683ZM98.3483 87.488C98.4923 87.488 98.6309 87.4827 98.7643 87.472C98.8976 87.4613 99.0256 87.4373 99.1483 87.4C99.4043 87.3307 99.6203 87.1813 99.7963 86.952C99.9776 86.7227 100.068 86.448 100.068 86.128C100.068 85.792 99.9776 85.512 99.7963 85.288C99.6149 85.0587 99.3829 84.9067 99.1003 84.832C98.8923 84.7787 98.6416 84.752 98.3483 84.752H97.1883V87.488H98.3483ZM102.932 89V80.36H104.86V89H102.932ZM111.096 79.384C110.654 79.384 110.246 79.2773 109.872 79.064C109.504 78.8453 109.211 78.552 108.992 78.184C108.779 77.8107 108.672 77.4027 108.672 76.96H110.176C110.176 77.1307 110.216 77.2853 110.296 77.424C110.382 77.5627 110.494 77.6747 110.632 77.76C110.771 77.84 110.926 77.88 111.096 77.88C111.267 77.88 111.422 77.84 111.56 77.76C111.699 77.6747 111.808 77.5627 111.888 77.424C111.974 77.2853 112.016 77.1307 112.016 76.96H113.52C113.52 77.4027 113.411 77.8107 113.192 78.184C112.979 78.552 112.686 78.8453 112.312 79.064C111.944 79.2773 111.539 79.384 111.096 79.384ZM114.592 80.36V89H112.744V83.36L108.632 89H107.088V80.36H108.936V85.856L113.064 80.36H114.592ZM42.5126 111.24C41.9099 111.24 41.3899 111.125 40.9526 110.896C40.5152 110.661 40.1819 110.347 39.9526 109.952C39.7286 109.552 39.6166 109.112 39.6166 108.632C39.6166 107.992 39.7739 107.459 40.0886 107.032C40.4086 106.605 40.9072 106.277 41.5846 106.048C41.9739 105.915 42.4352 105.803 42.9686 105.712C43.5072 105.616 44.2699 105.499 45.2566 105.36C45.3846 105.339 45.5152 105.32 45.6486 105.304C45.7872 105.283 45.9179 105.261 46.0406 105.24L45.3526 105.632C45.3526 105.227 45.2939 104.896 45.1766 104.64C45.0592 104.384 44.8699 104.195 44.6086 104.072C44.3472 103.949 44.0032 103.888 43.5766 103.888C43.1446 103.888 42.7552 103.987 42.4086 104.184C42.0619 104.376 41.8219 104.68 41.6886 105.096L39.9286 104.544C40.1472 103.787 40.5632 103.195 41.1766 102.768C41.7899 102.336 42.5899 102.12 43.5766 102.12C44.3819 102.12 45.0699 102.251 45.6406 102.512C46.2112 102.773 46.6326 103.179 46.9046 103.728C47.0486 104.005 47.1392 104.293 47.1766 104.592C47.2139 104.885 47.2326 105.253 47.2326 105.696V111H45.5446V109.128L45.8246 109.432C45.5579 109.853 45.2672 110.197 44.9526 110.464C44.6432 110.725 44.2886 110.92 43.8886 111.048C43.4886 111.176 43.0299 111.24 42.5126 111.24ZM42.8966 109.704C43.3072 109.704 43.6672 109.632 43.9766 109.488C44.2912 109.339 44.5419 109.155 44.7286 108.936C44.9206 108.717 45.0539 108.496 45.1286 108.272C45.2086 108.08 45.2592 107.861 45.2806 107.616C45.3072 107.371 45.3206 107.104 45.3206 106.816V106.656L45.9126 106.832L45.2166 106.944C44.4966 107.056 43.9419 107.149 43.5526 107.224C43.1632 107.299 42.8299 107.381 42.5526 107.472C42.2059 107.6 41.9446 107.755 41.7686 107.936C41.5926 108.112 41.5046 108.336 41.5046 108.608C41.5046 108.821 41.5579 109.011 41.6646 109.176C41.7712 109.341 41.9286 109.472 42.1366 109.568C42.3446 109.659 42.5979 109.704 42.8966 109.704ZM48.6753 109.488C48.99 109.488 49.238 109.421 49.4193 109.288C49.6006 109.149 49.7473 108.928 49.8593 108.624C49.9713 108.32 50.0673 107.893 50.1473 107.344C50.2433 106.693 50.3206 105.981 50.3793 105.208C50.4433 104.429 50.4993 103.48 50.5473 102.36H56.9793V109.488H57.8513V112.92H56.0273V111H50.4913V112.92H48.6753V109.488ZM51.2593 109.488H55.0593V103.872H52.2353C52.198 104.565 52.1526 105.237 52.0993 105.888C52.046 106.533 51.9873 107.115 51.9233 107.632C51.8593 108.123 51.782 108.504 51.6913 108.776C51.6006 109.048 51.4566 109.285 51.2593 109.488ZM63.6079 111.24C62.7866 111.24 62.0879 111.043 61.5119 110.648C60.9359 110.253 60.5013 109.712 60.2079 109.024C59.9146 108.336 59.7679 107.555 59.7679 106.68C59.7679 105.8 59.9119 105.016 60.1999 104.328C60.4933 103.64 60.9226 103.101 61.4879 102.712C62.0533 102.317 62.7359 102.12 63.5359 102.12C64.3359 102.12 65.0399 102.317 65.6479 102.712C66.2559 103.101 66.7253 103.643 67.0559 104.336C67.3866 105.024 67.5519 105.805 67.5519 106.68C67.5519 107.539 67.3893 108.315 67.0639 109.008C66.7386 109.701 66.2746 110.248 65.6719 110.648C65.0746 111.043 64.3866 111.24 63.6079 111.24ZM59.4399 114.84V102.36H61.1439V108.424H61.3839V114.84H59.4399ZM63.3119 109.512C63.7973 109.512 64.2053 109.389 64.5359 109.144C64.8666 108.899 65.1119 108.563 65.2719 108.136C65.4319 107.709 65.5119 107.224 65.5119 106.68C65.5119 106.141 65.4293 105.659 65.2639 105.232C65.0986 104.805 64.8453 104.469 64.5039 104.224C64.1679 103.973 63.7493 103.848 63.2479 103.848C62.7679 103.848 62.3706 103.965 62.0559 104.2C61.7466 104.435 61.5173 104.763 61.3679 105.184C61.2186 105.605 61.1439 106.104 61.1439 106.68C61.1439 107.256 61.2186 107.757 61.3679 108.184C61.5226 108.605 61.7599 108.933 62.0799 109.168C62.3999 109.397 62.8106 109.512 63.3119 109.512ZM73.2433 111.24C72.3793 111.24 71.614 111.053 70.9473 110.68C70.2806 110.301 69.7606 109.773 69.3873 109.096C69.0193 108.413 68.8353 107.64 68.8353 106.776C68.8353 105.843 69.0166 105.027 69.3793 104.328C69.742 103.624 70.246 103.08 70.8913 102.696C71.542 102.312 72.2886 102.12 73.1313 102.12C74.0166 102.12 74.774 102.328 75.4033 102.744C76.038 103.16 76.5046 103.752 76.8033 104.52C77.1073 105.288 77.2246 106.187 77.1553 107.216H75.2433V106.512C75.238 105.883 75.1633 105.371 75.0193 104.976C74.8753 104.581 74.654 104.288 74.3553 104.096C74.062 103.904 73.6806 103.808 73.2113 103.808C72.6886 103.808 72.254 103.917 71.9073 104.136C71.5606 104.349 71.302 104.669 71.1313 105.096C70.9606 105.523 70.8753 106.051 70.8753 106.68C70.8753 107.267 70.9606 107.765 71.1313 108.176C71.302 108.587 71.5553 108.899 71.8913 109.112C72.2326 109.325 72.646 109.432 73.1313 109.432C73.6006 109.432 74.0086 109.328 74.3553 109.12C74.702 108.907 74.9686 108.6 75.1553 108.2L77.0593 108.776C76.846 109.288 76.5446 109.731 76.1553 110.104C75.7713 110.472 75.3286 110.755 74.8273 110.952C74.326 111.144 73.798 111.24 73.2433 111.24ZM70.2673 107.216V105.76H76.2113V107.216H70.2673ZM82.6923 111.24C81.823 111.24 81.0683 111.045 80.4283 110.656C79.7936 110.261 79.3083 109.72 78.9723 109.032C78.6363 108.339 78.4656 107.555 78.4603 106.68C78.4656 105.795 78.639 105.008 78.9803 104.32C79.327 103.632 79.8203 103.093 80.4603 102.704C81.1056 102.315 81.8576 102.12 82.7163 102.12C83.367 102.12 83.9563 102.232 84.4843 102.456C85.0123 102.675 85.4523 102.992 85.8043 103.408C86.1563 103.824 86.4016 104.315 86.5403 104.88L84.6203 105.4C84.471 104.941 84.223 104.581 83.8763 104.32C83.535 104.059 83.1403 103.928 82.6923 103.928C81.967 103.928 81.4203 104.179 81.0523 104.68C80.6843 105.181 80.5003 105.848 80.5003 106.68C80.5003 107.235 80.583 107.72 80.7483 108.136C80.9136 108.547 81.1616 108.867 81.4923 109.096C81.823 109.32 82.223 109.432 82.6923 109.432C83.1883 109.432 83.5856 109.32 83.8843 109.096C84.1883 108.867 84.4176 108.523 84.5723 108.064L86.5403 108.504C86.2736 109.384 85.807 110.061 85.1403 110.536C84.4736 111.005 83.6576 111.24 82.6923 111.24Z" fill="white"/>
<path fill-rule="evenodd" clip-rule="evenodd" d="M62.5071 7.22237L43.5 12.7704V23.7841C43.5 35.7299 50.8456 46.3876 61.8838 50.6901L62.5024 50.92L63.1218 50.6902C73.9316 46.4756 81.1987 36.165 81.4909 24.5196L81.5 23.79V12.7704L62.5071 7.22237ZM70.8125 28.5C72.1242 28.5 73.1875 29.5633 73.1875 30.875C73.1875 32.093 72.2707 33.0968 71.0895 33.234L70.8125 33.25H59.9231L61.8044 35.1331C62.7319 36.0606 62.7319 37.5644 61.8044 38.4919C60.9482 39.348 59.6011 39.4139 58.6694 38.6895L58.4456 38.4919L52.5081 32.5544C52.4241 32.4703 52.3476 32.3815 52.2788 32.2889C52.2364 32.2314 52.1966 32.1724 52.1594 32.1116C52.1417 32.083 52.1248 32.0539 52.1086 32.0246C52.0828 31.9777 52.058 31.9292 52.0349 31.8799C52.016 31.8395 51.9982 31.7984 51.9817 31.7569C51.9629 31.71 51.9458 31.663 51.9302 31.6154C51.9164 31.573 51.9035 31.5293 51.8919 31.4854C51.8799 31.441 51.8695 31.3967 51.8604 31.3519C51.8522 31.3105 51.8449 31.2691 51.8387 31.2276C51.8317 31.1824 51.8262 31.1355 51.8219 31.0883C51.817 31.0317 51.814 30.9764 51.8129 30.921L51.8125 30.875C51.8125 30.7548 51.8214 30.6366 51.8387 30.5212C51.8449 30.4809 51.8522 30.4395 51.8606 30.3983C51.871 30.346 51.8834 30.2945 51.8973 30.2436C51.9077 30.2065 51.9187 30.17 51.9306 30.1337C51.9471 30.0828 51.9659 30.0318 51.9862 29.9817C52.0016 29.9438 52.0178 29.9067 52.035 29.8698C52.058 29.8208 52.0828 29.7723 52.1091 29.7248C52.1248 29.6961 52.1417 29.667 52.1592 29.6383C52.1966 29.5776 52.2364 29.5186 52.2787 29.4615C52.2836 29.4549 52.2884 29.4484 52.2933 29.4419C52.3015 29.431 52.3098 29.4203 52.3182 29.4096C52.392 29.3156 52.4729 29.2272 52.5601 29.1452C52.6285 29.0807 52.6999 29.0211 52.7736 28.9663C52.8311 28.9239 52.8901 28.8841 52.9509 28.8469C52.9795 28.8292 53.0086 28.8123 53.0379 28.7961C53.0848 28.7703 53.1333 28.7455 53.1826 28.7224C53.223 28.7035 53.2641 28.6857 53.3056 28.6692C53.3525 28.6504 53.3995 28.6333 53.4471 28.6177C53.4825 28.6062 53.519 28.5952 53.5558 28.5851C53.607 28.5709 53.6585 28.5585 53.7106 28.5479C53.752 28.5397 53.7934 28.5324 53.8349 28.5262C53.8592 28.5224 53.8848 28.519 53.9105 28.516L53.9755 28.5094C54.0315 28.5044 54.0877 28.5014 54.1439 28.5004L54.1875 28.5H70.8125ZM66.3306 15.9355L66.5544 16.1331L72.4919 22.0706C72.5759 22.1547 72.6524 22.2435 72.7212 22.3361C72.7636 22.3936 72.8034 22.4526 72.8406 22.5134C72.8583 22.542 72.8752 22.5711 72.8914 22.6004C72.9172 22.6473 72.942 22.6958 72.9651 22.7451C72.984 22.7855 73.0018 22.8266 73.0183 22.8681C73.0371 22.915 73.0542 22.962 73.0698 23.0096C73.0813 23.045 73.0923 23.0815 73.1024 23.1183C73.1166 23.1695 73.129 23.221 73.1396 23.2731C73.1478 23.3145 73.1551 23.3559 73.1613 23.3974C73.1686 23.4448 73.1744 23.4938 73.1786 23.5432C73.1824 23.5879 73.1849 23.6306 73.1863 23.6734C73.1871 23.6973 73.1875 23.7236 73.1875 23.75C73.1875 23.8702 73.1786 23.9884 73.1613 24.1038C73.1551 24.1441 73.1478 24.1855 73.1394 24.2267C73.129 24.279 73.1166 24.3305 73.1027 24.3814C73.0923 24.4185 73.0813 24.455 73.0694 24.4913C73.0542 24.538 73.0371 24.585 73.0186 24.6313C73.0018 24.6734 72.984 24.7145 72.965 24.7552C72.942 24.8042 72.9172 24.8527 72.8909 24.9002C72.8752 24.9289 72.8583 24.958 72.8408 24.9867C72.8034 25.0474 72.7636 25.1064 72.7213 25.1635C72.7083 25.1812 72.6952 25.1984 72.6818 25.2154C72.6087 25.3085 72.5285 25.3962 72.4423 25.4776C72.3731 25.5429 72.301 25.6033 72.2264 25.6587C72.1689 25.7011 72.1099 25.7409 72.0491 25.7781C72.0205 25.7958 71.9914 25.8127 71.9621 25.8289C71.9152 25.8547 71.8667 25.8795 71.8174 25.9026C71.777 25.9215 71.7359 25.9393 71.6944 25.9558C71.6475 25.9746 71.6005 25.9917 71.5529 26.0073C71.5175 26.0188 71.481 26.0298 71.4442 26.0399C71.393 26.0541 71.3415 26.0665 71.2894 26.0771C71.248 26.0853 71.2066 26.0926 71.1651 26.0988C71.1408 26.1026 71.1152 26.106 71.0895 26.109L71.0149 26.1164C70.9738 26.1199 70.9327 26.1223 70.8915 26.1237L70.8125 26.125H54.1875C52.8758 26.125 51.8125 25.0617 51.8125 23.75C51.8125 22.532 52.7293 21.5282 53.9105 21.391L54.1875 21.375H65.0769L63.1956 19.4919C62.2681 18.5644 62.2681 17.0606 63.1956 16.1331C64.0518 15.277 65.3989 15.2111 66.3306 15.9355Z" fill="#C4C4C4"/>
<path fill-rule="evenodd" clip-rule="evenodd" d="M62.5071 7.22237L43.5 12.7704V23.7841C43.5 35.7299 50.8456 46.3876 61.8838 50.6901L62.5024 50.92L63.1218 50.6902C73.9316 46.4756 81.1987 36.165 81.4909 24.5196L81.5 23.79V12.7704L62.5071 7.22237ZM70.8125 28.5C72.1242 28.5 73.1875 29.5633 73.1875 30.875C73.1875 32.093 72.2707 33.0968 71.0895 33.234L70.8125 33.25H59.9231L61.8044 35.1331C62.7319 36.0606 62.7319 37.5644 61.8044 38.4919C60.9482 39.348 59.6011 39.4139 58.6694 38.6895L58.4456 38.4919L52.5081 32.5544C52.4241 32.4703 52.3476 32.3815 52.2788 32.2889C52.2364 32.2314 52.1966 32.1724 52.1594 32.1116C52.1417 32.083 52.1248 32.0539 52.1086 32.0246C52.0828 31.9777 52.058 31.9292 52.0349 31.8799C52.016 31.8395 51.9982 31.7984 51.9817 31.7569C51.9629 31.71 51.9458 31.663 51.9302 31.6154C51.9164 31.573 51.9035 31.5293 51.8919 31.4854C51.8799 31.441 51.8695 31.3967 51.8604 31.3519C51.8522 31.3105 51.8449 31.2691 51.8387 31.2276C51.8317 31.1824 51.8262 31.1355 51.8219 31.0883C51.817 31.0317 51.814 30.9764 51.8129 30.921L51.8125 30.875C51.8125 30.7548 51.8214 30.6366 51.8387 30.5212C51.8449 30.4809 51.8522 30.4395 51.8606 30.3983C51.871 30.346 51.8834 30.2945 51.8973 30.2436C51.9077 30.2065 51.9187 30.17 51.9306 30.1337C51.9471 30.0828 51.9659 30.0318 51.9862 29.9817C52.0016 29.9438 52.0178 29.9067 52.035 29.8698C52.058 29.8208 52.0828 29.7723 52.1091 29.7248C52.1248 29.6961 52.1417 29.667 52.1592 29.6383C52.1966 29.5776 52.2364 29.5186 52.2787 29.4615C52.2836 29.4549 52.2884 29.4484 52.2933 29.4419C52.3015 29.431 52.3098 29.4203 52.3182 29.4096C52.392 29.3156 52.4729 29.2272 52.5601 29.1452C52.6285 29.0807 52.6999 29.0211 52.7736 28.9663C52.8311 28.9239 52.8901 28.8841 52.9509 28.8469C52.9795 28.8292 53.0086 28.8123 53.0379 28.7961C53.0848 28.7703 53.1333 28.7455 53.1826 28.7224C53.223 28.7035 53.2641 28.6857 53.3056 28.6692C53.3525 28.6504 53.3995 28.6333 53.4471 28.6177C53.4825 28.6062 53.519 28.5952 53.5558 28.5851C53.607 28.5709 53.6585 28.5585 53.7106 28.5479C53.752 28.5397 53.7934 28.5324 53.8349 28.5262C53.8592 28.5224 53.8848 28.519 53.9105 28.516L53.9755 28.5094C54.0315 28.5044 54.0877 28.5014 54.1439 28.5004L54.1875 28.5H70.8125ZM66.3306 15.9355L66.5544 16.1331L72.4919 22.0706C72.5759 22.1547 72.6524 22.2435 72.7212 22.3361C72.7636 22.3936 72.8034 22.4526 72.8406 22.5134C72.8583 22.542 72.8752 22.5711 72.8914 22.6004C72.9172 22.6473 72.942 22.6958 72.9651 22.7451C72.984 22.7855 73.0018 22.8266 73.0183 22.8681C73.0371 22.915 73.0542 22.962 73.0698 23.0096C73.0813 23.045 73.0923 23.0815 73.1024 23.1183C73.1166 23.1695 73.129 23.221 73.1396 23.2731C73.1478 23.3145 73.1551 23.3559 73.1613 23.3974C73.1686 23.4448 73.1744 23.4938 73.1786 23.5432C73.1824 23.5879 73.1849 23.6306 73.1863 23.6734C73.1871 23.6973 73.1875 23.7236 73.1875 23.75C73.1875 23.8702 73.1786 23.9884 73.1613 24.1038C73.1551 24.1441 73.1478 24.1855 73.1394 24.2267C73.129 24.279 73.1166 24.3305 73.1027 24.3814C73.0923 24.4185 73.0813 24.455 73.0694 24.4913C73.0542 24.538 73.0371 24.585 73.0186 24.6313C73.0018 24.6734 72.984 24.7145 72.965 24.7552C72.942 24.8042 72.9172 24.8527 72.8909 24.9002C72.8752 24.9289 72.8583 24.958 72.8408 24.9867C72.8034 25.0474 72.7636 25.1064 72.7213 25.1635C72.7083 25.1812 72.6952 25.1984 72.6818 25.2154C72.6087 25.3085 72.5285 25.3962 72.4423 25.4776C72.3731 25.5429 72.301 25.6033 72.2264 25.6587C72.1689 25.7011 72.1099 25.7409 72.0491 25.7781C72.0205 25.7958 71.9914 25.8127 71.9621 25.8289C71.9152 25.8547 71.8667 25.8795 71.8174 25.9026C71.777 25.9215 71.7359 25.9393 71.6944 25.9558C71.6475 25.9746 71.6005 25.9917 71.5529 26.0073C71.5175 26.0188 71.481 26.0298 71.4442 26.0399C71.393 26.0541 71.3415 26.0665 71.2894 26.0771C71.248 26.0853 71.2066 26.0926 71.1651 26.0988C71.1408 26.1026 71.1152 26.106 71.0895 26.109L71.0149 26.1164C70.9738 26.1199 70.9327 26.1223 70.8915 26.1237L70.8125 26.125H54.1875C52.8758 26.125 51.8125 25.0617 51.8125 23.75C51.8125 22.532 52.7293 21.5282 53.9105 21.391L54.1875 21.375H65.0769L63.1956 19.4919C62.2681 18.5644 62.2681 17.0606 63.1956 16.1331C64.0518 15.277 65.3989 15.2111 66.3306 15.9355Z" fill="url(#paint0_linear_97_1018)"/>
<path fill-rule="evenodd" clip-rule="evenodd" d="M61.8448 2.47011C62.2796 2.34324 62.7415 2.3433 63.1762 2.47028L84.541 8.71135C85.5538 9.00723 86.25 9.93588 86.25 10.9911V23.79C86.25 38.265 76.9866 51.1156 63.2539 55.6913C62.7666 55.8537 62.2398 55.8537 61.7525 55.6914C48.0162 51.1158 38.75 38.2624 38.75 23.7841V10.9911C38.75 9.93566 39.4465 9.00686 40.4596 8.71118L61.8448 2.47011ZM62.5071 7.22237L43.5 12.7704V23.7841C43.5 35.7299 50.8456 46.3876 61.8838 50.6901L62.5024 50.92L63.1218 50.6902C73.9316 46.4756 81.1987 36.165 81.4909 24.5196L81.5 23.79V12.7704L62.5071 7.22237ZM72.4919 22.0706C72.5595 22.1382 72.623 22.2099 72.6821 22.2852L72.4919 22.0706ZM73.1789 23.9524L73.1875 23.75L73.1862 23.829C73.1848 23.8702 73.1824 23.9113 73.1789 23.9524ZM72.4423 25.4776C72.3895 25.5274 72.3344 25.5748 72.2773 25.6196L72.4919 25.4294C72.4755 25.4457 72.459 25.4618 72.4423 25.4776ZM52.7227 29.0054C52.6664 29.0496 52.6121 29.0962 52.5601 29.1452C52.5426 29.1617 52.5252 29.1785 52.5081 29.1956L52.7227 29.0054ZM51.8129 30.8314L51.8125 30.875L51.8219 30.663C51.8169 30.719 51.8139 30.7752 51.8129 30.8314ZM52.3343 32.3604L52.5081 32.5544L52.3179 32.3398L52.3343 32.3604Z" fill="#C4C4C4"/>
<path fill-rule="evenodd" clip-rule="evenodd" d="M61.8448 2.47011C62.2796 2.34324 62.7415 2.3433 63.1762 2.47028L84.541 8.71135C85.5538 9.00723 86.25 9.93588 86.25 10.9911V23.79C86.25 38.265 76.9866 51.1156 63.2539 55.6913C62.7666 55.8537 62.2398 55.8537 61.7525 55.6914C48.0162 51.1158 38.75 38.2624 38.75 23.7841V10.9911C38.75 9.93566 39.4465 9.00686 40.4596 8.71118L61.8448 2.47011ZM62.5071 7.22237L43.5 12.7704V23.7841C43.5 35.7299 50.8456 46.3876 61.8838 50.6901L62.5024 50.92L63.1218 50.6902C73.9316 46.4756 81.1987 36.165 81.4909 24.5196L81.5 23.79V12.7704L62.5071 7.22237ZM72.4919 22.0706C72.5595 22.1382 72.623 22.2099 72.6821 22.2852L72.4919 22.0706ZM73.1789 23.9524L73.1875 23.75L73.1862 23.829C73.1848 23.8702 73.1824 23.9113 73.1789 23.9524ZM72.4423 25.4776C72.3895 25.5274 72.3344 25.5748 72.2773 25.6196L72.4919 25.4294C72.4755 25.4457 72.459 25.4618 72.4423 25.4776ZM52.7227 29.0054C52.6664 29.0496 52.6121 29.0962 52.5601 29.1452C52.5426 29.1617 52.5252 29.1785 52.5081 29.1956L52.7227 29.0054ZM51.8129 30.8314L51.8125 30.875L51.8219 30.663C51.8169 30.719 51.8139 30.7752 51.8129 30.8314ZM52.3343 32.3604L52.5081 32.5544L52.3179 32.3398L52.3343 32.3604Z" fill="url(#paint1_linear_97_1018)"/>
<g filter="url(#filter0_b_97_1018)">
<circle cx="43.5" cy="42.5" r="19.5" fill="white" fill-opacity="0.1"/>
<circle cx="43.5" cy="42.5" r="19.35" stroke="url(#paint2_linear_97_1018)" stroke-width="0.3"/>
</g>
<path d="M52.2895 40.6492C52.2371 40.4949 52.1407 40.3593 52.0122 40.2592C51.8836 40.1591 51.7286 40.0988 51.5662 40.0858L46.8153 39.7083L44.7595 35.1575C44.694 35.0109 44.5875 34.8864 44.4529 34.7991C44.3182 34.7117 44.1611 34.6651 44.0006 34.665C43.8401 34.665 43.683 34.7113 43.5482 34.7986C43.4134 34.8858 43.3068 35.0102 43.2412 35.1567L41.1853 39.7083L36.4345 40.0858C36.2749 40.0985 36.1223 40.1569 35.995 40.254C35.8677 40.3511 35.771 40.4828 35.7166 40.6334C35.6622 40.784 35.6523 40.947 35.6881 41.1031C35.724 41.2592 35.804 41.4016 35.9187 41.5133L39.4295 44.9358L38.1878 50.3125C38.1501 50.4753 38.1622 50.6456 38.2225 50.8014C38.2828 50.9572 38.3886 51.0913 38.526 51.1862C38.6635 51.2812 38.8263 51.3326 38.9933 51.3339C39.1604 51.3352 39.324 51.2862 39.4628 51.1933L44.0003 48.1683L48.5378 51.1933C48.6798 51.2876 48.8472 51.3361 49.0175 51.3324C49.1879 51.3286 49.353 51.2728 49.4907 51.1724C49.6284 51.0721 49.732 50.9319 49.7877 50.7709C49.8433 50.6099 49.8483 50.4356 49.802 50.2717L48.2778 44.9383L52.0578 41.5367C52.3053 41.3133 52.3962 40.965 52.2895 40.6492Z" fill="white"/>
<defs>
<filter id="filter0_b_97_1018" x="19" y="18" width="49" height="49" filterUnits="userSpaceOnUse" color-interpolation-filters="sRGB">
<feFlood flood-opacity="0" result="BackgroundImageFix"/>
<feGaussianBlur in="BackgroundImage" stdDeviation="2.5"/>
<feComposite in2="SourceAlpha" operator="in" result="effect1_backgroundBlur_97_1018"/>
<feBlend mode="normal" in="SourceGraphic" in2="effect1_backgroundBlur_97_1018" result="shape"/>
</filter>
<linearGradient id="paint0_linear_97_1018" x1="45.2564" y1="11.5347" x2="84.8284" y2="44.1545" gradientUnits="userSpaceOnUse">
<stop stop-color="#00FFA3" stop-opacity="0.6"/>
<stop offset="1" stop-color="#4B48F1"/>
</linearGradient>
<linearGradient id="paint1_linear_97_1018" x1="45.2564" y1="11.5347" x2="84.8284" y2="44.1545" gradientUnits="userSpaceOnUse">
<stop stop-color="#00FFA3" stop-opacity="0.6"/>
<stop offset="1" stop-color="#4B48F1"/>
</linearGradient>
<linearGradient id="paint2_linear_97_1018" x1="43.5" y1="23" x2="43.5" y2="62" gradientUnits="userSpaceOnUse">
<stop stop-color="white" stop-opacity="0.46"/>
<stop offset="1" stop-color="white" stop-opacity="0"/>
</linearGradient>
</defs>
</svg>
