<svg width="53" height="54" viewBox="0 0 53 54" fill="none" xmlns="http://www.w3.org/2000/svg">
<path d="M16.07 23.0112L26.2737 12.7103L36.4816 23.0196L42.4154 17.0226L26.2737 0.716187L10.132 17.0184L16.07 23.0112Z" fill="#F3BA2F"/>
<path d="M0 27.2472L5.93579 21.2523L11.8716 27.2472L5.93579 33.242L0 27.2472Z" fill="#F3BA2F"/>
<path d="M16.0694 31.481L26.2731 41.7862L36.481 31.4768L42.4191 37.4655L42.4149 37.4697L26.2731 53.7761L10.1313 37.478L10.123 37.4697L16.0694 31.481Z" fill="#F3BA2F"/>
<path d="M40.6644 27.2485L46.6003 21.2537L52.5361 27.2485L46.6003 33.2434L40.6644 27.2485Z" fill="#F3BA2F"/>
<path d="M32.2941 27.2439L26.2731 21.1588L21.8207 25.6556L21.3062 26.171L20.2522 27.2355L20.2439 27.2439L20.2522 27.2564L26.2731 33.3331L32.2941 27.2481L32.2982 27.2439H32.2941Z" fill="#F3BA2F"/>
</svg>
