<svg width="126" height="116" viewBox="0 0 126 116" fill="none" xmlns="http://www.w3.org/2000/svg">
<path fill-rule="evenodd" clip-rule="evenodd" d="M74.8012 3.56241C74.1453 2.42646 72.6928 2.03726 71.5569 2.6931L55.6533 11.8749H42.125C39.5017 11.8749 37.375 14.0015 37.375 16.6249V49.8749C37.375 52.4984 39.5017 54.6249 42.125 54.6249H84.875C87.4984 54.6249 89.625 52.4983 89.625 49.8749V16.6249C89.625 14.0016 87.4984 11.8749 84.875 11.8749H79.6004L74.8012 3.56241ZM68.25 33.2499C68.25 28.5513 72.2151 24.9374 76.8594 24.9374H84.875V41.5624H76.8594C72.2151 41.5624 68.25 37.9486 68.25 33.2499Z" fill="#C4C4C4"/>
<path fill-rule="evenodd" clip-rule="evenodd" d="M74.8012 3.56241C74.1453 2.42646 72.6928 2.03726 71.5569 2.6931L55.6533 11.8749H42.125C39.5017 11.8749 37.375 14.0015 37.375 16.6249V49.8749C37.375 52.4984 39.5017 54.6249 42.125 54.6249H84.875C87.4984 54.6249 89.625 52.4983 89.625 49.8749V16.6249C89.625 14.0016 87.4984 11.8749 84.875 11.8749H79.6004L74.8012 3.56241ZM68.25 33.2499C68.25 28.5513 72.2151 24.9374 76.8594 24.9374H84.875V41.5624H76.8594C72.2151 41.5624 68.25 37.9486 68.25 33.2499Z" fill="url(#paint0_linear_97_875)"/>
<g filter="url(#filter0_b_97_875)">
<circle cx="43.5" cy="40.5" r="19.5" fill="white" fill-opacity="0.1"/>
<circle cx="43.5" cy="40.5" r="19.35" stroke="url(#paint1_linear_97_875)" stroke-width="0.3"/>
</g>
<path d="M52.2895 38.6492C52.2371 38.4949 52.1407 38.3593 52.0122 38.2592C51.8836 38.1591 51.7286 38.0988 51.5662 38.0858L46.8153 37.7083L44.7595 33.1575C44.694 33.0109 44.5875 32.8864 44.4529 32.7991C44.3182 32.7117 44.1611 32.6651 44.0006 32.665C43.8401 32.665 43.683 32.7113 43.5482 32.7986C43.4134 32.8858 43.3068 33.0102 43.2412 33.1567L41.1853 37.7083L36.4345 38.0858C36.2749 38.0985 36.1223 38.1569 35.995 38.254C35.8677 38.3511 35.771 38.4828 35.7166 38.6334C35.6622 38.784 35.6523 38.947 35.6881 39.1031C35.724 39.2592 35.804 39.4016 35.9187 39.5133L39.4295 42.9358L38.1878 48.3125C38.1501 48.4753 38.1622 48.6456 38.2225 48.8014C38.2828 48.9572 38.3886 49.0913 38.526 49.1862C38.6635 49.2812 38.8263 49.3326 38.9933 49.3339C39.1604 49.3352 39.324 49.2862 39.4628 49.1933L44.0003 46.1683L48.5378 49.1933C48.6798 49.2876 48.8472 49.3361 49.0175 49.3324C49.1879 49.3286 49.353 49.2728 49.4907 49.1724C49.6284 49.0721 49.732 48.9319 49.7877 48.7709C49.8433 48.6099 49.8483 48.4356 49.802 48.2717L48.2778 42.9383L52.0578 39.5367C52.3053 39.3133 52.3962 38.965 52.2895 38.6492Z" fill="white"/>
<path d="M16.4621 89V79.288H21.9421V89H23.8701V77.48H14.5341V89H16.4621ZM30.1922 80.12C29.2082 80.12 28.4082 80.432 27.8002 80.984V80.36H26.0962V92.84H28.0402V88.56C28.6242 88.992 29.3682 89.24 30.2642 89.24C32.6562 89.24 34.2082 87.272 34.2082 84.68C34.2082 82.056 32.6402 80.12 30.1922 80.12ZM29.9682 87.512C28.4162 87.512 27.8002 86.352 27.8002 84.68C27.8002 82.992 28.4322 81.848 29.9042 81.848C31.4562 81.848 32.1682 83.112 32.1682 84.68C32.1682 86.264 31.4722 87.512 29.9682 87.512ZM39.7876 89.24C42.3716 89.24 44.0996 87.376 44.0996 84.68C44.0996 82.008 42.3956 80.12 39.7876 80.12C37.2356 80.12 35.4916 81.968 35.4916 84.68C35.4916 87.352 37.1876 89.24 39.7876 89.24ZM39.7876 87.432C38.2996 87.432 37.5316 86.36 37.5316 84.68C37.5316 83.048 38.2356 81.928 39.7876 81.928C41.2996 81.928 42.0596 83.008 42.0596 84.68C42.0596 86.304 41.3156 87.432 39.7876 87.432ZM51.1889 84.464C51.6689 83.928 51.8769 83.352 51.8769 82.696C51.8769 81 50.3729 80.12 48.7089 80.12C47.3729 80.12 46.1569 80.656 45.2049 81.504L46.2929 82.816C46.9329 82.32 47.7809 81.912 48.6129 81.912C49.3009 81.912 49.8929 82.184 49.8929 82.872C49.8929 83.648 49.1569 83.784 48.1809 83.784H47.5489V85.312H48.1889C49.2289 85.312 50.1809 85.32 50.1809 86.256C50.1809 86.976 49.5889 87.432 48.6209 87.432C47.6929 87.432 46.9409 87.016 46.3249 86.28L44.8049 87.296C45.5809 88.512 47.0049 89.24 48.6529 89.24C50.5489 89.24 52.1489 88.256 52.1489 86.448C52.1489 85.624 51.8049 84.896 51.1889 84.464ZM57.9891 80.12C57.0051 80.12 56.2051 80.432 55.5971 80.984V80.36H53.8931V92.84H55.8371V88.56C56.4211 88.992 57.1651 89.24 58.0611 89.24C60.4531 89.24 62.0051 87.272 62.0051 84.68C62.0051 82.056 60.4371 80.12 57.9891 80.12ZM57.7651 87.512C56.2131 87.512 55.5971 86.352 55.5971 84.68C55.5971 82.992 56.2291 81.848 57.7011 81.848C59.2531 81.848 59.9651 83.112 59.9651 84.68C59.9651 86.264 59.2691 87.512 57.7651 87.512ZM70.5764 81.728C70.0084 80.584 68.7844 80.12 67.2484 80.12C65.2164 80.12 64.0244 81.088 63.6004 82.544L65.3604 83.096C65.6484 82.216 66.4724 81.888 67.2484 81.888C68.4244 81.888 68.9444 82.352 69.0164 83.344C67.5044 83.568 66.1684 83.752 65.2564 84.048C63.8884 84.52 63.2884 85.376 63.2884 86.632C63.2884 88.056 64.3044 89.24 66.1844 89.24C67.5604 89.24 68.4804 88.8 69.2164 87.84V89H70.9044V83.696C70.9044 82.952 70.8804 82.336 70.5764 81.728ZM68.8004 86.272C68.6084 86.872 67.8804 87.704 66.5684 87.704C65.6564 87.704 65.1764 87.24 65.1764 86.608C65.1764 86.048 65.5604 85.72 66.2244 85.472C66.8324 85.264 67.6164 85.144 68.9924 84.928C68.9844 85.328 68.9604 85.88 68.8004 86.272ZM79.9552 89V80.36H78.0192V84.344C77.6112 84.656 77.0272 84.88 76.2592 84.88C75.2672 84.88 74.7632 84.504 74.5632 83.648C74.4592 83.208 74.4592 82.704 74.4592 82.456V80.36H72.5072V82.456C72.5072 82.76 72.5072 83.576 72.6432 84.232C72.9472 85.752 74.0192 86.576 75.8032 86.576C76.6352 86.576 77.4192 86.4 78.0192 86.096V89H79.9552ZM84.1023 89V85.576H87.9823V89H89.9103V80.36H87.9823V83.768H84.1023V80.36H82.1743V89H84.1023ZM95.0474 89C95.5274 89 96.2314 88.984 96.6474 88.888C98.0714 88.56 98.8954 87.656 98.8954 86.128C98.8954 84.528 98.0474 83.648 96.5914 83.328C96.1834 83.256 95.5034 83.24 95.0234 83.24H94.0554V80.36H92.1274L92.1354 89H95.0474ZM101.727 80.36H99.7994V89H101.727V80.36ZM94.0554 84.752H95.2154C95.4314 84.752 95.7114 84.768 95.9674 84.832C96.5034 84.968 96.9354 85.432 96.9354 86.128C96.9354 86.8 96.4954 87.264 96.0154 87.4C95.7514 87.472 95.4474 87.488 95.2154 87.488H94.0554V84.752ZM107.964 79.384C109.308 79.384 110.388 78.304 110.388 76.96H108.884C108.884 77.472 108.476 77.88 107.964 77.88C107.452 77.88 107.044 77.472 107.044 76.96H105.54C105.54 78.304 106.62 79.384 107.964 79.384ZM109.932 80.36L105.804 85.856V80.36H103.956V89H105.5L109.612 83.36V89H111.46V80.36H109.932ZM46.9046 103.728C46.3366 102.584 45.1126 102.12 43.5766 102.12C41.5446 102.12 40.3526 103.088 39.9286 104.544L41.6886 105.096C41.9766 104.216 42.8006 103.888 43.5766 103.888C44.7526 103.888 45.2726 104.352 45.3446 105.344C43.8326 105.568 42.4966 105.752 41.5846 106.048C40.2166 106.52 39.6166 107.376 39.6166 108.632C39.6166 110.056 40.6326 111.24 42.5126 111.24C43.8886 111.24 44.8086 110.8 45.5446 109.84V111H47.2326V105.696C47.2326 104.952 47.2086 104.336 46.9046 103.728ZM45.1286 108.272C44.9366 108.872 44.2086 109.704 42.8966 109.704C41.9846 109.704 41.5046 109.24 41.5046 108.608C41.5046 108.048 41.8886 107.72 42.5526 107.472C43.1606 107.264 43.9446 107.144 45.3206 106.928C45.3126 107.328 45.2886 107.88 45.1286 108.272ZM50.4913 112.92V111H56.0273V112.92H57.8513V109.488H56.9793V102.36H50.5473C50.4593 104.304 50.3633 105.936 50.1473 107.344C49.9153 108.928 49.6033 109.488 48.6753 109.488V112.92H50.4913ZM51.2593 109.488C51.6753 109.064 51.8113 108.536 51.9233 107.632C52.0673 106.608 52.1713 105.152 52.2353 103.872H55.0593V109.488H51.2593ZM63.5359 102.12C62.5519 102.12 61.7519 102.432 61.1439 102.984V102.36H59.4399V114.84H61.3839V110.56C61.9679 110.992 62.7119 111.24 63.6079 111.24C65.9999 111.24 67.5519 109.272 67.5519 106.68C67.5519 104.056 65.9839 102.12 63.5359 102.12ZM63.3119 109.512C61.7599 109.512 61.1439 108.352 61.1439 106.68C61.1439 104.992 61.7759 103.848 63.2479 103.848C64.7999 103.848 65.5119 105.112 65.5119 106.68C65.5119 108.264 64.8159 109.512 63.3119 109.512ZM77.1553 107.216C77.3793 104.104 75.8113 102.12 73.1313 102.12C70.5873 102.12 68.8353 103.944 68.8353 106.776C68.8353 109.4 70.6193 111.24 73.2433 111.24C74.9073 111.24 76.3953 110.344 77.0593 108.776L75.1553 108.2C74.7793 109 74.0753 109.432 73.1313 109.432C71.8193 109.432 71.0513 108.64 70.8993 107.216H77.1553ZM73.2113 103.808C74.4033 103.808 75.0353 104.408 75.1953 105.76H70.9473C71.1713 104.48 71.9153 103.808 73.2113 103.808ZM82.6923 111.24C84.6203 111.24 86.0043 110.264 86.5403 108.504L84.5723 108.064C84.2763 108.952 83.7163 109.432 82.6923 109.432C81.2443 109.432 80.5083 108.328 80.5003 106.68C80.5083 105.096 81.1803 103.928 82.6923 103.928C83.5723 103.928 84.3243 104.472 84.6203 105.4L86.5403 104.88C86.1323 103.176 84.6763 102.12 82.7163 102.12C80.0923 102.12 78.4683 104.032 78.4603 106.68C78.4683 109.288 80.0203 111.24 82.6923 111.24Z" fill="white"/>
<defs>
<filter id="filter0_b_97_875" x="19" y="16" width="49" height="49" filterUnits="userSpaceOnUse" color-interpolation-filters="sRGB">
<feFlood flood-opacity="0" result="BackgroundImageFix"/>
<feGaussianBlur in="BackgroundImage" stdDeviation="2.5"/>
<feComposite in2="SourceAlpha" operator="in" result="effect1_backgroundBlur_97_875"/>
<feBlend mode="normal" in="SourceGraphic" in2="effect1_backgroundBlur_97_875" result="shape"/>
</filter>
<linearGradient id="paint0_linear_97_875" x1="44.532" y1="11.3306" x2="83.8371" y2="47.7804" gradientUnits="userSpaceOnUse">
<stop stop-color="#00FFA3" stop-opacity="0.6"/>
<stop offset="1" stop-color="#4B48F1"/>
</linearGradient>
<linearGradient id="paint1_linear_97_875" x1="43.5" y1="21" x2="43.5" y2="60" gradientUnits="userSpaceOnUse">
<stop stop-color="white" stop-opacity="0.46"/>
<stop offset="1" stop-color="white" stop-opacity="0"/>
</linearGradient>
</defs>
</svg>
