<svg width="34" height="33" viewBox="0 0 34 33" fill="none" xmlns="http://www.w3.org/2000/svg">
<path fill-rule="evenodd" clip-rule="evenodd" d="M19 1.25C18.3449 1.25 17.7202 1.3948 17.159 1.65538C15.7871 2.2924 14.7979 3.62226 14.6455 5.19878C10.2414 6.93553 7.125 11.2288 7.125 16.25C7.125 17.2392 7.24594 18.2001 7.47385 19.1188C6.49871 19.9203 5.875 21.1365 5.875 22.5C5.875 24.9162 7.83375 26.875 10.25 26.875C11.0933 26.875 11.8817 26.6356 12.5498 26.2222C14.4071 27.426 16.6219 28.125 19 28.125C21.378 28.125 23.5927 27.426 25.45 26.2223C26.1182 26.6361 26.9062 26.875 27.75 26.875C28.9922 26.875 30.1153 26.3557 30.9101 25.5256C31.6614 24.741 32.125 23.6734 32.125 22.5C32.125 21.1378 31.5024 19.9209 30.5262 19.1185C30.7541 18.1999 30.875 17.2391 30.875 16.25C30.875 11.2288 27.7586 6.93553 23.3545 5.19879C23.1402 2.98255 21.2724 1.25 19 1.25ZM15.1477 7.70051C15.8869 9.06971 17.3348 10 19 10C20.2422 10 21.3653 9.48066 22.1601 8.65059C22.4309 8.36785 22.6643 8.04836 22.852 7.70039C26.1085 9.1699 28.375 12.4453 28.375 16.25C28.375 16.8996 28.3089 17.5338 28.1831 18.1462C28.0407 18.1322 27.8962 18.125 27.75 18.125C27.095 18.125 26.4702 18.2698 25.909 18.5304C24.4151 19.2241 23.375 20.7393 23.375 22.5C23.375 23.1501 23.5168 23.7671 23.7712 24.3218C22.3735 25.1497 20.7423 25.625 19 25.625C17.2576 25.625 15.6263 25.1497 14.2285 24.3216C14.4829 23.7669 14.625 23.1497 14.625 22.5C14.625 20.0838 12.6662 18.125 10.25 18.125C10.104 18.125 9.9595 18.1322 9.81688 18.1463C9.69108 17.5338 9.625 16.8996 9.625 16.25C9.625 12.4454 11.8914 9.17007 15.1477 7.70051Z" fill="#C4C4C4"/>
<path fill-rule="evenodd" clip-rule="evenodd" d="M19 1.25C18.3449 1.25 17.7202 1.3948 17.159 1.65538C15.7871 2.2924 14.7979 3.62226 14.6455 5.19878C10.2414 6.93553 7.125 11.2288 7.125 16.25C7.125 17.2392 7.24594 18.2001 7.47385 19.1188C6.49871 19.9203 5.875 21.1365 5.875 22.5C5.875 24.9162 7.83375 26.875 10.25 26.875C11.0933 26.875 11.8817 26.6356 12.5498 26.2222C14.4071 27.426 16.6219 28.125 19 28.125C21.378 28.125 23.5927 27.426 25.45 26.2223C26.1182 26.6361 26.9062 26.875 27.75 26.875C28.9922 26.875 30.1153 26.3557 30.9101 25.5256C31.6614 24.741 32.125 23.6734 32.125 22.5C32.125 21.1378 31.5024 19.9209 30.5262 19.1185C30.7541 18.1999 30.875 17.2391 30.875 16.25C30.875 11.2288 27.7586 6.93553 23.3545 5.19879C23.1402 2.98255 21.2724 1.25 19 1.25ZM15.1477 7.70051C15.8869 9.06971 17.3348 10 19 10C20.2422 10 21.3653 9.48066 22.1601 8.65059C22.4309 8.36785 22.6643 8.04836 22.852 7.70039C26.1085 9.1699 28.375 12.4453 28.375 16.25C28.375 16.8996 28.3089 17.5338 28.1831 18.1462C28.0407 18.1322 27.8962 18.125 27.75 18.125C27.095 18.125 26.4702 18.2698 25.909 18.5304C24.4151 19.2241 23.375 20.7393 23.375 22.5C23.375 23.1501 23.5168 23.7671 23.7712 24.3218C22.3735 25.1497 20.7423 25.625 19 25.625C17.2576 25.625 15.6263 25.1497 14.2285 24.3216C14.4829 23.7669 14.625 23.1497 14.625 22.5C14.625 20.0838 12.6662 18.125 10.25 18.125C10.104 18.125 9.9595 18.1322 9.81688 18.1463C9.69108 17.5338 9.625 16.8996 9.625 16.25C9.625 12.4454 11.8914 9.17007 15.1477 7.70051Z" fill="url(#paint0_linear_222_40767)"/>
<g filter="url(#filter0_b_222_40767)">
<ellipse cx="7.5" cy="25.5" rx="7.5" ry="7.5" fill="white" fill-opacity="0.1"/>
<path d="M14.85 25.5C14.85 29.5593 11.5593 32.85 7.5 32.85C3.44071 32.85 0.15 29.5593 0.15 25.5C0.15 21.4407 3.44071 18.15 7.5 18.15C11.5593 18.15 14.85 21.4407 14.85 25.5Z" stroke="url(#paint1_linear_222_40767)" stroke-width="0.3"/>
</g>
<path d="M10.6237 24.5324C10.6036 24.473 10.5665 24.4209 10.5171 24.3824C10.4676 24.3439 10.408 24.3207 10.3455 24.3157L8.5183 24.1705L7.72759 22.4202C7.70241 22.3638 7.66145 22.3159 7.60966 22.2823C7.55787 22.2487 7.49745 22.2308 7.43571 22.2308C7.37397 22.2307 7.31353 22.2486 7.2617 22.2821C7.20987 22.3157 7.16886 22.3635 7.14362 22.4199L6.35291 24.1705L4.52567 24.3157C4.46428 24.3206 4.40559 24.343 4.35662 24.3804C4.30765 24.4177 4.27047 24.4684 4.24955 24.5263C4.22862 24.5842 4.22482 24.6469 4.2386 24.707C4.25238 24.767 4.28317 24.8218 4.32727 24.8647L5.67759 26.1811L5.20003 28.249C5.18553 28.3116 5.19018 28.3771 5.21337 28.4371C5.23656 28.497 5.27723 28.5485 5.33009 28.5851C5.38296 28.6216 5.44558 28.6414 5.50983 28.6419C5.57408 28.6424 5.637 28.6235 5.69041 28.5878L7.43561 27.4244L9.1808 28.5878C9.23539 28.6241 9.29978 28.6427 9.3653 28.6413C9.43081 28.6398 9.49432 28.6184 9.54727 28.5798C9.60022 28.5412 9.64009 28.4873 9.66149 28.4253C9.6829 28.3634 9.68483 28.2964 9.66702 28.2333L9.0808 26.182L10.5346 24.8737C10.6298 24.7878 10.6648 24.6538 10.6237 24.5324Z" fill="white"/>
<defs>
<filter id="filter0_b_222_40767" x="-5" y="13" width="25" height="25" filterUnits="userSpaceOnUse" color-interpolation-filters="sRGB">
<feFlood flood-opacity="0" result="BackgroundImageFix"/>
<feGaussianBlur in="BackgroundImage" stdDeviation="2.5"/>
<feComposite in2="SourceAlpha" operator="in" result="effect1_backgroundBlur_222_40767"/>
<feBlend mode="normal" in="SourceGraphic" in2="effect1_backgroundBlur_222_40767" result="shape"/>
</filter>
<linearGradient id="paint0_linear_222_40767" x1="9.47062" y1="5.85657" x2="29.6459" y2="24.1313" gradientUnits="userSpaceOnUse">
<stop stop-color="#00FFA3" stop-opacity="0.6"/>
<stop offset="1" stop-color="#4B48F1"/>
</linearGradient>
<linearGradient id="paint1_linear_222_40767" x1="7.5" y1="18" x2="7.5" y2="33" gradientUnits="userSpaceOnUse">
<stop stop-color="white" stop-opacity="0.46"/>
<stop offset="1" stop-color="white" stop-opacity="0"/>
</linearGradient>
</defs>
</svg>
