<svg width="34" height="35" viewBox="0 0 34 35" fill="none" xmlns="http://www.w3.org/2000/svg">
<path fill-rule="evenodd" clip-rule="evenodd" d="M5.24981 27.5C5.24981 26.8096 5.80945 26.25 6.49981 26.25H31.4998C32.1902 26.25 32.7498 26.8096 32.7498 27.5C32.7498 28.1904 32.1902 28.75 31.4998 28.75H6.49981C5.80945 28.75 5.24981 28.1904 5.24981 27.5Z" fill="#C4C4C4"/>
<path fill-rule="evenodd" clip-rule="evenodd" d="M5.24981 27.5C5.24981 26.8096 5.80945 26.25 6.49981 26.25H31.4998C32.1902 26.25 32.7498 26.8096 32.7498 27.5C32.7498 28.1904 32.1902 28.75 31.4998 28.75H6.49981C5.80945 28.75 5.24981 28.1904 5.24981 27.5Z" fill="url(#paint0_linear_222_40783)"/>
<path d="M32.7498 7.5C32.7498 7.06678 32.5255 6.66444 32.157 6.43669C31.7884 6.20893 31.3283 6.18822 30.9408 6.38197L25.9408 8.88197C25.5173 9.09371 25.2498 9.52654 25.2498 10V23.75C25.2498 24.4404 25.8095 25 26.4998 25H31.4998C32.1902 25 32.7498 24.4404 32.7498 23.75V7.5Z" fill="#C4C4C4"/>
<path d="M32.7498 7.5C32.7498 7.06678 32.5255 6.66444 32.157 6.43669C31.7884 6.20893 31.3283 6.18822 30.9408 6.38197L25.9408 8.88197C25.5173 9.09371 25.2498 9.52654 25.2498 10V23.75C25.2498 24.4404 25.8095 25 26.4998 25H31.4998C32.1902 25 32.7498 24.4404 32.7498 23.75V7.5Z" fill="url(#paint1_linear_222_40783)"/>
<path d="M22.7498 12.5C22.7498 12.0668 22.5255 11.6644 22.157 11.4367C21.7885 11.2089 21.3283 11.1882 20.9408 11.382L15.9408 13.882C15.5173 14.0937 15.2498 14.5265 15.2498 15V23.75C15.2498 24.4404 15.8095 25 16.4998 25H21.4998C22.1902 25 22.7498 24.4404 22.7498 23.75V12.5Z" fill="#C4C4C4"/>
<path d="M22.7498 12.5C22.7498 12.0668 22.5255 11.6644 22.157 11.4367C21.7885 11.2089 21.3283 11.1882 20.9408 11.382L15.9408 13.882C15.5173 14.0937 15.2498 14.5265 15.2498 15V23.75C15.2498 24.4404 15.8095 25 16.4998 25H21.4998C22.1902 25 22.7498 24.4404 22.7498 23.75V12.5Z" fill="url(#paint2_linear_222_40783)"/>
<path d="M6.80298 15.0373C6.42955 14.944 6.03394 15.0279 5.73054 15.2647C5.42715 15.5016 5.24981 15.8651 5.24981 16.25V23.75C5.24981 24.4404 5.80945 25 6.49981 25H11.4998C12.1902 25 12.7498 24.4404 12.7498 23.75V17.5C12.7498 16.9264 12.3594 16.4264 11.803 16.2873L6.80298 15.0373Z" fill="#C4C4C4"/>
<path d="M6.80298 15.0373C6.42955 14.944 6.03394 15.0279 5.73054 15.2647C5.42715 15.5016 5.24981 15.8651 5.24981 16.25V23.75C5.24981 24.4404 5.80945 25 6.49981 25H11.4998C12.1902 25 12.7498 24.4404 12.7498 23.75V17.5C12.7498 16.9264 12.3594 16.4264 11.803 16.2873L6.80298 15.0373Z" fill="url(#paint3_linear_222_40783)"/>
<path fill-rule="evenodd" clip-rule="evenodd" d="M23.9998 2.5C23.9998 1.80964 24.5594 1.25 25.2498 1.25H31.4998C32.0795 1.25 32.5832 1.6486 32.7164 2.21281C32.8496 2.77702 32.5773 3.35877 32.0588 3.61803L12.0588 13.618C11.7919 13.7515 11.4861 13.785 11.1966 13.7127L6.19664 12.4627C5.52689 12.2952 5.11969 11.6166 5.28713 10.9468C5.45457 10.2771 6.13323 9.86989 6.80298 10.0373L11.3544 11.1752L26.2047 3.75H25.2498C24.5594 3.75 23.9998 3.19036 23.9998 2.5Z" fill="#C4C4C4"/>
<path fill-rule="evenodd" clip-rule="evenodd" d="M23.9998 2.5C23.9998 1.80964 24.5594 1.25 25.2498 1.25H31.4998C32.0795 1.25 32.5832 1.6486 32.7164 2.21281C32.8496 2.77702 32.5773 3.35877 32.0588 3.61803L12.0588 13.618C11.7919 13.7515 11.4861 13.785 11.1966 13.7127L6.19664 12.4627C5.52689 12.2952 5.11969 11.6166 5.28713 10.9468C5.45457 10.2771 6.13323 9.86989 6.80298 10.0373L11.3544 11.1752L26.2047 3.75H25.2498C24.5594 3.75 23.9998 3.19036 23.9998 2.5Z" fill="url(#paint4_linear_222_40783)"/>
<g filter="url(#filter0_b_222_40783)">
<ellipse cx="7.5" cy="27.5" rx="7.5" ry="7.5" fill="white" fill-opacity="0.1"/>
<path d="M14.85 27.5C14.85 31.5593 11.5593 34.85 7.5 34.85C3.44071 34.85 0.15 31.5593 0.15 27.5C0.15 23.4407 3.44071 20.15 7.5 20.15C11.5593 20.15 14.85 23.4407 14.85 27.5Z" stroke="url(#paint5_linear_222_40783)" stroke-width="0.3"/>
</g>
<path d="M10.6237 26.5324C10.6036 26.473 10.5665 26.4209 10.5171 26.3824C10.4676 26.3439 10.408 26.3207 10.3455 26.3157L8.5183 26.1705L7.72759 24.4202C7.70241 24.3638 7.66145 24.3159 7.60966 24.2823C7.55787 24.2487 7.49745 24.2308 7.43571 24.2308C7.37397 24.2307 7.31353 24.2486 7.2617 24.2821C7.20987 24.3157 7.16886 24.3635 7.14362 24.4199L6.35291 26.1705L4.52567 26.3157C4.46428 26.3206 4.40559 26.343 4.35662 26.3804C4.30765 26.4177 4.27047 26.4684 4.24955 26.5263C4.22862 26.5842 4.22482 26.6469 4.2386 26.707C4.25238 26.767 4.28317 26.8218 4.32727 26.8647L5.67759 28.1811L5.20003 30.249C5.18553 30.3116 5.19018 30.3771 5.21337 30.4371C5.23656 30.497 5.27723 30.5485 5.33009 30.5851C5.38296 30.6216 5.44558 30.6414 5.50983 30.6419C5.57408 30.6424 5.637 30.6235 5.69041 30.5878L7.43561 29.4244L9.1808 30.5878C9.23539 30.6241 9.29978 30.6427 9.3653 30.6413C9.43081 30.6398 9.49432 30.6184 9.54727 30.5798C9.60022 30.5412 9.64009 30.4873 9.66149 30.4253C9.6829 30.3634 9.68483 30.2964 9.66702 30.2333L9.0808 28.182L10.5346 26.8737C10.6298 26.7878 10.6648 26.6538 10.6237 26.5324Z" fill="white"/>
<defs>
<filter id="filter0_b_222_40783" x="-5" y="15" width="25" height="25" filterUnits="userSpaceOnUse" color-interpolation-filters="sRGB">
<feFlood flood-opacity="0" result="BackgroundImageFix"/>
<feGaussianBlur in="BackgroundImage" stdDeviation="2.5"/>
<feComposite in2="SourceAlpha" operator="in" result="effect1_backgroundBlur_222_40783"/>
<feBlend mode="normal" in="SourceGraphic" in2="effect1_backgroundBlur_222_40783" result="shape"/>
</filter>
<linearGradient id="paint0_linear_222_40783" x1="9.01641" y1="5.9637" x2="29.7032" y2="25.1481" gradientUnits="userSpaceOnUse">
<stop stop-color="#00FFA3" stop-opacity="0.6"/>
<stop offset="1" stop-color="#4B48F1"/>
</linearGradient>
<linearGradient id="paint1_linear_222_40783" x1="9.01641" y1="5.9637" x2="29.7032" y2="25.1481" gradientUnits="userSpaceOnUse">
<stop stop-color="#00FFA3" stop-opacity="0.6"/>
<stop offset="1" stop-color="#4B48F1"/>
</linearGradient>
<linearGradient id="paint2_linear_222_40783" x1="9.01641" y1="5.9637" x2="29.7032" y2="25.1481" gradientUnits="userSpaceOnUse">
<stop stop-color="#00FFA3" stop-opacity="0.6"/>
<stop offset="1" stop-color="#4B48F1"/>
</linearGradient>
<linearGradient id="paint3_linear_222_40783" x1="9.01641" y1="5.9637" x2="29.7032" y2="25.1481" gradientUnits="userSpaceOnUse">
<stop stop-color="#00FFA3" stop-opacity="0.6"/>
<stop offset="1" stop-color="#4B48F1"/>
</linearGradient>
<linearGradient id="paint4_linear_222_40783" x1="9.01641" y1="5.9637" x2="29.7032" y2="25.1481" gradientUnits="userSpaceOnUse">
<stop stop-color="#00FFA3" stop-opacity="0.6"/>
<stop offset="1" stop-color="#4B48F1"/>
</linearGradient>
<linearGradient id="paint5_linear_222_40783" x1="7.5" y1="20" x2="7.5" y2="35" gradientUnits="userSpaceOnUse">
<stop stop-color="white" stop-opacity="0.46"/>
<stop offset="1" stop-color="white" stop-opacity="0"/>
</linearGradient>
</defs>
</svg>
