<svg width="33" height="37" viewBox="0 0 33 37" fill="none" xmlns="http://www.w3.org/2000/svg">
<path fill-rule="evenodd" clip-rule="evenodd" d="M10.5 8.75V12.5H8C6.61929 12.5 5.5 13.6193 5.5 15V26.25C5.5 27.6307 6.61929 28.75 8 28.75H28C29.3807 28.75 30.5 27.6307 30.5 26.25V15C30.5 13.6193 29.3807 12.5 28 12.5H25.5V8.75C25.5 4.60786 22.1421 1.25 18 1.25C13.8579 1.25 10.5 4.60786 10.5 8.75ZM18 3.75C15.2386 3.75 13 5.98858 13 8.75V12.5H23V8.75C23 5.98858 20.7614 3.75 18 3.75ZM19.25 18.75C19.25 18.0596 18.6904 17.5 18 17.5C17.3096 17.5 16.75 18.0596 16.75 18.75V22.5C16.75 23.1904 17.3096 23.75 18 23.75C18.6904 23.75 19.25 23.1904 19.25 22.5V18.75Z" fill="#C4C4C4"/>
<path fill-rule="evenodd" clip-rule="evenodd" d="M10.5 8.75V12.5H8C6.61929 12.5 5.5 13.6193 5.5 15V26.25C5.5 27.6307 6.61929 28.75 8 28.75H28C29.3807 28.75 30.5 27.6307 30.5 26.25V15C30.5 13.6193 29.3807 12.5 28 12.5H25.5V8.75C25.5 4.60786 22.1421 1.25 18 1.25C13.8579 1.25 10.5 4.60786 10.5 8.75ZM18 3.75C15.2386 3.75 13 5.98858 13 8.75V12.5H23V8.75C23 5.98858 20.7614 3.75 18 3.75ZM19.25 18.75C19.25 18.0596 18.6904 17.5 18 17.5C17.3096 17.5 16.75 18.0596 16.75 18.75V22.5C16.75 23.1904 17.3096 23.75 18 23.75C18.6904 23.75 19.25 23.1904 19.25 22.5V18.75Z" fill="url(#paint0_linear_222_40791)"/>
<g filter="url(#filter0_b_222_40791)">
<ellipse cx="7.5" cy="29.5" rx="7.5" ry="7.5" fill="white" fill-opacity="0.1"/>
<path d="M14.85 29.5C14.85 33.5593 11.5593 36.85 7.5 36.85C3.44071 36.85 0.15 33.5593 0.15 29.5C0.15 25.4407 3.44071 22.15 7.5 22.15C11.5593 22.15 14.85 25.4407 14.85 29.5Z" stroke="url(#paint1_linear_222_40791)" stroke-width="0.3"/>
</g>
<path d="M10.6237 28.5324C10.6036 28.4731 10.5665 28.4209 10.5171 28.3824C10.4676 28.3439 10.408 28.3208 10.3455 28.3158L8.5183 28.1706L7.72759 26.4202C7.70241 26.3639 7.66145 26.316 7.60966 26.2824C7.55787 26.2488 7.49745 26.2309 7.43571 26.2308C7.37397 26.2308 7.31353 26.2486 7.2617 26.2822C7.20987 26.3157 7.16886 26.3636 7.14362 26.4199L6.35291 28.1706L4.52567 28.3158C4.46428 28.3206 4.40559 28.3431 4.35662 28.3804C4.30765 28.4178 4.27047 28.4684 4.24955 28.5263C4.22862 28.5843 4.22482 28.647 4.2386 28.707C4.25238 28.767 4.28317 28.8218 4.32727 28.8648L5.67759 30.1811L5.20003 32.2491C5.18553 32.3117 5.19018 32.3772 5.21337 32.4371C5.23656 32.497 5.27723 32.5486 5.33009 32.5851C5.38296 32.6217 5.44558 32.6414 5.50983 32.6419C5.57408 32.6424 5.637 32.6236 5.69041 32.5879L7.43561 31.4244L9.1808 32.5879C9.23539 32.6241 9.29978 32.6428 9.3653 32.6413C9.43081 32.6399 9.49432 32.6184 9.54727 32.5798C9.60022 32.5412 9.64009 32.4873 9.66149 32.4254C9.6829 32.3635 9.68483 32.2965 9.66702 32.2334L9.0808 30.1821L10.5346 28.8738C10.6298 28.7879 10.6648 28.6539 10.6237 28.5324Z" fill="white"/>
<defs>
<filter id="filter0_b_222_40791" x="-5" y="17" width="25" height="25" filterUnits="userSpaceOnUse" color-interpolation-filters="sRGB">
<feFlood flood-opacity="0" result="BackgroundImageFix"/>
<feGaussianBlur in="BackgroundImage" stdDeviation="2.5"/>
<feComposite in2="SourceAlpha" operator="in" result="effect1_backgroundBlur_222_40791"/>
<feBlend mode="normal" in="SourceGraphic" in2="effect1_backgroundBlur_222_40791" result="shape"/>
</filter>
<linearGradient id="paint0_linear_222_40791" x1="8.9244" y1="5.9637" x2="29.3713" y2="23.2016" gradientUnits="userSpaceOnUse">
<stop stop-color="#00FFA3" stop-opacity="0.6"/>
<stop offset="1" stop-color="#4B48F1"/>
</linearGradient>
<linearGradient id="paint1_linear_222_40791" x1="7.5" y1="22" x2="7.5" y2="37" gradientUnits="userSpaceOnUse">
<stop stop-color="white" stop-opacity="0.46"/>
<stop offset="1" stop-color="white" stop-opacity="0"/>
</linearGradient>
</defs>
</svg>
