<svg width="35" height="37" viewBox="0 0 35 37" fill="none" xmlns="http://www.w3.org/2000/svg">
<path fill-rule="evenodd" clip-rule="evenodd" d="M13.125 1.25C11.4387 1.25 9.85188 1.55129 8.63985 2.08997C8.03542 2.35861 7.46889 2.71086 7.03655 3.16516C6.59808 3.62589 6.25 4.24809 6.25 5V12.5C6.25 13.2519 6.59808 13.8741 7.03655 14.3348C7.46889 14.7891 8.03541 15.1414 8.63985 15.41C9.85187 15.9487 11.4387 16.25 13.125 16.25C14.8113 16.25 16.3981 15.9487 17.6102 15.41C18.2146 15.1414 18.7811 14.7891 19.2135 14.3348C19.6519 13.8741 20 13.2519 20 12.5V5C20 4.2481 19.6519 3.6259 19.2135 3.16516C18.7811 2.71086 18.2146 2.35861 17.6102 2.08997C16.3981 1.55129 14.8113 1.25 13.125 1.25ZM8.75 7.95789C9.94723 8.46652 11.4893 8.75 13.125 8.75C14.7607 8.75 16.3028 8.46652 17.5 7.95789V8.73171C17.4917 8.75043 17.4671 8.79345 17.4025 8.86137C17.2655 9.00527 17.0083 9.19172 16.5948 9.37549C15.771 9.74164 14.5453 10 13.125 10C11.7047 10 10.479 9.74164 9.6552 9.37549C9.24171 9.19172 8.98448 9.00527 8.84753 8.86137C8.78289 8.79345 8.75832 8.75042 8.75 8.73171V7.95789ZM8.75 11.7079V12.4817C8.75832 12.5004 8.78289 12.5434 8.84753 12.6114C8.98448 12.7553 9.24171 12.9417 9.6552 13.1255C10.479 13.4916 11.7047 13.75 13.125 13.75C14.5453 13.75 15.771 13.4916 16.5948 13.1255C17.0083 12.9417 17.2655 12.7553 17.4025 12.6114C17.4671 12.5434 17.4917 12.5004 17.5 12.4817V11.7079C16.3028 12.2165 14.7607 12.5 13.125 12.5C11.4893 12.5 9.94723 12.2165 8.75 11.7079Z" fill="#C4C4C4"/>
<path fill-rule="evenodd" clip-rule="evenodd" d="M13.125 1.25C11.4387 1.25 9.85188 1.55129 8.63985 2.08997C8.03542 2.35861 7.46889 2.71086 7.03655 3.16516C6.59808 3.62589 6.25 4.24809 6.25 5V12.5C6.25 13.2519 6.59808 13.8741 7.03655 14.3348C7.46889 14.7891 8.03541 15.1414 8.63985 15.41C9.85187 15.9487 11.4387 16.25 13.125 16.25C14.8113 16.25 16.3981 15.9487 17.6102 15.41C18.2146 15.1414 18.7811 14.7891 19.2135 14.3348C19.6519 13.8741 20 13.2519 20 12.5V5C20 4.2481 19.6519 3.6259 19.2135 3.16516C18.7811 2.71086 18.2146 2.35861 17.6102 2.08997C16.3981 1.55129 14.8113 1.25 13.125 1.25ZM8.75 7.95789C9.94723 8.46652 11.4893 8.75 13.125 8.75C14.7607 8.75 16.3028 8.46652 17.5 7.95789V8.73171C17.4917 8.75043 17.4671 8.79345 17.4025 8.86137C17.2655 9.00527 17.0083 9.19172 16.5948 9.37549C15.771 9.74164 14.5453 10 13.125 10C11.7047 10 10.479 9.74164 9.6552 9.37549C9.24171 9.19172 8.98448 9.00527 8.84753 8.86137C8.78289 8.79345 8.75832 8.75042 8.75 8.73171V7.95789ZM8.75 11.7079V12.4817C8.75832 12.5004 8.78289 12.5434 8.84753 12.6114C8.98448 12.7553 9.24171 12.9417 9.6552 13.1255C10.479 13.4916 11.7047 13.75 13.125 13.75C14.5453 13.75 15.771 13.4916 16.5948 13.1255C17.0083 12.9417 17.2655 12.7553 17.4025 12.6114C17.4671 12.5434 17.4917 12.5004 17.5 12.4817V11.7079C16.3028 12.2165 14.7607 12.5 13.125 12.5C11.4893 12.5 9.94723 12.2165 8.75 11.7079Z" fill="url(#paint0_linear_222_40771)"/>
<path d="M23.75 3.75C23.75 3.05964 24.3096 2.5 25 2.5H28.75C30.821 2.5 32.5 4.17892 32.5 6.25V10C32.5 10.6904 31.9404 11.25 31.25 11.25C30.5596 11.25 30 10.6904 30 10V6.25C30 5.55965 29.4403 5 28.75 5H25C24.3096 5 23.75 4.44036 23.75 3.75Z" fill="#C4C4C4"/>
<path d="M23.75 3.75C23.75 3.05964 24.3096 2.5 25 2.5H28.75C30.821 2.5 32.5 4.17892 32.5 6.25V10C32.5 10.6904 31.9404 11.25 31.25 11.25C30.5596 11.25 30 10.6904 30 10V6.25C30 5.55965 29.4403 5 28.75 5H25C24.3096 5 23.75 4.44036 23.75 3.75Z" fill="url(#paint1_linear_222_40771)"/>
<path d="M10 20C10 19.3096 9.44036 18.75 8.75 18.75C8.05964 18.75 7.5 19.3096 7.5 20V23.75C7.5 25.821 9.17892 27.5 11.25 27.5H15C15.6904 27.5 16.25 26.9404 16.25 26.25C16.25 25.5596 15.6904 25 15 25H11.25C10.5597 25 10 24.4403 10 23.75V20Z" fill="#C4C4C4"/>
<path d="M10 20C10 19.3096 9.44036 18.75 8.75 18.75C8.05964 18.75 7.5 19.3096 7.5 20V23.75C7.5 25.821 9.17892 27.5 11.25 27.5H15C15.6904 27.5 16.25 26.9404 16.25 26.25C16.25 25.5596 15.6904 25 15 25H11.25C10.5597 25 10 24.4403 10 23.75V20Z" fill="url(#paint2_linear_222_40771)"/>
<path d="M25.625 25H21.25C20.5596 25 20 24.4404 20 23.75V16.25C20 15.5596 20.5596 15 21.25 15H32.5C33.1904 15 33.75 15.5596 33.75 16.25V23.75C33.75 24.4404 33.1904 25 32.5 25H28.125V26.25H30.625C31.3154 26.25 31.875 26.8096 31.875 27.5C31.875 28.1904 31.3154 28.75 30.625 28.75H23.125C22.4346 28.75 21.875 28.1904 21.875 27.5C21.875 26.8096 22.4346 26.25 23.125 26.25H25.625V25Z" fill="#C4C4C4"/>
<path d="M25.625 25H21.25C20.5596 25 20 24.4404 20 23.75V16.25C20 15.5596 20.5596 15 21.25 15H32.5C33.1904 15 33.75 15.5596 33.75 16.25V23.75C33.75 24.4404 33.1904 25 32.5 25H28.125V26.25H30.625C31.3154 26.25 31.875 26.8096 31.875 27.5C31.875 28.1904 31.3154 28.75 30.625 28.75H23.125C22.4346 28.75 21.875 28.1904 21.875 27.5C21.875 26.8096 22.4346 26.25 23.125 26.25H25.625V25Z" fill="url(#paint3_linear_222_40771)"/>
<g filter="url(#filter0_b_222_40771)">
<ellipse cx="7.5" cy="29.5" rx="7.5" ry="7.5" fill="white" fill-opacity="0.1"/>
<path d="M14.85 29.5C14.85 33.5593 11.5593 36.85 7.5 36.85C3.44071 36.85 0.15 33.5593 0.15 29.5C0.15 25.4407 3.44071 22.15 7.5 22.15C11.5593 22.15 14.85 25.4407 14.85 29.5Z" stroke="url(#paint4_linear_222_40771)" stroke-width="0.3"/>
</g>
<path d="M10.6237 28.5324C10.6036 28.4731 10.5665 28.4209 10.5171 28.3824C10.4676 28.3439 10.408 28.3208 10.3455 28.3158L8.5183 28.1706L7.72759 26.4202C7.70241 26.3639 7.66145 26.316 7.60966 26.2824C7.55787 26.2488 7.49745 26.2309 7.43571 26.2308C7.37397 26.2308 7.31353 26.2486 7.2617 26.2822C7.20987 26.3157 7.16886 26.3636 7.14362 26.4199L6.35291 28.1706L4.52567 28.3158C4.46428 28.3206 4.40559 28.3431 4.35662 28.3804C4.30765 28.4178 4.27047 28.4684 4.24955 28.5263C4.22862 28.5843 4.22482 28.647 4.2386 28.707C4.25238 28.767 4.28317 28.8218 4.32727 28.8648L5.67759 30.1811L5.20003 32.2491C5.18553 32.3117 5.19018 32.3772 5.21337 32.4371C5.23656 32.497 5.27723 32.5486 5.33009 32.5851C5.38296 32.6217 5.44558 32.6414 5.50983 32.6419C5.57408 32.6424 5.637 32.6236 5.69041 32.5879L7.43561 31.4244L9.1808 32.5879C9.23539 32.6241 9.29978 32.6428 9.3653 32.6413C9.43081 32.6399 9.49432 32.6184 9.54727 32.5798C9.60022 32.5412 9.64009 32.4873 9.66149 32.4254C9.6829 32.3635 9.68483 32.2965 9.66702 32.2334L9.0808 30.1821L10.5346 28.8738C10.6298 28.7879 10.6648 28.6539 10.6237 28.5324Z" fill="white"/>
<defs>
<filter id="filter0_b_222_40771" x="-5" y="17" width="25" height="25" filterUnits="userSpaceOnUse" color-interpolation-filters="sRGB">
<feFlood flood-opacity="0" result="BackgroundImageFix"/>
<feGaussianBlur in="BackgroundImage" stdDeviation="2.5"/>
<feComposite in2="SourceAlpha" operator="in" result="effect1_backgroundBlur_222_40771"/>
<feBlend mode="normal" in="SourceGraphic" in2="effect1_backgroundBlur_222_40771" result="shape"/>
</filter>
<linearGradient id="paint0_linear_222_40771" x1="10.0168" y1="5.9637" x2="30.7036" y2="25.1478" gradientUnits="userSpaceOnUse">
<stop stop-color="#00FFA3" stop-opacity="0.6"/>
<stop offset="1" stop-color="#4B48F1"/>
</linearGradient>
<linearGradient id="paint1_linear_222_40771" x1="10.0168" y1="5.9637" x2="30.7036" y2="25.1478" gradientUnits="userSpaceOnUse">
<stop stop-color="#00FFA3" stop-opacity="0.6"/>
<stop offset="1" stop-color="#4B48F1"/>
</linearGradient>
<linearGradient id="paint2_linear_222_40771" x1="10.0168" y1="5.9637" x2="30.7036" y2="25.1478" gradientUnits="userSpaceOnUse">
<stop stop-color="#00FFA3" stop-opacity="0.6"/>
<stop offset="1" stop-color="#4B48F1"/>
</linearGradient>
<linearGradient id="paint3_linear_222_40771" x1="10.0168" y1="5.9637" x2="30.7036" y2="25.1478" gradientUnits="userSpaceOnUse">
<stop stop-color="#00FFA3" stop-opacity="0.6"/>
<stop offset="1" stop-color="#4B48F1"/>
</linearGradient>
<linearGradient id="paint4_linear_222_40771" x1="7.5" y1="22" x2="7.5" y2="37" gradientUnits="userSpaceOnUse">
<stop stop-color="white" stop-opacity="0.46"/>
<stop offset="1" stop-color="white" stop-opacity="0"/>
</linearGradient>
</defs>
</svg>
