<svg width="160" height="80" viewBox="0 0 160 80" fill="none" xmlns="http://www.w3.org/2000/svg">
<path d="M66.8398 31.3653H72.0398V43.8987H79.5025V48.216H66.8398V31.3653ZM82.9025 31.3653H88.1025V48.2293H82.9025V31.3653ZM91.9732 31.3653H97.2892L102.2 40.392H102.251V31.3653H107.161V48.2293H102.095L96.9238 39.0227H96.8732V48.2293H91.9625L91.9732 31.3653ZM126.373 41.712C126.373 46.4133 123.893 48.6453 118.693 48.6453C113.493 48.6453 110.992 46.4253 110.992 41.712V31.3627H116.192V40.5547C116.192 42.2547 116.192 44.4307 118.723 44.4307C121.253 44.4307 121.181 42.2614 121.181 40.5547V31.3627H126.381V41.712H126.373ZM134.64 39.2547L129.093 31.3653H135.189L137.723 35.952L140.232 31.3653H145.996L140.587 39.3053L146.604 48.2293H140.348L137.463 43.2027L134.489 48.2293H128.537L134.64 39.2547Z" fill="white"/>
<path d="M35.0289 20C34.7923 20 34.5482 20.0118 34.2979 20.0311C27.8468 20.5239 29.5576 27.1454 29.46 29.3521C29.3424 30.9698 29.0021 32.244 27.856 33.8232C26.5053 35.3787 24.6098 37.8932 23.7109 40.5143C23.2867 41.7456 23.0852 43.0066 23.2729 44.198C23.2134 44.2483 23.1569 44.2986 23.1035 44.3978C22.7067 44.7944 22.4183 45.2873 22.0932 45.6395C21.7895 45.934 21.353 46.0347 20.8769 46.2315C20.3992 46.4328 19.8727 46.6296 19.5583 47.2394C19.4209 47.5176 19.3507 47.821 19.3568 48.1289C19.3568 48.4234 19.398 48.7224 19.4408 48.9222C19.5293 49.5127 19.6178 50.0011 19.5003 50.3578C19.1218 51.3642 19.0745 52.0538 19.34 52.5556C19.6056 53.0499 20.1565 53.2497 20.7731 53.445C22.0108 53.741 23.688 53.6448 25.0082 54.3316C26.4214 55.0227 27.856 55.3246 29.0006 55.0272C29.8033 54.857 30.481 54.3419 30.8442 53.6286C31.74 53.6241 32.7214 53.2304 34.2933 53.1342C35.3601 53.0484 36.6955 53.5294 38.2277 53.4288C38.2659 53.6286 38.3239 53.7233 38.4017 53.9231L38.4063 53.9275C39.003 55.079 40.1049 55.6029 41.2815 55.5126C42.4582 55.4238 43.7112 54.7193 44.7261 53.5797C45.6891 52.4475 47.2946 51.9754 48.3553 51.3553C48.8864 51.0608 49.3152 50.6612 49.3457 50.0928C49.3808 49.5008 49.042 48.8911 48.2561 48.0549V47.9113L48.2515 47.9069C47.992 47.6109 47.87 47.1151 47.7357 46.5364C47.6059 45.9429 47.4579 45.3731 46.9848 44.9883H46.9802C46.8902 44.9084 46.7925 44.8892 46.6933 44.7885C46.6078 44.7323 46.5086 44.6968 46.4033 44.6938C47.0611 42.8024 46.8062 40.9198 46.1393 39.2267C45.3259 37.1399 43.9035 35.3224 42.8199 34.0718C41.6051 32.5844 40.4147 31.1755 40.4376 29.0857C40.4788 25.9008 40.7993 20.0089 35.0289 20ZM35.8362 25.0394H35.8561C36.1811 25.0394 36.4604 25.1312 36.7473 25.3324C37.0388 25.5322 37.251 25.8238 37.4173 26.1213C37.5776 26.5046 37.6585 26.8006 37.6707 27.1928C37.6707 27.1632 37.6798 27.1336 37.6798 27.1055V27.2594C37.6768 27.249 37.6737 27.2372 37.6737 27.2283L37.6676 27.1928C37.6646 27.5524 37.5867 27.9076 37.4387 28.2377C37.367 28.4227 37.2571 28.5929 37.1136 28.7335C37.0694 28.7098 37.0266 28.6891 36.9793 28.6713C36.8191 28.6047 36.6756 28.5766 36.5444 28.4745C36.436 28.433 36.3231 28.399 36.2101 28.3768C36.2849 28.2895 36.4314 28.18 36.4879 28.0838C36.5688 27.8943 36.613 27.693 36.6222 27.4888V27.4607C36.6253 27.2609 36.5947 27.0596 36.5291 26.8687C36.4604 26.6689 36.375 26.5712 36.2498 26.3744C36.1216 26.2767 35.995 26.179 35.8423 26.179H35.8179C35.676 26.179 35.5493 26.2234 35.4181 26.3744C35.2731 26.5135 35.1647 26.6807 35.1052 26.8687C35.0243 27.0566 34.977 27.2594 34.9678 27.4607V27.4888C34.9709 27.6205 34.9801 27.7537 34.9984 27.884C34.7038 27.7848 34.3299 27.6842 34.072 27.585C34.0567 27.4888 34.0476 27.3896 34.0445 27.2905V27.2609C34.0323 26.8702 34.1102 26.4824 34.2734 26.1228C34.3986 25.7986 34.6275 25.5219 34.9297 25.3339C35.1907 25.143 35.5081 25.0394 35.8362 25.0394ZM31.3158 25.1267H31.3707C31.5874 25.1267 31.7828 25.1978 31.9796 25.3265C32.2025 25.5174 32.3825 25.7528 32.5046 26.0147C32.642 26.3092 32.7198 26.6082 32.7381 27.0019V27.0078C32.7488 27.2061 32.7473 27.3053 32.7351 27.4015V27.5199C32.6893 27.5302 32.6496 27.5465 32.6084 27.5554C32.3764 27.6368 32.1902 27.7552 32.0086 27.8514C32.027 27.7197 32.0285 27.5865 32.0132 27.4562V27.434C31.9949 27.2372 31.9537 27.1395 31.8881 26.9412C31.8408 26.7902 31.7538 26.6556 31.6347 26.546C31.5599 26.4794 31.4592 26.4454 31.3554 26.4513H31.3234C31.215 26.4602 31.125 26.512 31.0395 26.6467C30.9419 26.7606 30.8793 26.8998 30.8564 27.0463C30.8152 27.2061 30.803 27.3704 30.8213 27.5362V27.5569C30.8396 27.7567 30.8778 27.8544 30.9449 28.0512C31.0136 28.2495 31.0929 28.3472 31.1967 28.4478C31.2135 28.4612 31.2288 28.4745 31.2486 28.4834C31.1418 28.5677 31.0701 28.587 30.98 28.6846C30.9235 28.7261 30.8579 28.7734 30.7801 28.7853C30.6214 28.6003 30.481 28.4005 30.3604 28.1903C30.2139 27.8795 30.1376 27.5421 30.1238 27.2032C30.0979 26.8687 30.1406 26.5342 30.2459 26.2145C30.3299 25.923 30.4779 25.6536 30.6778 25.4227C30.8732 25.2259 31.0746 25.1267 31.3158 25.1267ZM33.4081 27.6516C33.9133 27.6516 34.5253 27.7478 35.2624 28.2421C35.7096 28.5381 36.0606 28.6402 36.8694 28.9348H36.874C37.2632 29.136 37.4921 29.3284 37.6035 29.5253V29.3314C37.7149 29.549 37.7226 29.802 37.6279 30.027C37.4402 30.4873 36.8404 30.9801 36.0041 31.2746V31.2776C35.5951 31.4774 35.2395 31.7704 34.8213 31.9658C34.4001 32.1656 33.924 32.398 33.2769 32.361C33.0449 32.3728 32.8114 32.3388 32.5932 32.2618C32.4253 32.173 32.2605 32.0753 32.1017 31.9688C31.8041 31.769 31.5477 31.4774 31.1677 31.2806V31.2732H31.1601C30.5496 30.9091 30.22 30.5154 30.1132 30.2209C30.0078 29.8242 30.1055 29.5268 30.4077 29.3329C30.7496 29.1331 30.9876 28.9318 31.1448 28.8356C31.3036 28.7261 31.3631 28.6846 31.4134 28.6417H31.4165V28.6373C31.6744 28.3383 32.0819 27.9432 32.6969 27.7478C32.9091 27.6945 33.1456 27.6516 33.4081 27.6516ZM37.6798 30.8232C38.2277 32.9204 39.5066 35.9662 40.3292 37.4433C40.7657 38.2336 41.6341 39.8986 42.0111 41.9188C42.2491 41.9114 42.5132 41.9454 42.794 42.0135C43.7799 39.5404 41.9607 36.8824 41.132 36.1438C40.7947 35.8464 40.7779 35.648 40.9443 35.648C41.8432 36.4384 43.0275 37.9746 43.4563 39.7284C43.6532 40.5202 43.699 41.3623 43.4884 42.2C43.5906 42.2414 43.6944 42.2903 43.8012 42.2992C45.3762 43.0895 45.9577 43.6874 45.6784 44.5739V44.5103C45.5853 44.5058 45.4953 44.5103 45.4022 44.5103H45.3793C45.6097 43.8191 45.1015 43.2893 43.7539 42.6988C42.3575 42.1068 41.2419 42.2015 41.0511 43.387C41.0404 43.4506 41.0328 43.4846 41.0252 43.5868C40.9214 43.6208 40.813 43.6652 40.7062 43.6815C40.0499 44.0781 39.6959 44.6716 39.4959 45.4382C39.2975 46.2271 39.2365 47.1491 39.1831 48.2044V48.2088C39.151 48.7031 38.9221 49.449 38.6962 50.2083C36.407 51.7948 33.2326 52.4845 30.5328 50.7026C30.3634 50.417 30.1574 50.1491 29.9193 49.9138C29.8064 49.7288 29.6629 49.563 29.4996 49.4194C29.7774 49.4194 30.0155 49.3765 30.2093 49.3203C30.4306 49.2211 30.6015 49.042 30.6885 48.826C30.8533 48.4308 30.6885 47.7944 30.162 47.1047C29.6355 46.4136 28.7411 45.6321 27.4332 44.8536C26.4718 44.2631 25.9284 43.566 25.6782 42.7876C25.4263 41.9972 25.4599 41.1818 25.6553 40.353C26.0292 38.7694 26.9876 37.2302 27.5996 36.2637C27.7629 36.1675 27.656 36.4635 26.9769 37.7052C26.3726 38.8167 25.2356 41.4008 26.7907 43.4092C26.8487 41.9454 27.1845 40.501 27.7781 39.1527C28.6389 37.2612 30.4382 33.9668 30.5802 31.356C30.6534 31.4093 30.9113 31.5558 31.0212 31.655C31.3539 31.8518 31.6012 32.1478 31.9216 32.3432C32.2437 32.6407 32.6496 32.839 33.2586 32.839C33.3181 32.8434 33.373 32.8479 33.428 32.8479C34.0552 32.8479 34.5405 32.6496 34.948 32.4512C35.3906 32.2529 35.7431 31.9569 36.0774 31.8592H36.085C36.7977 31.6594 37.3609 31.2643 37.6798 30.8232ZM41.016 44.0811C41.0725 44.9706 41.5395 45.9237 42.3621 46.119C43.2594 46.3174 44.5506 45.6262 45.0954 44.9868L45.4174 44.9735C45.8982 44.9617 46.298 44.9883 46.7101 45.3687L46.7147 45.3731C47.0321 45.6676 47.1801 46.159 47.3114 46.6696C47.4411 47.2631 47.5464 47.824 47.9356 48.2473C48.6773 49.0272 48.92 49.5882 48.9062 49.9345L48.9108 49.9256V49.9522L48.9062 49.9345C48.8833 50.3222 48.6239 50.5206 48.1462 50.8151C47.1847 51.4086 45.4815 51.8688 44.3964 53.1387C43.4533 54.2294 42.3041 54.8244 41.2892 54.9014C40.2758 54.9798 39.4013 54.6054 38.887 53.5723L38.8794 53.5679C38.5589 52.9744 38.6962 52.0509 38.9648 51.0667C39.2335 50.078 39.618 49.0761 39.6715 48.2576C39.7279 47.2009 39.7874 46.2818 39.9691 45.5729C40.1522 44.8847 40.4391 44.3934 40.9473 44.1166L41.016 44.084V44.0811ZM24.5106 44.1536H24.5259C24.6068 44.1536 24.6862 44.161 24.7655 44.1743C25.3393 44.2557 25.843 44.6672 26.3268 45.2873L27.7156 47.75L27.7201 47.7544C28.091 48.5433 28.8709 49.3292 29.5347 50.1787C30.1971 51.0637 30.7099 51.8526 30.6473 52.5023V52.5112C30.5603 53.6123 29.9163 54.2102 28.9304 54.4263C27.946 54.6261 26.6106 54.4292 25.2752 53.7396C23.7979 52.9463 22.0429 53.0454 20.915 52.8486C20.3519 52.7509 19.9825 52.5511 19.8116 52.2551C19.6422 51.9606 19.6392 51.3656 19.9993 50.4347V50.4303L20.0024 50.4258C20.1809 49.9315 20.0482 49.3114 19.9612 48.7697C19.8772 48.1762 19.8345 47.7204 20.0268 47.3785C20.271 46.8842 20.6312 46.788 21.0783 46.5897C21.5285 46.3899 22.0566 46.2907 22.4763 45.8956H22.4793V45.8911C22.87 45.4945 23.1585 45.0016 23.4988 44.6509C23.7888 44.3534 24.0787 44.1536 24.5106 44.1536ZM35.4364 30.7241C34.7725 31.0216 33.9942 31.5159 33.1655 31.5159C32.3383 31.5159 31.6851 31.1207 31.2135 30.8262C30.977 30.6279 30.7862 30.4296 30.6427 30.3304C30.3924 30.1321 30.423 29.8361 30.5298 29.8361C30.6961 29.8598 30.7267 30.0359 30.8335 30.1336C30.98 30.2312 31.1616 30.4281 31.3844 30.6264C31.8286 30.9224 32.4222 31.3176 33.1639 31.3176C33.9041 31.3176 34.771 30.9224 35.2975 30.6279C35.5951 30.4281 35.9766 30.1336 36.2864 29.9367C36.5245 29.734 36.5138 29.5401 36.7122 29.5401C36.9091 29.5638 36.7641 29.7384 36.4879 30.0329C36.2117 30.2327 35.7843 30.5287 35.4349 30.7256V30.7241H35.4364ZM33.7851 28.3798V28.3472C33.7759 28.3191 33.8049 28.285 33.8293 28.2732C33.9423 28.2096 34.104 28.2332 34.2261 28.2791C34.3223 28.2791 34.4703 28.3783 34.4551 28.4789C34.4459 28.5514 34.3253 28.5766 34.249 28.5766C34.1651 28.5766 34.1086 28.513 34.0338 28.476C33.9545 28.4493 33.811 28.4641 33.7851 28.3798ZM32.9442 28.3798C32.9136 28.4656 32.7717 28.4523 32.6908 28.4774C32.6191 28.5144 32.5596 28.5781 32.4787 28.5781C32.4009 28.5781 32.2788 28.55 32.2696 28.4774C32.2559 28.3798 32.4039 28.2806 32.4985 28.2806C32.6222 28.2347 32.7793 28.211 32.8938 28.2732C32.9228 28.2865 32.9487 28.3176 32.9396 28.3472V28.3783H32.9442V28.3798Z" fill="white"/>
</svg>
