<svg width="44" height="43" viewBox="0 0 44 43" fill="none" xmlns="http://www.w3.org/2000/svg">
<path d="M26.0235 2.26754C26.3322 2.16082 26.6678 2.16082 26.9765 2.26754L41.5599 7.30922C42.1456 7.5117 42.5393 8.06224 42.5417 8.68194C42.5441 9.30165 42.1545 9.85517 41.5704 10.0621L26.987 15.2288C26.672 15.3404 26.3281 15.3404 26.013 15.2288L11.4297 10.0621C10.8456 9.85517 10.456 9.30165 10.4584 8.68194C10.4607 8.06224 10.8545 7.5117 11.4402 7.30922L26.0235 2.26754Z" fill="#C4C4C4"/>
<path d="M26.0235 2.26754C26.3322 2.16082 26.6678 2.16082 26.9765 2.26754L41.5599 7.30922C42.1456 7.5117 42.5393 8.06224 42.5417 8.68194C42.5441 9.30165 42.1545 9.85517 41.5704 10.0621L26.987 15.2288C26.672 15.3404 26.3281 15.3404 26.013 15.2288L11.4297 10.0621C10.8456 9.85517 10.456 9.30165 10.4584 8.68194C10.4607 8.06224 10.8545 7.5117 11.4402 7.30922L26.0235 2.26754Z" fill="url(#paint0_linear_228_3155)"/>
<path d="M12.3985 13.2066C11.6383 12.9405 10.8063 13.3411 10.5403 14.1013C10.2742 14.8615 10.6748 15.6934 11.435 15.9595L26.0183 21.0636C26.3302 21.1728 26.6699 21.1728 26.9818 21.0636L41.5652 15.9595C42.3254 15.6934 42.7259 14.8615 42.4599 14.1013C42.1938 13.3411 41.3618 12.9405 40.6016 13.2066L26.5001 18.1421L12.3985 13.2066Z" fill="#C4C4C4"/>
<path d="M12.3985 13.2066C11.6383 12.9405 10.8063 13.3411 10.5403 14.1013C10.2742 14.8615 10.6748 15.6934 11.435 15.9595L26.0183 21.0636C26.3302 21.1728 26.6699 21.1728 26.9818 21.0636L41.5652 15.9595C42.3254 15.6934 42.7259 14.8615 42.4599 14.1013C42.1938 13.3411 41.3618 12.9405 40.6016 13.2066L26.5001 18.1421L12.3985 13.2066Z" fill="url(#paint1_linear_228_3155)"/>
<path d="M12.3985 19.0399C11.6383 18.7738 10.8063 19.1744 10.5403 19.9346C10.2742 20.6948 10.6748 21.5267 11.435 21.7928L26.0183 26.897C26.3302 27.0061 26.6699 27.0061 26.9818 26.897L41.5652 21.7928C42.3254 21.5267 42.7259 20.6948 42.4599 19.9346C42.1938 19.1744 41.3618 18.7738 40.6016 19.0399L26.5001 23.9754L12.3985 19.0399Z" fill="#C4C4C4"/>
<path d="M12.3985 19.0399C11.6383 18.7738 10.8063 19.1744 10.5403 19.9346C10.2742 20.6948 10.6748 21.5267 11.435 21.7928L26.0183 26.897C26.3302 27.0061 26.6699 27.0061 26.9818 26.897L41.5652 21.7928C42.3254 21.5267 42.7259 20.6948 42.4599 19.9346C42.1938 19.1744 41.3618 18.7738 40.6016 19.0399L26.5001 23.9754L12.3985 19.0399Z" fill="url(#paint2_linear_228_3155)"/>
<path d="M10.5403 25.7679C10.8063 25.0077 11.6383 24.6072 12.3985 24.8732L26.5001 29.8088L40.6016 24.8732C41.3618 24.6072 42.1938 25.0077 42.4599 25.7679C42.7259 26.5281 42.3254 27.3601 41.5652 27.6261L26.9818 32.7303C26.6699 32.8395 26.3302 32.8395 26.0183 32.7303L11.435 27.6261C10.6748 27.3601 10.2742 26.5281 10.5403 25.7679Z" fill="#C4C4C4"/>
<path d="M10.5403 25.7679C10.8063 25.0077 11.6383 24.6072 12.3985 24.8732L26.5001 29.8088L40.6016 24.8732C41.3618 24.6072 42.1938 25.0077 42.4599 25.7679C42.7259 26.5281 42.3254 27.3601 41.5652 27.6261L26.9818 32.7303C26.6699 32.8395 26.3302 32.8395 26.0183 32.7303L11.435 27.6261C10.6748 27.3601 10.2742 26.5281 10.5403 25.7679Z" fill="url(#paint3_linear_228_3155)"/>
<g filter="url(#filter0_b_228_3155)">
<circle cx="10" cy="33" r="10" fill="white" fill-opacity="0.1"/>
<circle cx="10" cy="33" r="9.85" stroke="url(#paint4_linear_228_3155)" stroke-width="0.3"/>
</g>
<path d="M14.1653 31.7099C14.1384 31.6308 14.089 31.5613 14.023 31.5099C13.9571 31.4586 13.8776 31.4277 13.7943 31.421L11.358 31.2274L10.3037 28.8937C10.2701 28.8185 10.2155 28.7547 10.1465 28.7098C10.0774 28.665 9.99686 28.6412 9.91453 28.6411C9.83221 28.6411 9.75163 28.6648 9.68252 28.7096C9.61342 28.7543 9.55873 28.8181 9.52508 28.8932L8.4708 31.2274L6.03447 31.421C5.95261 31.4275 5.87436 31.4574 5.80907 31.5072C5.74377 31.557 5.69421 31.6246 5.6663 31.7018C5.6384 31.779 5.63333 31.8627 5.65171 31.9427C5.67009 32.0227 5.71114 32.0958 5.76994 32.1531L7.57037 33.9082L6.93362 36.6655C6.91428 36.7489 6.92048 36.8363 6.9514 36.9162C6.98233 36.9961 7.03655 37.0648 7.10704 37.1135C7.17752 37.1622 7.26102 37.1886 7.34669 37.1892C7.43236 37.1899 7.51625 37.1648 7.58747 37.1172L9.91439 35.5659L12.2413 37.1172C12.3141 37.1655 12.4 37.1904 12.4873 37.1885C12.5747 37.1865 12.6593 37.1579 12.73 37.1065C12.8006 37.055 12.8537 36.9831 12.8822 36.9005C12.9108 36.8179 12.9134 36.7286 12.8896 36.6445L12.108 33.9095L14.0465 32.165C14.1734 32.0505 14.22 31.8719 14.1653 31.7099Z" fill="white"/>
<defs>
<filter id="filter0_b_228_3155" x="-5" y="18" width="30" height="30" filterUnits="userSpaceOnUse" color-interpolation-filters="sRGB">
<feFlood flood-opacity="0" result="BackgroundImageFix"/>
<feGaussianBlur in="BackgroundImage" stdDeviation="2.5"/>
<feComposite in2="SourceAlpha" operator="in" result="effect1_backgroundBlur_228_3155"/>
<feBlend mode="normal" in="SourceGraphic" in2="effect1_backgroundBlur_228_3155" result="shape"/>
</filter>
<linearGradient id="paint0_linear_228_3155" x1="14.8528" y1="7.43679" x2="37.946" y2="29.8732" gradientUnits="userSpaceOnUse">
<stop stop-color="#00FFA3" stop-opacity="0.6"/>
<stop offset="1" stop-color="#4B48F1"/>
</linearGradient>
<linearGradient id="paint1_linear_228_3155" x1="14.8528" y1="7.43679" x2="37.946" y2="29.8732" gradientUnits="userSpaceOnUse">
<stop stop-color="#00FFA3" stop-opacity="0.6"/>
<stop offset="1" stop-color="#4B48F1"/>
</linearGradient>
<linearGradient id="paint2_linear_228_3155" x1="14.8528" y1="7.43679" x2="37.946" y2="29.8732" gradientUnits="userSpaceOnUse">
<stop stop-color="#00FFA3" stop-opacity="0.6"/>
<stop offset="1" stop-color="#4B48F1"/>
</linearGradient>
<linearGradient id="paint3_linear_228_3155" x1="14.8528" y1="7.43679" x2="37.946" y2="29.8732" gradientUnits="userSpaceOnUse">
<stop stop-color="#00FFA3" stop-opacity="0.6"/>
<stop offset="1" stop-color="#4B48F1"/>
</linearGradient>
<linearGradient id="paint4_linear_228_3155" x1="10" y1="23" x2="10" y2="43" gradientUnits="userSpaceOnUse">
<stop stop-color="white" stop-opacity="0.46"/>
<stop offset="1" stop-color="white" stop-opacity="0"/>
</linearGradient>
</defs>
</svg>
