<svg width="42" height="44" viewBox="0 0 42 44" fill="none" xmlns="http://www.w3.org/2000/svg">
<path d="M18.6667 4.37504C18.6667 2.76421 19.9726 1.45837 21.5834 1.45837H27.4167C29.0276 1.45837 30.3334 2.76421 30.3334 4.37504V10.2084C30.3334 11.8192 29.0276 13.125 27.4167 13.125H25.963L25.9599 16.0417H37.6251C38.4305 16.0417 39.0834 16.6946 39.0834 17.5C39.0834 18.3055 38.4305 18.9584 37.6251 18.9584H34.713L34.7099 21.875H36.1668C37.7776 21.875 39.0834 23.1809 39.0834 24.7917V30.625C39.0834 32.2359 37.7776 33.5417 36.1668 33.5417H30.3334C28.7226 33.5417 27.4167 32.2359 27.4167 30.625V24.7917C27.4167 23.1809 28.7226 21.875 30.3334 21.875H31.7933L31.7963 18.9584H24.6339C24.5893 18.9624 24.5442 18.9645 24.4986 18.9644C24.454 18.9644 24.4099 18.9623 24.3663 18.9584H17.213L17.2099 21.875H18.6667C20.2776 21.875 21.5834 23.1809 21.5834 24.7917V30.625C21.5834 32.2359 20.2776 33.5417 18.6667 33.5417H12.8334C11.2226 33.5417 9.91675 32.2359 9.91675 30.625V24.7917C9.91675 23.1809 11.2226 21.875 12.8334 21.875H14.2933L14.2963 18.9584H11.3751C10.5697 18.9584 9.91675 18.3055 9.91675 17.5C9.91675 16.6946 10.5697 16.0417 11.3751 16.0417H23.0433L23.0463 13.125H21.5834C19.9726 13.125 18.6667 11.8192 18.6667 10.2084V4.37504Z" fill="#C4C4C4"/>
<path d="M18.6667 4.37504C18.6667 2.76421 19.9726 1.45837 21.5834 1.45837H27.4167C29.0276 1.45837 30.3334 2.76421 30.3334 4.37504V10.2084C30.3334 11.8192 29.0276 13.125 27.4167 13.125H25.963L25.9599 16.0417H37.6251C38.4305 16.0417 39.0834 16.6946 39.0834 17.5C39.0834 18.3055 38.4305 18.9584 37.6251 18.9584H34.713L34.7099 21.875H36.1668C37.7776 21.875 39.0834 23.1809 39.0834 24.7917V30.625C39.0834 32.2359 37.7776 33.5417 36.1668 33.5417H30.3334C28.7226 33.5417 27.4167 32.2359 27.4167 30.625V24.7917C27.4167 23.1809 28.7226 21.875 30.3334 21.875H31.7933L31.7963 18.9584H24.6339C24.5893 18.9624 24.5442 18.9645 24.4986 18.9644C24.454 18.9644 24.4099 18.9623 24.3663 18.9584H17.213L17.2099 21.875H18.6667C20.2776 21.875 21.5834 23.1809 21.5834 24.7917V30.625C21.5834 32.2359 20.2776 33.5417 18.6667 33.5417H12.8334C11.2226 33.5417 9.91675 32.2359 9.91675 30.625V24.7917C9.91675 23.1809 11.2226 21.875 12.8334 21.875H14.2933L14.2963 18.9584H11.3751C10.5697 18.9584 9.91675 18.3055 9.91675 17.5C9.91675 16.6946 10.5697 16.0417 11.3751 16.0417H23.0433L23.0463 13.125H21.5834C19.9726 13.125 18.6667 11.8192 18.6667 10.2084V4.37504Z" fill="url(#paint0_linear_228_3147)"/>
<g filter="url(#filter0_b_228_3147)">
<circle cx="10" cy="34" r="10" fill="white" fill-opacity="0.1"/>
<circle cx="10" cy="34" r="9.85" stroke="url(#paint1_linear_228_3147)" stroke-width="0.3"/>
</g>
<path d="M14.1653 32.7099C14.1384 32.6308 14.089 32.5613 14.023 32.5099C13.9571 32.4586 13.8776 32.4277 13.7943 32.421L11.358 32.2274L10.3037 29.8937C10.2701 29.8185 10.2155 29.7547 10.1465 29.7098C10.0774 29.665 9.99686 29.6412 9.91453 29.6411C9.83221 29.6411 9.75163 29.6648 9.68252 29.7096C9.61342 29.7543 9.55873 29.8181 9.52508 29.8932L8.4708 32.2274L6.03447 32.421C5.95261 32.4275 5.87436 32.4574 5.80907 32.5072C5.74377 32.557 5.69421 32.6246 5.6663 32.7018C5.6384 32.779 5.63333 32.8627 5.65171 32.9427C5.67009 33.0227 5.71114 33.0958 5.76994 33.1531L7.57037 34.9082L6.93362 37.6655C6.91428 37.7489 6.92048 37.8363 6.9514 37.9162C6.98233 37.9961 7.03655 38.0648 7.10704 38.1135C7.17752 38.1622 7.26102 38.1886 7.34669 38.1892C7.43236 38.1899 7.51625 38.1648 7.58747 38.1172L9.91439 36.5659L12.2413 38.1172C12.3141 38.1655 12.4 38.1904 12.4873 38.1885C12.5747 38.1865 12.6593 38.1579 12.73 38.1065C12.8006 38.055 12.8537 37.9831 12.8822 37.9005C12.9108 37.8179 12.9134 37.7286 12.8896 37.6445L12.108 34.9095L14.0465 33.165C14.1734 33.0505 14.22 32.8719 14.1653 32.7099Z" fill="white"/>
<defs>
<filter id="filter0_b_228_3147" x="-5" y="19" width="30" height="30" filterUnits="userSpaceOnUse" color-interpolation-filters="sRGB">
<feFlood flood-opacity="0" result="BackgroundImageFix"/>
<feGaussianBlur in="BackgroundImage" stdDeviation="2.5"/>
<feComposite in2="SourceAlpha" operator="in" result="effect1_backgroundBlur_228_3147"/>
<feBlend mode="normal" in="SourceGraphic" in2="effect1_backgroundBlur_228_3147" result="shape"/>
</filter>
<linearGradient id="paint0_linear_228_3147" x1="13.9119" y1="6.95769" x2="37.7666" y2="27.0686" gradientUnits="userSpaceOnUse">
<stop stop-color="#00FFA3" stop-opacity="0.6"/>
<stop offset="1" stop-color="#4B48F1"/>
</linearGradient>
<linearGradient id="paint1_linear_228_3147" x1="10" y1="24" x2="10" y2="44" gradientUnits="userSpaceOnUse">
<stop stop-color="white" stop-opacity="0.46"/>
<stop offset="1" stop-color="white" stop-opacity="0"/>
</linearGradient>
</defs>
</svg>
