<svg width="38" height="44" viewBox="0 0 38 44" fill="none" xmlns="http://www.w3.org/2000/svg">
<path d="M20.4999 1.45837C21.3053 1.45837 21.9583 2.11129 21.9583 2.91671V5.18909C24.0325 5.43217 25.9501 6.18735 27.5814 7.32478L29.265 5.64119C29.8345 5.07167 30.7579 5.07166 31.3274 5.64117C31.8969 6.21068 31.8969 7.13405 31.3274 7.70357L29.7655 9.26546C31.253 10.9379 32.2944 13.0158 32.7033 15.3125H35.0833C35.8887 15.3125 36.5416 15.9655 36.5416 16.7709C36.5416 17.5763 35.8887 18.2292 35.0833 18.2292H32.8747C32.723 20.8439 31.7609 23.2412 30.2358 25.1735L31.8431 26.7809C32.4126 27.3504 32.4126 28.2737 31.8431 28.8433C31.2736 29.4128 30.3502 29.4128 29.7807 28.8433L28.1734 27.2359C26.4221 28.6181 24.289 29.5378 21.9583 29.811V32.0834C21.9583 32.8888 21.3053 33.5417 20.4999 33.5417C19.6945 33.5417 19.0416 32.8888 19.0416 32.0834V29.811C16.4557 29.5079 14.1132 28.409 12.2655 26.7658L10.7036 28.3276C10.1341 28.8971 9.21076 28.8971 8.64125 28.3276C8.07173 27.7581 8.07172 26.8347 8.64123 26.2652L10.3247 24.5817C9.05509 22.7608 8.26172 20.5831 8.12518 18.2292H5.91659C5.11117 18.2292 4.45825 17.5763 4.45825 16.7709C4.45825 15.9655 5.11117 15.3125 5.91659 15.3125H8.29649C8.66085 13.2661 9.52736 11.3935 10.7641 9.82655L9.15679 8.21931C8.58727 7.6498 8.58726 6.72643 9.15677 6.15691C9.72628 5.58739 10.6496 5.58738 11.2192 6.15689L12.8265 7.76416C14.5777 6.382 16.7108 5.46224 19.0416 5.18909V2.91671C19.0416 2.11129 19.6945 1.45837 20.4999 1.45837Z" fill="#C4C4C4"/>
<path d="M20.4999 1.45837C21.3053 1.45837 21.9583 2.11129 21.9583 2.91671V5.18909C24.0325 5.43217 25.9501 6.18735 27.5814 7.32478L29.265 5.64119C29.8345 5.07167 30.7579 5.07166 31.3274 5.64117C31.8969 6.21068 31.8969 7.13405 31.3274 7.70357L29.7655 9.26546C31.253 10.9379 32.2944 13.0158 32.7033 15.3125H35.0833C35.8887 15.3125 36.5416 15.9655 36.5416 16.7709C36.5416 17.5763 35.8887 18.2292 35.0833 18.2292H32.8747C32.723 20.8439 31.7609 23.2412 30.2358 25.1735L31.8431 26.7809C32.4126 27.3504 32.4126 28.2737 31.8431 28.8433C31.2736 29.4128 30.3502 29.4128 29.7807 28.8433L28.1734 27.2359C26.4221 28.6181 24.289 29.5378 21.9583 29.811V32.0834C21.9583 32.8888 21.3053 33.5417 20.4999 33.5417C19.6945 33.5417 19.0416 32.8888 19.0416 32.0834V29.811C16.4557 29.5079 14.1132 28.409 12.2655 26.7658L10.7036 28.3276C10.1341 28.8971 9.21076 28.8971 8.64125 28.3276C8.07173 27.7581 8.07172 26.8347 8.64123 26.2652L10.3247 24.5817C9.05509 22.7608 8.26172 20.5831 8.12518 18.2292H5.91659C5.11117 18.2292 4.45825 17.5763 4.45825 16.7709C4.45825 15.9655 5.11117 15.3125 5.91659 15.3125H8.29649C8.66085 13.2661 9.52736 11.3935 10.7641 9.82655L9.15679 8.21931C8.58727 7.6498 8.58726 6.72643 9.15677 6.15691C9.72628 5.58739 10.6496 5.58738 11.2192 6.15689L12.8265 7.76416C14.5777 6.382 16.7108 5.46224 19.0416 5.18909V2.91671C19.0416 2.11129 19.6945 1.45837 20.4999 1.45837Z" fill="url(#paint0_linear_228_3163)"/>
<g filter="url(#filter0_b_228_3163)">
<circle cx="10" cy="34" r="10" fill="white" fill-opacity="0.1"/>
<circle cx="10" cy="34" r="9.85" stroke="url(#paint1_linear_228_3163)" stroke-width="0.3"/>
</g>
<path d="M14.1653 32.7099C14.1384 32.6308 14.089 32.5613 14.023 32.5099C13.9571 32.4586 13.8776 32.4277 13.7943 32.421L11.358 32.2274L10.3037 29.8937C10.2701 29.8185 10.2155 29.7547 10.1465 29.7098C10.0774 29.665 9.99686 29.6412 9.91453 29.6411C9.83221 29.6411 9.75163 29.6648 9.68252 29.7096C9.61342 29.7543 9.55873 29.8181 9.52508 29.8932L8.4708 32.2274L6.03447 32.421C5.95261 32.4275 5.87436 32.4574 5.80907 32.5072C5.74377 32.557 5.69421 32.6246 5.6663 32.7018C5.6384 32.779 5.63333 32.8627 5.65171 32.9427C5.67009 33.0227 5.71114 33.0958 5.76994 33.1531L7.57037 34.9082L6.93362 37.6655C6.91428 37.7489 6.92048 37.8363 6.9514 37.9162C6.98233 37.9961 7.03655 38.0648 7.10704 38.1135C7.17752 38.1622 7.26102 38.1886 7.34669 38.1892C7.43236 38.1899 7.51625 38.1648 7.58747 38.1172L9.91439 36.5659L12.2413 38.1172C12.3141 38.1655 12.4 38.1904 12.4873 38.1885C12.5747 38.1865 12.6593 38.1579 12.73 38.1065C12.8006 38.055 12.8537 37.9831 12.8822 37.9005C12.9108 37.8179 12.9134 37.7286 12.8896 37.6445L12.108 34.9095L14.0465 33.165C14.1734 33.0505 14.22 32.8719 14.1653 32.7099Z" fill="white"/>
<defs>
<filter id="filter0_b_228_3163" x="-5" y="19" width="30" height="30" filterUnits="userSpaceOnUse" color-interpolation-filters="sRGB">
<feFlood flood-opacity="0" result="BackgroundImageFix"/>
<feGaussianBlur in="BackgroundImage" stdDeviation="2.5"/>
<feComposite in2="SourceAlpha" operator="in" result="effect1_backgroundBlur_228_3163"/>
<feBlend mode="normal" in="SourceGraphic" in2="effect1_backgroundBlur_228_3163" result="shape"/>
</filter>
<linearGradient id="paint0_linear_228_3163" x1="8.8529" y1="6.95769" x2="32.9874" y2="29.3392" gradientUnits="userSpaceOnUse">
<stop stop-color="#00FFA3" stop-opacity="0.6"/>
<stop offset="1" stop-color="#4B48F1"/>
</linearGradient>
<linearGradient id="paint1_linear_228_3163" x1="10" y1="24" x2="10" y2="44" gradientUnits="userSpaceOnUse">
<stop stop-color="white" stop-opacity="0.46"/>
<stop offset="1" stop-color="white" stop-opacity="0"/>
</linearGradient>
</defs>
</svg>
