<svg width="24" height="24" viewBox="0 0 24 24" fill="none" xmlns="http://www.w3.org/2000/svg">
<path d="M6.08614 4.79268L1.79308 9.08521C1.54161 9.33663 1.34213 9.63514 1.20603 9.96368C1.06993 10.2922 0.999878 10.6444 0.999878 11C0.999878 11.3556 1.06993 11.7078 1.20603 12.0363C1.34213 12.3649 1.54161 12.6634 1.79308 12.9148L6.08614 17.2073C6.59375 17.7149 7.28212 18 7.99988 18C8.71764 18 9.40601 17.7149 9.91362 17.2073L14.2067 12.9148C14.4581 12.6634 14.6576 12.3649 14.7937 12.0363C14.9298 11.7078 14.9999 11.3556 14.9999 11C14.9999 10.6444 14.9298 10.2922 14.7937 9.96368C14.6576 9.63514 14.4581 9.33663 14.2067 9.08521L9.91362 4.79268C9.40601 4.28513 8.71764 4 7.99988 4C7.28212 4 6.59375 4.28513 6.08614 4.79268Z" fill="white"/>
<path d="M14.1774 17.2074L12.9999 16.019L15.1244 13.8722C15.4977 13.4952 15.7938 13.0475 15.9958 12.5548C16.1978 12.0621 16.3017 11.534 16.3017 11.0007C16.3017 10.4674 16.1978 9.93928 15.9958 9.44657C15.7938 8.95386 15.4977 8.50619 15.1244 8.12911L12.9999 5.98373L14.1774 4.7926C14.6798 4.2851 15.3611 4 16.0715 4C16.7819 4 17.4633 4.2851 17.9657 4.7926L22.2148 9.08608C22.4637 9.33747 22.6611 9.63595 22.7958 9.96446C22.9305 10.293 22.9999 10.6451 22.9999 11.0007C22.9999 11.3563 22.9305 11.7084 22.7958 12.0369C22.6611 12.3654 22.4637 12.6639 22.2148 12.9153L17.9657 17.2074C17.4633 17.7149 16.7819 18 16.0715 18C15.3611 18 14.6798 17.7149 14.1774 17.2074Z" fill="white"/>
</svg>
