<svg width="24" height="24" viewBox="0 0 24 24" fill="none" xmlns="http://www.w3.org/2000/svg">
<path fill-rule="evenodd" clip-rule="evenodd" d="M4.64158 2.42085C6.56796 1.84294 9.16929 1.5 12 1.5C14.8307 1.5 17.432 1.84294 19.3584 2.42085C20.3152 2.7079 21.1624 3.06956 21.7927 3.5166C22.397 3.94523 23 4.60097 23 5.5C23 6.39903 22.397 7.05477 21.7927 7.4834C21.6622 7.57593 21.5225 7.66481 21.3744 7.75012C21.4631 7.80126 21.5488 7.8536 21.6311 7.90716C22.3021 8.34367 23 9.03022 23 10.0002C23 10.8993 22.397 11.555 21.7927 11.9836C21.6623 12.0761 21.5226 12.165 21.3746 12.2502C21.4633 12.3013 21.5489 12.3536 21.6311 12.4072C22.3021 12.8437 23 13.5302 23 14.5002C23 15.3993 22.397 16.055 21.7927 16.4836C21.6623 16.5761 21.5227 16.6649 21.3748 16.7501C21.4634 16.8012 21.5489 16.8534 21.6311 16.9069C22.3021 17.3434 23 18.03 23 19C23 19.899 22.397 20.5548 21.7927 20.9834C21.1624 21.4304 20.3152 21.7921 19.3584 22.0791C17.432 22.6571 14.8307 23 12 23C9.16929 23 6.56796 22.6571 4.64158 22.0791C3.68476 21.7921 2.8376 21.4304 2.20732 20.9834C1.60301 20.5548 1 19.899 1 19C1 18.03 1.6979 17.3434 2.36888 16.9069C2.45107 16.8534 2.53658 16.8012 2.62521 16.7501C2.47727 16.6649 2.33766 16.5761 2.20732 16.4836C1.60301 16.055 1 15.3993 1 14.5002C1 13.5302 1.6979 12.8437 2.36888 12.4072C2.45114 12.3536 2.53671 12.3013 2.62542 12.2502C2.4774 12.165 2.33772 12.0761 2.20732 11.9836C1.60301 11.555 1 10.8993 1 10.0002C1 9.03023 1.6979 8.34368 2.36888 7.90716C2.4512 7.8536 2.53685 7.80126 2.62563 7.75012C2.47754 7.66481 2.33778 7.57593 2.20732 7.4834C1.60301 7.05477 1 6.39903 1 5.5C1 4.60097 1.60301 3.94523 2.20732 3.5166C2.8376 3.06956 3.68476 2.7079 4.64158 2.42085ZM3.00582 5.5C3.02629 5.54415 3.10178 5.66581 3.36438 5.85208C3.74615 6.12286 4.36346 6.40765 5.21628 6.66349C6.90919 7.17137 9.30786 7.5 12 7.5C14.6921 7.5 17.0908 7.17137 18.7837 6.66349C19.6365 6.40765 20.2538 6.12286 20.6356 5.85208C20.8982 5.66582 20.9737 5.54415 20.9942 5.5C20.9737 5.45584 20.8982 5.33418 20.6356 5.14792C20.2538 4.87714 19.6365 4.59235 18.7837 4.33651C17.0908 3.82863 14.6921 3.5 12 3.5C9.30786 3.5 6.90919 3.82863 5.21628 4.33651C4.36346 4.59235 3.74615 4.87714 3.36438 5.14792C3.10178 5.33419 3.02629 5.45585 3.00582 5.5ZM18.3793 15.7781C18.3724 15.7797 18.3655 15.7815 18.3586 15.7833C16.6968 16.2233 14.4699 16.5 12 16.5C9.53012 16.5 7.3032 16.2233 5.64141 15.7833C5.63451 15.7815 5.62761 15.7797 5.62068 15.7781C5.4818 15.7411 5.34694 15.7029 5.21628 15.6637C4.36346 15.4079 3.74615 15.1231 3.36438 14.8523C3.10272 14.6667 3.02683 14.5453 3.00604 14.5007C3.02827 14.4528 3.11771 14.306 3.45952 14.0836C3.88212 13.8087 4.53131 13.5303 5.39427 13.2848C7.22148 13.7376 9.52292 14.0002 12 14.0002C14.4771 14.0002 16.7785 13.7376 18.6057 13.2848C19.4687 13.5303 20.1179 13.8087 20.5405 14.0836C20.8823 14.306 20.9717 14.4528 20.994 14.5007C20.9732 14.5453 20.8973 14.6667 20.6356 14.8523C20.2538 15.1231 19.6365 15.4079 18.7837 15.6637C18.6531 15.7029 18.5182 15.7411 18.3793 15.7781ZM5.65827 11.288C5.64656 11.2847 5.63477 11.2816 5.62292 11.2787C5.48325 11.2415 5.34764 11.2031 5.21628 11.1637C4.36346 10.9079 3.74615 10.6231 3.36438 10.3523C3.10272 10.1667 3.02683 10.0453 3.00604 10.0007C3.02827 9.95279 3.11771 9.80599 3.45952 9.58361C3.8822 9.30863 4.53155 9.03016 5.39473 8.78463C7.22186 9.23743 9.52312 9.5 12 9.5C14.4769 9.5 16.7781 9.23743 18.6053 8.78464C19.4684 9.03016 20.1178 9.30863 20.5405 9.58361C20.8823 9.80598 20.9717 9.95279 20.994 10.0007C20.9732 10.0453 20.8973 10.1667 20.6356 10.3523C20.2538 10.6231 19.6365 10.9079 18.7837 11.1637C18.6524 11.2031 18.5168 11.2415 18.3771 11.2787C18.3652 11.2816 18.3534 11.2847 18.3417 11.288C16.6851 11.7246 14.4657 12.0002 12 12.0002C9.53433 12.0002 7.31485 11.7246 5.65827 11.288Z" fill="white"/>
</svg>
