<svg width="24" height="24" viewBox="0 0 24 24" fill="none" xmlns="http://www.w3.org/2000/svg">
<path fill-rule="evenodd" clip-rule="evenodd" d="M2 4C2 2.89543 2.89543 2 4 2H20C21.1046 2 22 2.89543 22 4V12C22 13.1046 21.1046 14 20 14H13V18H17.3334C17.619 18 17.891 18.1221 18.0808 18.3356L20.7474 21.3356C21.1143 21.7484 21.0771 22.3805 20.6644 22.7474C20.2516 23.1143 19.6195 23.0771 19.2526 22.6644L16.8843 20H13V22C13 22.5523 12.5523 23 12 23C11.4477 23 11 22.5523 11 22V20H6.91957L4.77524 22.6317C4.42637 23.0598 3.79648 23.1241 3.36833 22.7752C2.94018 22.4264 2.8759 21.7965 3.22477 21.3683L5.66922 18.3683C5.85912 18.1353 6.14381 18 6.44445 18H11V14H4C2.89543 14 2 13.1046 2 12V4ZM6 6.5C6 5.94772 6.44772 5.5 7 5.5H11C11.5523 5.5 12 5.94772 12 6.5C12 7.05228 11.5523 7.5 11 7.5H7C6.44772 7.5 6 7.05228 6 6.5ZM6 9.5C6 8.94772 6.44772 8.5 7 8.5H17C17.5523 8.5 18 8.94772 18 9.5C18 10.0523 17.5523 10.5 17 10.5H7C6.44772 10.5 6 10.0523 6 9.5Z" fill="white"/>
</svg>
