<svg width="24" height="24" viewBox="0 0 24 24" fill="none" xmlns="http://www.w3.org/2000/svg">
<path fill-rule="evenodd" clip-rule="evenodd" d="M12 1C5.92487 1 1 5.92487 1 12C1 18.0751 5.92487 23 12 23C18.0751 23 23 18.0751 23 12C23 5.92487 18.0751 1 12 1ZM14.5 8.08556L9.70872 3.29427C10.4403 3.10225 11.2082 3 12 3C12.8713 3 13.7137 3.12381 14.5105 3.35479C14.5036 3.4022 14.5 3.45068 14.5 3.5V8.08556ZM7.68561 4.09958L11.086 7.5H4.20404C5.02994 6.07226 6.2368 4.89246 7.68561 4.09958ZM20.0715 8.01408L16.5 11.5856V4.20404C18.0343 5.0916 19.2823 6.41912 20.0715 8.01408ZM16.414 14.5L20.8017 10.1123C20.9316 10.721 21 11.3525 21 12C21 12.8675 20.8773 13.7063 20.6482 14.5H16.414ZM12.9144 16.5H19.796C18.9701 17.9276 17.7634 19.1074 16.3147 19.9003L12.9144 16.5ZM9.5 15.914L14.2916 20.7056C13.56 20.8977 12.7919 21 12 21C11.1325 21 10.2937 20.8773 9.5 20.6482V15.914ZM7.5 12.914V19.796C6.07227 18.9701 4.89247 17.7632 4.0996 16.3144L7.5 12.914ZM8.08557 9.5L3.29428 14.2913C3.10225 13.5597 3 12.7918 3 12C3 11.1287 3.12381 10.2863 3.35479 9.48953C3.4022 9.49643 3.45068 9.5 3.5 9.5H8.08557Z" fill="white"/>
</svg>
