<svg width="24" height="24" viewBox="0 0 24 24" fill="none" xmlns="http://www.w3.org/2000/svg">
<path fill-rule="evenodd" clip-rule="evenodd" d="M11.7298 1.01872C11.9091 0.966392 12.0996 0.966417 12.2789 1.01879L21.091 3.59298C21.5088 3.71502 21.7959 4.09805 21.7959 4.53327V9.81233C21.7959 15.7827 17.9751 21.083 12.311 22.9703C12.11 23.0373 11.8927 23.0373 11.6917 22.9703C6.02605 21.0831 2.2041 15.7816 2.2041 9.80988V4.53327C2.2041 4.09796 2.49137 3.71487 2.90926 3.59291L11.7298 1.01872ZM17.5907 9.50894C17.9733 9.12638 17.9733 8.50614 17.5907 8.12359C17.2081 7.74103 16.5879 7.74103 16.2053 8.12359L11.0205 13.3085L8.28457 10.5726C7.90202 10.19 7.28177 10.19 6.89922 10.5726C6.51667 10.9551 6.51667 11.5754 6.89922 11.9579L10.3278 15.3865C10.7103 15.769 11.3306 15.769 11.7131 15.3865L17.5907 9.50894Z" fill="white"/>
</svg>
