<svg width="116" height="29" viewBox="0 0 116 29" fill="none" xmlns="http://www.w3.org/2000/svg">
<path d="M110.888 3.90391C110.888 3.13871 111.455 2.55508 112.172 2.55508C112.877 2.55508 113.444 3.13871 113.444 3.90391C113.444 4.68209 112.877 5.26572 112.172 5.26572C111.455 5.26572 110.888 4.68209 110.888 3.90391ZM112.172 5.52511C113.028 5.52511 113.759 4.83772 113.759 3.90391C113.759 2.98307 113.028 2.28271 112.172 2.28271C111.303 2.28271 110.573 2.98307 110.573 3.90391C110.573 4.83772 111.303 5.52511 112.172 5.52511ZM111.832 4.03361H112.147L112.625 4.83772H112.94L112.424 4.02064C112.688 3.98173 112.89 3.83907 112.89 3.50186C112.89 3.13871 112.676 2.98307 112.248 2.98307H111.555V4.83772H111.832V4.03361ZM111.832 3.78719V3.21653H112.21C112.399 3.21653 112.6 3.25543 112.6 3.48889C112.6 3.77422 112.399 3.78719 112.172 3.78719H111.832ZM66.1273 6.0439C73.3796 6.0439 74.4373 5.81044 74.4373 13.8256V13.8516C74.4373 21.8798 73.367 21.5685 66.1147 21.5685H57.8299L57.8425 6.0439H66.1273ZM68.721 16.5233V11.115H63.4706V16.5233H68.721ZM79.6751 21.5685H73.7448L80.7831 6.05687H86.6001L93.6384 21.5685H87.7081L86.8771 19.7787H80.5061L79.6751 21.5685ZM83.6916 11.5949L82.0296 15.2912H85.3536L83.6916 11.5949ZM43.7658 6.0439C39.913 6.10874 39.9382 8.70266 39.9382 10.9075C39.9382 13.1383 39.8375 15.8489 43.7658 15.9008V6.0439ZM43.7658 15.9008H51.4463V16.9643H40.53V21.5685H52.5291C56.4701 21.5036 56.3567 18.793 56.3567 16.5752C56.3567 14.3444 56.4575 11.6468 52.5291 11.5819H44.5213V10.5314H55.211V6.05687L43.7407 6.0439L43.7658 15.9008ZM7.60853 14.2926L14.6683 21.5685H19.7676V6.05687H14.3913L14.3787 13.3198L7.31768 6.05687H2.23096V21.5685H7.60853V14.2926ZM92.9333 13.7997C92.9333 21.8668 94.0161 21.6463 101.281 21.6463C108.546 21.6463 109.604 21.8668 109.604 13.7997V13.7867C109.604 5.70669 108.546 5.94014 101.281 5.94014C94.0161 5.94014 92.9333 5.70669 92.9333 13.7867V13.7997ZM98.6496 16.4974V11.0891H103.9V16.4974H98.6496ZM108.987 26.7045V21.4388H103.887V26.7045H108.987ZM26.9947 19.7787H33.3783L34.2093 21.5685H40.1271L33.0887 6.05687H27.2717L20.246 21.5685H26.1763L26.9947 19.7787ZM31.8422 15.2912H28.5308L30.1928 11.5949L31.8422 15.2912Z" fill="white"/>
</svg>
