<svg width="32" height="32" viewBox="0 0 32 32" fill="none" xmlns="http://www.w3.org/2000/svg">
<path d="M27.1996 1.60001H4.79961C3.03961 1.60001 1.59961 3.04001 1.59961 4.80001V27.2C1.59961 28.9616 3.03961 30.4 4.79961 30.4H15.9996V19.2H12.7996V15.24H15.9996V11.96C15.9996 8.49761 17.9388 6.06561 22.0252 6.06561L24.91 6.06881V10.2368H22.9948C21.4044 10.2368 20.7996 11.4304 20.7996 12.5376V15.2416H24.9084L23.9996 19.2H20.7996V30.4H27.1996C28.9596 30.4 30.3996 28.9616 30.3996 27.2V4.80001C30.3996 3.04001 28.9596 1.60001 27.1996 1.60001Z" fill="#00FFA3" fill-opacity="0.6"/>
</svg>
