<svg width="32" height="32" viewBox="0 0 32 32" fill="none" xmlns="http://www.w3.org/2000/svg">
<path d="M15.996 11.9979C13.2417 11.9979 10.9939 14.2456 10.9939 17C10.9939 19.7544 13.2417 22.0021 15.996 22.0021C18.7503 22.0021 20.998 19.7544 20.998 17C20.998 14.2456 18.7503 11.9979 15.996 11.9979ZM30.9983 17C30.9983 14.9286 31.0171 12.876 30.9008 10.8083C30.7844 8.40669 30.2366 6.27525 28.4804 4.51907C26.7205 2.75913 24.5929 2.21501 22.1913 2.09868C20.1199 1.98235 18.0673 2.00112 15.9997 2.00112C13.9284 2.00112 11.8758 1.98235 9.80815 2.09868C7.40658 2.21501 5.27517 2.76288 3.51902 4.51907C1.75911 6.27901 1.21501 8.40669 1.09868 10.8083C0.982354 12.8797 1.00112 14.9324 1.00112 17C1.00112 19.0676 0.982354 21.124 1.09868 23.1917C1.21501 25.5933 1.76287 27.7247 3.51902 29.4809C5.27893 31.2409 7.40658 31.785 9.80815 31.9013C11.8795 32.0176 13.9321 31.9989 15.9997 31.9989C18.0711 31.9989 20.1237 32.0176 22.1913 31.9013C24.5929 31.785 26.7243 31.2371 28.4804 29.4809C30.2403 27.721 30.7844 25.5933 30.9008 23.1917C31.0208 21.124 30.9983 19.0714 30.9983 17ZM15.996 24.6964C11.7369 24.6964 8.29966 21.2591 8.29966 17C8.29966 12.7409 11.7369 9.30355 15.996 9.30355C20.255 9.30355 23.6923 12.7409 23.6923 17C23.6923 21.2591 20.255 24.6964 15.996 24.6964ZM24.0075 10.7858C23.0131 10.7858 22.2101 9.98276 22.2101 8.98834C22.2101 7.99392 23.0131 7.19087 24.0075 7.19087C25.0019 7.19087 25.8049 7.99392 25.8049 8.98834C25.8052 9.22447 25.7589 9.45834 25.6687 9.67655C25.5785 9.89476 25.4461 10.093 25.2791 10.26C25.1122 10.427 24.9139 10.5594 24.6957 10.6496C24.4775 10.7398 24.2436 10.7861 24.0075 10.7858Z" fill="#00FFA3" fill-opacity="0.6"/>
</svg>
