<svg width="32" height="32" viewBox="0 0 32 32" fill="none" xmlns="http://www.w3.org/2000/svg">
<path d="M26.9635 0C28.8385 0 30.3485 1.516 30.4375 3.302V32L26.8695 28.969L24.9115 27.188L22.7705 25.323L23.6615 28.261H4.9475C3.0775 28.261 1.5625 26.844 1.5625 24.959V3.308C1.5625 1.522 3.0785 0.006 4.9535 0.006H26.9535L26.9635 0ZM18.8065 7.578H18.7645L18.4935 7.844C21.2595 8.646 22.5975 9.896 22.5975 9.896C20.8165 9.005 19.2065 8.557 17.6025 8.375C16.4465 8.198 15.2845 8.292 14.3055 8.375H14.0345C13.4095 8.375 12.0765 8.646 10.2895 9.359C9.6695 9.63 9.3105 9.807 9.3105 9.807C9.3105 9.807 10.6435 8.468 13.5915 7.755L13.4095 7.578C13.4095 7.578 11.1805 7.489 8.7745 9.271C8.7745 9.271 6.3685 13.464 6.3685 18.63C6.3685 18.63 7.7015 20.948 11.3585 21.036C11.3585 21.036 11.8945 20.328 12.4315 19.703C10.3795 19.078 9.5775 17.828 9.5775 17.828C9.5775 17.828 9.7595 17.917 10.0255 18.094H10.1035C10.1455 18.094 10.1665 18.115 10.1865 18.136V18.146C10.2075 18.167 10.2285 18.182 10.2645 18.182C10.7075 18.364 11.1445 18.541 11.5045 18.718C12.1295 18.984 12.9265 19.254 13.9055 19.432C15.1455 19.614 16.5665 19.698 18.1865 19.432C18.9835 19.25 19.7855 19.078 20.5875 18.718C21.1035 18.452 21.7435 18.187 22.4465 17.734C22.4465 17.734 21.6495 18.984 19.5085 19.609C19.9465 20.229 20.5655 20.942 20.5655 20.942C24.2265 20.859 25.6485 18.541 25.7265 18.64C25.7265 13.479 23.3045 9.281 23.3045 9.281C21.1275 7.661 19.0855 7.599 18.7265 7.599L18.7995 7.573L18.8065 7.578ZM19.0305 13.464C19.9685 13.464 20.7235 14.261 20.7235 15.24C20.7235 16.23 19.9635 17.026 19.0305 17.026C18.0925 17.026 17.3375 16.229 17.3375 15.25C17.3375 14.26 18.0975 13.464 19.0305 13.464ZM12.9735 13.464C13.9055 13.464 14.6615 14.261 14.6615 15.24C14.6615 16.23 13.9015 17.026 12.9685 17.026C12.0305 17.026 11.2705 16.229 11.2705 15.25C11.2705 14.26 12.0305 13.464 12.9685 13.464H12.9735Z" fill="#00FFA3" fill-opacity="0.6"/>
</svg>
