<svg width="93" height="93" viewBox="0 0 93 93" fill="none" xmlns="http://www.w3.org/2000/svg">
<path fill-rule="evenodd" clip-rule="evenodd" d="M26.1269 43.5328C27.7413 43.5328 29.058 44.8495 29.058 46.4639C29.058 48.0782 27.7413 49.3954 26.1269 49.3954C25.867 49.3953 25.6081 49.3604 25.3574 49.2916L19.3805 55.269C21.3135 56.7594 23.6861 57.5671 26.1269 57.5656C32.2409 57.5656 37.2282 52.5787 37.2282 46.4639C37.2282 40.3499 32.2414 35.3631 26.1269 35.3631C25.7501 35.3631 25.3777 35.3824 25.0105 35.4195L15.1492 45.2803C15.3099 45.6427 15.4001 46.0431 15.4001 46.4639C15.4001 48.0782 14.0834 49.3954 12.469 49.3954C10.8547 49.3954 9.538 48.0782 9.538 46.4639C9.538 44.85 10.8547 43.5328 12.469 43.5328C12.7532 43.5328 13.0277 43.5733 13.2878 43.6496L19.2507 37.6867C17.3115 36.1791 14.9248 35.3614 12.4686 35.3631C6.35463 35.3631 1.36728 40.3499 1.36728 46.4639C1.36728 52.5787 6.35414 57.5656 12.4686 57.5656C12.8695 57.5656 13.2651 57.5429 13.655 57.5014L22.5716 48.5853L23.4656 47.6908C23.2872 47.3064 23.1949 46.8876 23.1954 46.4639C23.1959 44.85 24.5126 43.5328 26.1269 43.5328ZM59.6657 44.3144C59.6657 46.8489 58.8894 48.9438 57.3383 50.6107C55.5864 52.489 53.1465 53.4293 50.01 53.4293C46.869 53.4293 44.4243 52.489 42.6734 50.6107C41.1218 48.9438 40.346 46.8489 40.346 44.3144C40.346 41.7838 41.1218 39.6889 42.6734 38.022C44.4243 36.1427 46.869 35.2034 50.01 35.2034C53.147 35.2034 55.5869 36.1427 57.3383 38.022C58.8894 39.6889 59.6657 41.7838 59.6657 44.3144ZM53.354 44.3144C53.354 43.1628 53.011 42.2268 52.3297 41.5185C51.689 40.8517 50.917 40.5183 50.0095 40.5183C49.0908 40.5183 48.3107 40.8517 47.6704 41.5185C46.9882 42.2268 46.6457 43.1628 46.6457 44.3144C46.6457 45.47 46.9877 46.405 47.6704 47.1137C48.3102 47.781 49.0904 48.1134 50.0095 48.1134C50.917 48.1134 51.6885 47.781 52.3297 47.1137C53.011 46.4055 53.354 45.47 53.354 44.3144ZM77.2187 44.3144C77.2187 46.7953 76.4959 48.7995 75.0456 50.3299C73.4269 52.0307 71.1144 52.8837 68.1052 52.8837H60.6259V35.7491H68.1052C71.4005 35.7491 73.8288 36.6961 75.3886 38.5903C76.6088 40.0715 77.2187 41.9768 77.2187 44.3144ZM70.9069 44.3183C70.9069 43.1362 70.5788 42.2234 69.9241 41.5865C69.3297 41.0109 68.5269 40.7229 67.5214 40.7229H66.7272V47.9016H67.5214C68.3093 47.9016 68.9717 47.7308 69.5174 47.3897C70.4442 46.8069 70.9069 45.784 70.9069 44.3183ZM91.6317 47.5229C91.6317 49.3756 90.9644 50.8303 89.6357 51.898C88.3701 52.9174 86.7123 53.4293 84.6676 53.4293C82.2354 53.4293 79.9379 52.8152 77.7837 51.5882L79.4931 46.9772C81.1204 48.0946 82.5056 48.6557 83.6544 48.6557C84.7728 48.6557 85.331 48.4439 85.331 48.0232C85.331 47.6671 85.1462 47.3559 84.7771 47.0911C84.3144 46.7649 83.2713 46.2463 81.6439 45.538C79.5461 44.6213 78.4992 43.045 78.4992 40.8213C78.4992 39.0371 79.1539 37.6432 80.4648 36.6354C81.7004 35.6805 83.32 35.2034 85.331 35.2034C87.3232 35.2034 89.2058 35.7336 90.9793 36.7907L89.5001 41.45C88.2008 40.4691 86.9574 39.9765 85.7826 39.9765C85.041 39.9765 84.6676 40.1811 84.6676 40.5863C84.6676 40.7948 84.822 41.0032 85.1313 41.2078C85.4931 41.4616 86.295 41.89 87.5378 42.496C89.0437 43.2347 90.1017 43.9695 90.7048 44.6932C91.3224 45.4396 91.6317 46.3867 91.6317 47.5229ZM41.6159 54.8333V57.7075H42.5258V56.6426L42.4988 56.1727L43.497 57.7075H44.4065V54.8333H43.4618V55.8625L43.497 56.3281L42.4988 54.8333H41.6159ZM48.3179 54.8333V57.7075H50.7269V57.0243H49.2983V56.6079H50.4514V55.9247H49.2983V55.5431H50.6695V54.8333H48.3179ZM54.399 54.8333V55.6101H55.2332V57.7075H56.1996V55.6101H57.0517V54.8333H54.399ZM60.7817 54.8333L61.5266 57.7075H62.4588L62.7734 56.053L63.1193 57.7075H64.0553L64.7477 54.8333H63.8469L63.5275 56.5814L63.2129 54.8333H62.3382L62.0632 56.5814L61.7399 54.8333H60.7817ZM70.0163 54.7354C69.679 54.7475 69.3973 54.8305 69.171 54.9844C68.9447 55.1383 68.7754 55.3284 68.661 55.5566C68.5467 55.7848 68.4902 56.0289 68.4902 56.2904C68.4902 56.5519 68.5476 56.7946 68.6625 57.018C68.7783 57.2414 68.951 57.4271 69.1816 57.5748C69.4122 57.7224 69.7007 57.7962 70.0467 57.7962C70.3038 57.7962 70.5292 57.7538 70.7231 57.6679C70.9171 57.582 71.0782 57.4681 71.2065 57.3258C71.3353 57.185 71.4335 57.0191 71.4951 56.8385C71.5592 56.6547 71.5901 56.4656 71.5901 56.2702C71.5812 56.0786 71.5407 55.8899 71.4705 55.7115C71.4009 55.5297 71.298 55.3627 71.167 55.2188C71.0298 55.0707 70.8645 54.9515 70.6806 54.8681C70.4896 54.7798 70.2681 54.7354 70.0163 54.7354ZM70.0476 55.4895C70.1099 55.4895 70.174 55.5035 70.2387 55.53C70.3034 55.5566 70.3612 55.6 70.4109 55.6608C70.4611 55.7211 70.5021 55.7983 70.5354 55.8933C70.5673 55.9874 70.5846 56.1018 70.5846 56.2345C70.5846 56.5042 70.5393 56.7121 70.4491 56.8602C70.3588 57.0083 70.2247 57.0826 70.0476 57.0826C69.9687 57.0846 69.8906 57.0669 69.8202 57.0312C69.7498 56.9955 69.6893 56.9429 69.6443 56.8781C69.5435 56.7425 69.4938 56.5399 69.4938 56.2702C69.4938 56.0072 69.5463 55.8113 69.653 55.682C69.7591 55.5546 69.8908 55.4895 70.0476 55.4895ZM76.3724 55.5431H76.8916C76.9953 55.5431 77.0715 55.5696 77.1227 55.6232C77.1728 55.6758 77.1979 55.7341 77.1979 55.7983C77.1967 55.8635 77.1713 55.926 77.1265 55.9734C77.101 56.0004 77.0699 56.0214 77.0354 56.0351C77.0009 56.0488 76.9638 56.0547 76.9268 56.0526H76.3729V55.5431H76.3724ZM75.4272 54.8333V57.7075H76.3989V56.7357C76.5085 56.7357 76.6146 56.7329 76.7183 56.7271C76.8221 56.7213 76.9123 56.7357 76.989 56.7715C77.0541 56.7951 77.0985 56.8327 77.1198 56.8843C77.1424 56.936 77.1564 57.0001 77.1622 57.0773C77.168 57.1536 77.1709 57.2452 77.1709 57.3495C77.1709 57.4551 77.183 57.5738 77.2066 57.7065H78.2092V57.6134C78.1498 57.5994 78.1151 57.5661 78.1045 57.5164C78.0939 57.4667 78.0895 57.3938 78.0895 57.2988C78.0895 57.184 78.0886 57.0802 78.0876 56.9886C78.0857 56.8964 78.0717 56.8134 78.0452 56.7377C78.0186 56.6619 77.9747 56.5934 77.9144 56.5331C77.8541 56.4728 77.7644 56.4154 77.6457 56.3623C77.7315 56.3527 77.8126 56.3088 77.8879 56.2296C77.9631 56.1495 78.0205 56.0526 78.0601 55.9382C78.1006 55.8253 78.1166 55.7037 78.1093 55.5744C78.1012 55.4444 78.055 55.3196 77.9766 55.2155C77.8946 55.1045 77.7701 55.0128 77.6018 54.9405C77.4334 54.8681 77.209 54.8319 76.9273 54.8319H75.4272V54.8333ZM82.0453 54.8333V57.7075H83.0166V56.7719L83.2072 56.5814L83.8903 57.7075H85.0531L83.8903 55.9247L84.9334 54.8333H83.8064L83.0166 55.6984V54.8333H82.0453ZM90.397 55.6714H91.3065C91.2828 55.4857 91.2375 55.3332 91.1719 55.2155C91.1103 55.1026 91.022 55.0065 90.9147 54.9356C90.8 54.8639 90.6728 54.8143 90.5398 54.7894C90.3789 54.7576 90.2155 54.7396 90.0516 54.7359C89.6699 54.7417 89.3804 54.8189 89.1816 54.967C88.9838 55.1151 88.869 55.298 88.8357 55.5175C88.8063 55.7361 88.829 55.9093 88.9047 56.0386C88.98 56.1669 89.0885 56.2702 89.2289 56.3488C89.3693 56.4279 89.5295 56.4882 89.7104 56.5307L90.2513 56.6614C90.3343 56.6889 90.3917 56.7275 90.4235 56.7792C90.4391 56.8012 90.4497 56.8263 90.4548 56.8527C90.4599 56.8792 90.4592 56.9064 90.453 56.9326C90.4365 56.9873 90.4011 57.0344 90.3531 57.0653C90.3005 57.1039 90.2305 57.1208 90.1447 57.1179C90.0535 57.1179 89.9608 57.0962 89.8697 57.0537C89.7785 57.0103 89.7172 56.9283 89.6878 56.8076H88.7783C88.7783 56.9847 88.815 57.1367 88.8893 57.2616C88.9626 57.3881 89.0615 57.4899 89.186 57.568C89.3105 57.6462 89.4538 57.7036 89.6168 57.7412C89.779 57.7779 89.9469 57.7957 90.1181 57.7957C90.2831 57.7957 90.4443 57.7731 90.6016 57.7268C90.7579 57.6814 90.8964 57.6158 91.016 57.5299C91.1357 57.444 91.2307 57.3369 91.3026 57.2086C91.3731 57.0793 91.4054 56.9345 91.3996 56.7715C91.3945 56.6513 91.3627 56.5338 91.3065 56.4274C91.2514 56.3289 91.1751 56.2438 91.0831 56.1785C90.9769 56.1042 90.8612 56.0447 90.7391 56.0014C90.5924 55.9486 90.4425 55.905 90.2904 55.8707C90.2041 55.8515 90.1178 55.833 90.0313 55.8152C89.951 55.8012 89.8728 55.7769 89.7987 55.7428C89.7629 55.7274 89.7338 55.6997 89.7167 55.6647C89.7098 55.6498 89.7062 55.6335 89.7062 55.6171C89.7062 55.6007 89.7098 55.5845 89.7167 55.5696C89.7331 55.5335 89.76 55.5033 89.7939 55.4828C89.8397 55.4556 89.8913 55.4397 89.9444 55.4364C90.0495 55.4256 90.1557 55.4378 90.2556 55.4721C90.3415 55.5045 90.3888 55.5715 90.397 55.6714Z" fill="white"/>
</svg>
