<svg width="24" height="24" viewBox="0 0 24 24" fill="none" xmlns="http://www.w3.org/2000/svg">
<path fill-rule="evenodd" clip-rule="evenodd" d="M5.00006 1.5C4.44777 1.5 4.00006 1.94772 4.00006 2.5V7.5H2.0117C1.99157 7.49978 1.97144 7.50017 1.95136 7.50116C1.80239 7.5083 1.66196 7.54803 1.53706 7.61338C1.43183 7.66824 1.33505 7.74262 1.25253 7.83569C1.09565 8.01208 1.00027 8.24436 1 8.49893V21.5C1 22.0523 1.44772 22.5 2 22.5H22C22.5523 22.5 23 22.0523 23 21.5V8.51461C23.0023 8.36437 22.9709 8.2128 22.9041 8.07201C22.8936 8.04996 22.8823 8.02818 22.87 8.00671C22.8466 7.96539 22.8203 7.9259 22.7913 7.88853C22.6923 7.76037 22.5682 7.66274 22.431 7.5974C22.3161 7.54242 22.189 7.50874 22.0549 7.50148C22.0328 7.50026 22.0106 7.49976 21.9884 7.5H20.0001V2.5C20.0001 1.94772 19.5523 1.5 19.0001 1.5H5.00006ZM3 20.5V10.5L11.4001 16.8C11.7556 17.0667 12.2445 17.0667 12.6001 16.8L21 10.5V20.5H3ZM13 6C13 5.44772 12.5523 5 12 5C11.4477 5 11 5.44772 11 6V9.08579L10.2071 8.29289C9.81658 7.90237 9.18342 7.90237 8.79289 8.29289C8.40237 8.68342 8.40237 9.31658 8.79289 9.70711L11.2926 12.2068L11.295 12.2092C11.3904 12.304 11.5001 12.3757 11.6172 12.4241C11.7351 12.473 11.8644 12.5 12 12.5C12.1356 12.5 12.2649 12.473 12.3828 12.4241C12.4999 12.3757 12.6096 12.304 12.705 12.2092L12.7071 12.2071L15.2071 9.70711C15.5976 9.31658 15.5976 8.68342 15.2071 8.29289C14.8166 7.90237 14.1834 7.90237 13.7929 8.29289L13 9.08579V6Z" fill="white"/>
</svg>
