<svg width="31" height="31" viewBox="0 0 31 31" fill="none" xmlns="http://www.w3.org/2000/svg">
<path d="M12.4167 15.5L18.5833 21.6667L12.4167 27.8334V23.0542C5.38667 22.345 0.0833359 19.2309 0.0833359 15.5C0.0833359 11.7692 5.38667 8.65504 12.4167 7.94587V11.0138C7.09792 11.538 3.16667 13.3417 3.16667 15.5C3.16667 17.6584 7.09792 19.4621 12.4167 19.9863V15.5ZM27.8333 15.5C27.8333 13.3417 23.9021 11.538 18.5833 11.0138V7.94587C25.6133 8.65504 30.9167 11.7692 30.9167 15.5C30.9167 18.83 26.6925 21.6667 20.7725 22.7459L21.8517 21.6667L20.0017 19.8013C24.5804 19.1384 27.8333 17.458 27.8333 15.5ZM13.9583 0.083374H17.0417V17.0417L13.9583 13.9584V0.083374ZM13.9583 30.9167V29.375L17.0417 26.2917V30.9167H13.9583Z" fill="white"/>
</svg>
