<svg width="22" height="20" viewBox="0 0 22 20" fill="none" xmlns="http://www.w3.org/2000/svg">
<path d="M6.20711 0.792893C6.59763 1.18342 6.59763 1.81658 6.20711 2.20711L3.20711 5.20711C2.81658 5.59763 2.18342 5.59763 1.79289 5.20711L0.292893 3.70711C-0.0976311 3.31658 -0.0976311 2.68342 0.292893 2.29289C0.683418 1.90237 1.31658 1.90237 1.70711 2.29289L2.5 3.08579L4.79289 0.792893C5.18342 0.402369 5.81658 0.402369 6.20711 0.792893Z" fill="white"/>
<path d="M9 2H21C21.5523 2 22 2.44772 22 3C22 3.55228 21.5523 4 21 4H9C8.44771 4 8 3.55228 8 3C8 2.44772 8.44771 2 9 2Z" fill="white"/>
<path d="M8 10C8 9.44771 8.44771 9 9 9H21C21.5523 9 22 9.44771 22 10C22 10.5523 21.5523 11 21 11H9C8.44771 11 8 10.5523 8 10Z" fill="white"/>
<path d="M9 16C8.44771 16 8 16.4477 8 17C8 17.5523 8.44771 18 9 18H21C21.5523 18 22 17.5523 22 17C22 16.4477 21.5523 16 21 16H9Z" fill="white"/>
<path d="M0 10C0 8.34315 1.34315 7 3 7C4.65685 7 6 8.34315 6 10C6 11.6569 4.65685 13 3 13C1.34315 13 0 11.6569 0 10Z" fill="white"/>
<path d="M0 17C0 15.3431 1.34315 14 3 14C4.65685 14 6 15.3431 6 17C6 18.6569 4.65685 20 3 20C1.34315 20 0 18.6569 0 17Z" fill="white"/>
</svg>
