<svg width="24" height="24" viewBox="0 0 24 24" fill="none" xmlns="http://www.w3.org/2000/svg">
<path d="M12 21C12.5523 21 13 21.4477 13 22C13 22.5523 12.5523 23 12 23C11.4477 23 11 22.5523 11 22C11 21.4477 11.4477 21 12 21ZM12 4C16.4183 4 20 7.58172 20 12C20 16.4183 16.4183 20 12 20C7.58172 20 4 16.4183 4 12C4 7.58172 7.58172 4 12 4ZM5 18C5.55228 18 6 18.4477 6 19C6 19.5523 5.55228 20 5 20C4.44772 20 4 19.5523 4 19C4 18.4477 4.44772 18 5 18ZM19 18C19.5523 18 20 18.4477 20 19C20 19.5523 19.5523 20 19 20C18.4477 20 18 19.5523 18 19C18 18.4477 18.4477 18 19 18ZM17.6438 14.0393C16.4174 13.3176 15.0771 12.9686 14.3029 13.3555C13.9424 13.5357 13.7072 13.8282 13.5636 14.1871C13.4839 14.3864 13.4467 14.5459 13.3909 14.8524L13.3622 15.0084L13.3226 15.1897L13.2927 15.2929L13.2756 15.3096L13.2412 15.3366L13.1837 15.3673L12.863 15.5141C12.3079 15.7993 12.0003 16.2563 12 16.9997C11.9999 17.3811 12.0687 17.705 12.2047 17.9968L12.203 17.994L12.3142 17.9919C12.9386 17.9597 13.5377 17.832 14.0973 17.6232L14.3738 17.5121L14.3474 17.4894L14.1827 17.3465C14.1149 17.2841 14.0716 17.2375 14.0443 17.1935L14.035 17.176L14.2 17.096C14.3947 16.9935 14.5177 16.8963 14.7069 16.7071C15.0545 16.3595 15.2088 15.9738 15.3164 15.4362L15.355 15.228L15.5025 15.2669C15.5853 15.2909 15.674 15.3202 15.7668 15.3545C16.0572 15.462 16.3618 15.6085 16.6573 15.7831C17.056 15.2929 17.3788 14.7386 17.6079 14.138L17.6438 14.0393ZM12.376 6.01161L12.2931 6.20649C12.1298 6.63052 12.0515 7.09339 12.083 7.5904C12.1253 8.25738 12.3417 8.64126 12.7959 9.14522L12.9285 9.29627C12.9967 9.38056 13 9.41194 13 9.5C13 10.3245 12.177 11.6465 11.4687 11.7738C11.2284 11.817 11.0489 11.7729 10.7621 11.5976L10.6321 11.5143L10.2492 11.2586L10.0442 11.138C9.88159 11.0508 9.72323 10.9874 9.54849 10.9469C9.16016 10.8568 8.76577 10.9091 8.40417 11.1125C7.68763 11.5156 7.54334 11.9958 7.48609 12.974L7.47277 13.1815L7.45075 13.38C7.43071 13.5079 7.40396 13.5755 7.37001 13.6151C7.21914 13.7911 6.75482 13.8296 6.24308 13.6966C6.46331 14.4459 6.82843 15.1436 7.32008 15.7534C7.92424 15.6645 8.47381 15.4005 8.88854 14.9167C9.2412 14.5052 9.39449 14.0473 9.45372 13.4799L9.46029 13.4135L9.479 13.149L9.71058 13.2987C10.3907 13.7159 11.0137 13.8876 11.8225 13.7422C13.6178 13.4195 15.0001 11.1994 15.0001 9.5C15.0001 8.77535 14.7791 8.3583 14.2973 7.82376L14.1641 7.67138C14.1218 7.6189 14.1015 7.58438 14.0909 7.54733L14.079 7.46381C14.0583 7.13764 14.1592 6.84445 14.3505 6.57803C14.372 6.54812 14.3932 6.52026 14.4138 6.49458L14.4076 6.50218C13.7723 6.22374 13.0867 6.05559 12.376 6.01161ZM22 11C22.5523 11 23 11.4477 23 12C23 12.5523 22.5523 13 22 13C21.4477 13 21 12.5523 21 12C21 11.4477 21.4477 11 22 11ZM2 11C2.55228 11 3 11.4477 3 12C3 12.5523 2.55228 13 2 13C1.44772 13 1 12.5523 1 12C1 11.4477 1.44772 11 2 11ZM19 4C19.5523 4 20 4.44772 20 5C20 5.55228 19.5523 6 19 6C18.4477 6 18 5.55228 18 5C18 4.44772 18.4477 4 19 4ZM5 4C5.55228 4 6 4.44772 6 5C6 5.55228 5.55228 6 5 6C4.44772 6 4 5.55228 4 5C4 4.44772 4.44772 4 5 4ZM12 1C12.5523 1 13 1.44772 13 2C13 2.55228 12.5523 3 12 3C11.4477 3 11 2.55228 11 2C11 1.44772 11.4477 1 12 1Z" fill="white"/>
</svg>
