<svg width="99" height="25" viewBox="0 0 99 25" fill="none" xmlns="http://www.w3.org/2000/svg">
<g clip-path="url(#clip0_2_3661)">
<path d="M0.0387573 0H3.33292L8.47265 18.8962H8.53879L14.0408 0H17.6649L23.167 18.8962H23.233L28.3723 0H31.6674L24.8809 23.6377H21.5524L15.8859 4.34024H15.8203L10.1866 23.6377H6.85869L0.0387573 0ZM42.533 14.4228C42.4669 11.7851 41.0173 9.81517 38.0193 9.81517C35.0873 9.81517 33.1761 12.3194 33.1761 14.4228H42.5329H42.533ZM33.1762 16.8263C33.1762 19.5968 35.7126 21.4339 38.4472 21.4339C40.2595 21.4339 41.5778 20.4987 42.7312 19.0631L44.9714 20.7989C43.3236 22.9698 41.0501 24.0378 38.0526 24.0378C33.1101 24.0378 30.0128 20.4328 30.0128 15.725C30.0128 10.984 33.4072 7.41064 38.0858 7.41064C43.5875 7.41064 45.6959 11.685 45.6959 15.7582V16.8263H33.1762Z" fill="white"/>
<path d="M82.8826 16.6459H82.0608C79.8925 16.6459 76.148 16.8122 76.148 19.1086C76.148 20.5711 77.6249 21.205 78.9065 21.205C81.6 21.205 82.8826 19.7733 82.8826 17.5435V16.646V16.6459ZM83.1118 21.6073H83.0114C81.8957 23.4037 80.0569 24.2023 77.9539 24.2023C75.0308 24.2023 72.2051 22.5697 72.2051 19.4092C72.2051 14.2137 78.1841 13.8497 82.1248 13.8497H83.1118V13.417C83.1118 11.4516 81.6 10.4213 79.4965 10.4213C77.856 10.4213 76.3432 11.0875 75.2932 12.0855L73.2243 9.98867C74.9643 8.19082 77.4286 7.42541 79.9253 7.42541C86.66 7.42541 86.66 12.351 86.66 14.6156V23.8025H83.1118V21.6073ZM88.877 7.82477H92.8199V10.3544H92.8864C93.7397 8.52376 95.4805 7.42541 97.5488 7.42541C98.0414 7.42541 98.5005 7.52425 98.9612 7.6577V11.5191C98.3047 11.3515 97.681 11.2195 97.0578 11.2195C93.3466 11.2195 92.8199 14.382 92.8199 15.2473V23.8021H88.877V7.82477ZM59.5768 20.9659C54.9863 20.9659 51.2648 17.1942 51.2648 12.5429C51.2648 7.8902 54.9863 4.1185 59.5768 4.1185C62.3878 4.1185 64.8639 5.53785 66.3678 7.70175H63.9794L68.8366 11.4957L72.8842 7.70175H70.8701C68.9962 3.28414 64.6736 0.185547 59.6263 0.185547C52.8652 0.185547 47.3832 5.73974 47.3832 12.5926C47.3832 19.4444 52.8652 25 59.6263 25C64.2707 25 68.3095 22.3813 70.3856 18.5208L67.1551 15.9937C65.8524 18.923 62.9533 20.9659 59.577 20.9659H59.5768ZM97.4491 23.2935C97.1152 23.6323 96.7134 23.8025 96.2414 23.8025C95.769 23.8025 95.367 23.6323 95.0347 23.2935C94.7062 22.9562 94.5398 22.5474 94.5398 22.0667C94.5398 21.5911 94.7067 21.1847 95.04 20.8478C95.371 20.5105 95.7719 20.3443 96.2414 20.3443C96.7133 20.3443 97.1152 20.5105 97.4491 20.8478C97.7825 21.1827 97.949 21.59 97.949 22.0667C97.949 22.5449 97.7825 22.9552 97.4491 23.2935ZM95.2055 21.0165C94.9201 21.3067 94.7777 21.6575 94.7777 22.0697C94.7777 22.4839 94.9186 22.8366 95.2021 23.1283C95.487 23.421 95.8331 23.5668 96.2414 23.5668C96.6478 23.5668 96.9948 23.421 97.2792 23.1283C97.5632 22.8366 97.7071 22.4839 97.7071 22.0697C97.7071 21.6575 97.5632 21.3067 97.2793 21.0165C96.9933 20.7243 96.6463 20.5785 96.2414 20.5785C95.8361 20.5785 95.4915 20.7243 95.2056 21.0165H95.2055ZM96.2077 21.1138C96.4397 21.1138 96.6095 21.137 96.7183 21.1827C96.9125 21.2635 97.0085 21.4233 97.0085 21.6619C97.0085 21.8321 96.9473 21.9561 96.8254 22.037C96.7608 22.0801 96.6702 22.1103 96.5552 22.1273C96.7011 22.1511 96.8088 22.2136 96.8769 22.3147C96.9454 22.415 96.9787 22.5132 96.9787 22.6084V22.7473C96.9787 22.791 96.9807 22.8386 96.983 22.8888C96.9855 22.9388 96.992 22.9721 96.9993 22.9879L97.011 23.0117H96.7035C96.7012 23.0055 96.6999 22.999 96.6995 22.9923C96.6977 22.9859 96.6962 22.978 96.6938 22.9711L96.6869 22.9111V22.7598C96.6869 22.5405 96.6276 22.3951 96.5102 22.3247C96.4402 22.283 96.3178 22.2637 96.1416 22.2637H95.8816V23.0117H95.5522V21.1137H96.2077V21.1138ZM96.5626 21.4118C96.4798 21.3647 96.3467 21.3414 96.1635 21.3414H95.8816V22.0286H96.1802C96.3198 22.0286 96.4241 22.0151 96.4945 21.9854C96.6222 21.9347 96.6869 21.8365 96.6869 21.6892C96.6869 21.5513 96.6453 21.4595 96.5626 21.4118Z" fill="#87CF32"/>
</g>
<defs>
<clipPath id="clip0_2_3661">
<rect width="99" height="25" fill="white"/>
</clipPath>
</defs>
</svg>
