<svg width="202" height="41" viewBox="0 0 202 41" fill="none" xmlns="http://www.w3.org/2000/svg">
<path fill-rule="evenodd" clip-rule="evenodd" d="M15.0017 35.5438L35.9181 39.6754V20.6325H15.0017V35.5438ZM37.3605 37.5118H38.0233V39.5776H38.2948V37.4961H38.9639V37.2438H37.3605V37.5118ZM41.1796 37.269L40.4537 38.8712C40.4221 38.9342 40.3905 39.0288 40.3432 39.155H40.3337L40.2075 38.8775L39.4815 37.269H39.1343V39.5776H39.3995V38.0322C39.3995 37.8115 39.39 37.6538 39.3837 37.5592C39.3995 37.6538 39.4216 37.7484 39.4468 37.7799L40.2359 39.5461H40.3621L41.1512 37.7673C41.1733 37.7232 41.1954 37.6475 41.2206 37.5465H41.2269C41.2048 37.72 41.1954 37.8714 41.1954 37.9944V39.5398H41.4668V37.2375H41.1322L41.1796 37.269ZM0 32.5698L12.9722 35.137V20.6608H0V32.6076V32.5698ZM116.614 16.4694H116.551C115.519 14.6528 113.868 14.4005 111.602 14.4005C109.298 14.4005 107.467 15.2394 106.078 16.9141C104.69 18.5856 104.005 20.8185 104.005 23.6002C104.005 26.1958 104.627 28.249 105.873 29.7502C107.114 31.2641 108.777 32.0115 110.841 32.0115C113.398 32.0115 115.292 31.3492 116.51 29.1857H116.573V31.6142H120.392V6.71769H116.573V16.4757L116.614 16.4694ZM131.527 14.4005C128.781 14.4005 126.604 15.1952 124.994 16.7816C123.375 18.3901 122.564 20.5978 122.564 23.4047C122.564 26.0224 123.343 28.1039 124.893 29.6808C126.439 31.2578 128.516 32.0462 131.117 32.0462C133.79 32.0462 135.914 31.2388 137.502 29.6241C139.086 28.0093 139.879 25.8584 139.879 23.1745C139.879 20.4401 139.143 18.2986 137.676 16.7564C136.205 15.211 134.156 14.4352 131.527 14.4352V14.4005ZM174.768 23.8052C174.395 23.4173 173.941 23.0704 173.411 22.7645C172.884 22.4554 172.284 22.1558 171.618 21.8593C171.113 21.7016 170.665 21.5124 170.277 21.3547C169.866 21.197 169.551 21.0393 169.267 20.8501C168.982 20.6608 168.762 20.4401 168.635 20.1878C168.477 19.9355 168.414 19.6264 168.414 19.2732C168.414 18.9704 168.477 18.7055 168.616 18.4532C168.758 18.2072 168.954 17.9958 169.207 17.8224C169.459 17.6458 169.765 17.507 170.122 17.4124C170.482 17.3178 170.879 17.261 171.321 17.261C172.742 17.261 173.995 17.671 175.077 18.4752V15.1069C173.954 14.6338 172.672 14.4005 171.227 14.4005C170.428 14.4005 169.648 14.5077 168.891 14.7222C168.133 14.9335 167.455 15.252 166.858 15.6746C166.259 16.0972 165.785 16.6208 165.438 17.2358C165.081 17.8539 164.901 18.5667 164.901 19.3804C164.901 20.0364 164.996 20.6104 165.163 21.1055C165.331 21.5975 165.586 22.0391 165.921 22.4302C166.268 22.8149 166.688 23.1618 167.196 23.4709C167.701 23.7768 168.279 24.0702 168.913 24.3414C169.418 24.5495 169.891 24.7356 170.302 24.8996C170.722 25.0636 171.085 25.2465 171.394 25.4578C171.694 25.666 171.94 25.8994 172.12 26.1706C172.309 26.4387 172.394 26.7698 172.394 27.1483C172.394 28.5045 171.34 29.1857 169.219 29.1857C167.641 29.1857 166.189 28.6432 164.876 27.5615V31.0622C166.12 31.6741 167.591 31.9768 169.285 31.9768C170.16 31.9768 170.996 31.8759 171.788 31.6741C172.577 31.4722 173.284 31.1695 173.89 30.7468C174.496 30.3305 174.983 29.8007 175.342 29.1699C175.708 28.5328 175.892 27.7822 175.892 26.9307C175.892 26.2368 175.791 25.6282 175.585 25.1172C175.383 24.6126 175.096 24.1711 174.724 23.7768L174.768 23.8052ZM79.689 31.6173H83.5081V14.7915H79.689V31.6173ZM95.9121 14.3973C93.5923 14.3973 91.8216 15.4633 90.5938 17.589H90.5307V14.7915H86.8063V31.6173H90.5307V22.0233C90.5307 20.6987 90.9 19.6012 91.6354 18.7307C92.3708 17.8476 93.283 17.1538 94.4129 17.1538C96.5813 17.1538 98.2762 18.0368 98.2099 22.1368V31.5984H101.398V21.3168C101.398 19.0776 100.924 17.343 99.99 16.1508C99.0494 14.965 97.6859 14.3689 95.909 14.3689L95.9121 14.3973ZM116.664 23.9535C116.664 25.4673 116.242 26.7225 115.402 27.7192C114.559 28.6968 113.461 29.2015 112.107 29.2015C110.718 29.2015 109.613 28.6653 108.793 27.6561C107.972 26.6153 107.568 25.2276 107.568 23.4299C107.568 21.4745 107.994 19.9418 108.84 18.8411C109.692 17.7372 110.851 17.1853 112.331 17.1853C113.584 17.1853 114.613 17.6205 115.424 18.4784C116.229 19.3488 116.633 20.4022 116.633 21.6322V23.9251L116.664 23.9535ZM134.756 27.4952C133.951 28.4918 132.799 28.9902 131.297 28.9902C129.813 28.9902 128.646 28.4855 127.762 27.47C126.878 26.4608 126.436 25.0668 126.436 23.3069C126.436 21.4777 126.865 20.0427 127.73 19.0019C128.595 17.9612 129.782 17.4408 131.265 17.4408C132.768 17.4408 133.917 17.9454 134.725 18.9546C135.529 19.9638 135.933 21.3894 135.933 23.2438C135.933 25.0794 135.529 26.4986 134.725 27.4952H134.756ZM157.914 26.9685C157.771 27.5362 157.693 28.0093 157.667 28.4193H157.554C157.513 27.8516 157.44 27.3785 157.342 26.9685L154.344 14.7947H150.809L147.432 26.9055C147.296 27.4416 147.211 27.9368 147.179 28.3878H147.062C147.031 27.7885 146.968 27.3155 146.867 26.937L143.837 14.8262H139.923L144.834 31.652H148.716L152.018 20.2193C152.194 19.6201 152.292 19.147 152.314 18.7685H152.377C152.409 19.3173 152.482 19.8093 152.598 20.2508L155.638 31.6488H159.599L164.523 14.8199H160.925L157.945 26.9938L157.914 26.9685ZM70.3465 25.3916C70.1319 26.3062 70.0088 27.0316 69.9741 27.5678H69.9109C69.8352 26.7635 69.7216 26.0539 69.5701 25.4736L65.1671 8.09592H61.1997L56.4337 25.3412C56.1812 26.2968 56.0234 27.0537 55.9856 27.6119H55.9035C55.8593 26.8235 55.752 26.0665 55.5816 25.3412L51.3711 8.08962H47.1417L53.6373 31.6488H58.0876L62.5253 15.1227C62.7305 14.391 62.8599 13.6404 62.9167 12.8519H62.9798C63.024 13.6908 63.1376 14.4604 63.3207 15.1542L67.7394 31.6362H72.0951L78.4612 8.077H74.4528L70.3181 25.3916H70.3465ZM0 19.0177H12.9722V4.54154L0 7.10246V19.0177ZM15.0017 19.0177H35.9181V0L15.0017 4.13154V19.0177ZM178.243 14.4005C177.681 14.4005 177.201 14.596 176.81 14.9839C176.4 15.3939 176.21 15.867 176.21 16.4032C176.21 16.9393 176.4 17.4439 176.778 17.8224C177.157 18.2008 177.646 18.409 178.205 18.409C178.757 18.409 179.234 18.2198 179.625 17.8287C180.02 17.4408 180.225 16.9708 180.225 16.4221C180.225 15.8733 180.02 15.3971 179.625 15.0092C179.234 14.6244 178.757 14.4288 178.205 14.4288L178.243 14.4005ZM179.461 17.6079C179.114 17.9454 178.704 18.1125 178.23 18.1125C177.757 18.1125 177.347 17.9454 176.999 17.6079C176.652 17.2736 176.494 16.8668 176.494 16.3905C176.494 15.9175 176.652 15.5075 176.999 15.17C177.347 14.8325 177.757 14.6654 178.23 14.6654C178.704 14.6654 179.114 14.8325 179.43 15.17C179.764 15.5075 179.935 15.9143 179.935 16.3905C179.935 16.8636 179.764 17.2736 179.43 17.6079H179.461ZM178.514 16.4915V16.4599C178.704 16.4284 178.862 16.3338 178.956 16.2076C179.057 16.0815 179.114 15.9364 179.114 15.7661C179.114 15.5548 179.019 15.3876 178.862 15.2615C178.685 15.1416 178.451 15.0817 178.136 15.0817H177.378V17.5858H177.826V16.5766H178.035C178.177 16.5766 178.319 16.7185 178.435 17.0087L178.688 17.5858H179.243L178.912 16.9235C178.779 16.6397 178.628 16.482 178.502 16.4631L178.514 16.4915ZM178.167 16.2392H177.826V15.4822H178.11C178.284 15.4822 178.417 15.5138 178.499 15.5768C178.581 15.6084 178.625 15.703 178.625 15.8607C178.625 16.113 178.467 16.2392 178.161 16.2392H178.167ZM81.6806 7.15608C80.4181 7.15608 79.3765 8.10223 79.3765 9.26915C79.3765 10.4361 80.4055 11.3822 81.6711 11.3822C82.9336 11.3822 83.9657 10.4361 83.9657 9.26915C83.9657 8.10223 82.9368 7.15608 81.6711 7.15608H81.6806Z" fill="white"/>
</svg>
