<svg width="89" height="25" viewBox="0 0 89 25" fill="none" xmlns="http://www.w3.org/2000/svg">
<path d="M0 6.05014H5.29735L8.37251 13.974L11.4926 6.05014H16.6552L8.88878 24.8327H3.70366L5.83607 19.8661L0 6.05014ZM22.0199 5.73409C18.0469 5.73409 15.5329 9.32354 15.5329 12.8904C15.5329 16.9088 18.2938 20.0919 21.9526 20.0919C24.691 20.0919 25.7236 18.4213 25.7236 18.4213V19.7307H30.3475V6.05014H25.7236V7.29178C25.7011 7.29178 24.5564 5.73409 22.0199 5.73409ZM23.0076 10.1362C24.8482 10.1362 25.7909 11.6036 25.7909 12.913C25.7909 14.3352 24.7808 15.7349 23.0076 15.7349C21.5486 15.7349 20.2242 14.5384 20.2242 12.9807C20.2242 11.4005 21.2792 10.1362 23.0076 10.1362ZM31.9188 19.7307V0H36.7448V7.33693C36.7448 7.33693 37.8895 5.73409 40.2913 5.73409C43.2318 5.73409 44.9602 7.94645 44.9602 11.0844V19.7307H40.1566V12.2583C40.1566 11.1973 39.6628 10.1588 38.518 10.1588C37.3508 10.1588 36.7448 11.1973 36.7448 12.2583V19.7307H31.9188ZM53.198 5.73409C48.6414 5.73409 45.9253 9.21066 45.9253 12.9581C45.9253 17.2023 49.2025 20.1145 53.2204 20.1145C57.1037 20.1145 60.4931 17.3377 60.4931 13.0259C60.4931 8.30766 56.9241 5.73409 53.198 5.73409ZM53.2429 10.1588C54.859 10.1588 55.9589 11.5133 55.9589 12.9356C55.9589 14.1546 54.9264 15.6672 53.2429 15.6672C51.6941 15.6672 50.5493 14.4255 50.5493 12.913C50.5493 11.4908 51.4921 10.1588 53.2429 10.1588ZM68.5289 5.73409C63.9723 5.73409 61.2562 9.21066 61.2562 12.9581C61.2562 17.2023 64.5334 20.1145 68.5513 20.1145C72.4346 20.1145 75.824 17.3377 75.824 13.0259C75.824 8.30766 72.2774 5.73409 68.5289 5.73409ZM68.5738 10.1588C70.1899 10.1588 71.2898 11.5133 71.2898 12.9356C71.2898 14.1546 70.2572 15.6672 68.5738 15.6672C67.025 15.6672 65.8802 14.4255 65.8802 12.913C65.8802 11.4908 66.8454 10.1588 68.5738 10.1588ZM79.6398 13.5677C81.4131 13.5677 82.8497 15.0125 82.8497 16.7959C82.8497 18.5794 81.4131 20.0242 79.6398 20.0242C77.8666 20.0242 76.43 18.5794 76.43 16.7959C76.43 15.0125 77.8666 13.5677 79.6398 13.5677ZM83.9047 12.3938H78.1359L83.2537 0H89L83.9047 12.3938Z" fill="white"/>
</svg>
