<svg width="51" height="51" viewBox="0 0 51 51" fill="none" xmlns="http://www.w3.org/2000/svg">
<g clip-path="url(#clip0_2_3646)">
<path fill-rule="evenodd" clip-rule="evenodd" d="M50.9965 25.517C50.9965 39.6001 39.5797 51.017 25.4965 51.017C11.4132 51.017 -0.00350952 39.6001 -0.00350952 25.517C-0.00350952 11.4337 11.4132 0.0169678 25.4965 0.0169678C39.5797 0.0169678 50.9965 11.4337 50.9965 25.517Z" fill="url(#paint0_linear_2_3646)"/>
<path fill-rule="evenodd" clip-rule="evenodd" d="M49.7613 25.5169C49.7613 38.918 38.8975 49.7818 25.4965 49.7818C12.0954 49.7818 1.23166 38.918 1.23166 25.5169C1.23166 12.1158 12.0954 1.25208 25.4965 1.25208C38.8975 1.25208 49.7613 12.1158 49.7613 25.5169Z" fill="white"/>
<path fill-rule="evenodd" clip-rule="evenodd" d="M41.9121 14.9983L28.2655 28.3459V44.9409C28.2655 45.2397 26.9706 45.4788 25.4964 45.4987C24.0819 45.4788 22.7273 45.2397 22.7273 44.9409V28.3459L9.0808 14.9983C8.86166 14.7791 9.55892 13.7432 10.6347 12.6674C11.7105 11.5916 12.7663 10.8944 12.9656 11.1135L25.4765 23.3256L37.9874 11.1135C38.2066 10.8944 39.2425 11.5916 40.3183 12.6674C41.3941 13.7432 42.1113 14.7791 41.9121 14.9983Z" fill="#EC1C24"/>
</g>
<defs>
<linearGradient id="paint0_linear_2_3646" x1="25.4965" y1="0.0169678" x2="25.4965" y2="51.017" gradientUnits="userSpaceOnUse">
<stop offset="1e-07" stop-color="#F5F5F6"/>
<stop offset="1" stop-color="#EDEDEE"/>
</linearGradient>
<clipPath id="clip0_2_3646">
<rect width="51" height="51" fill="white"/>
</clipPath>
</defs>
</svg>
